{
.appVersion = "1352";
copyright = "Copyright 2020 The Fasthand Project Authors (https://github.com/danhhong/Fasthand)";
customParameters = (
{
name = fsType;
value = (
);
},
{
name = "Use Typo Metrics";
value = 1;
},
{
name = license;
value = "This Font Software is licensed under the SIL Open Font License, Version 1.1. This license is available with a FAQ at: https://scripts.sil.org/OFL";
},
{
name = licenseURL;
value = "https://scripts.sil.org/OFL";
}
);
date = "2020-02-19 02:17:00 +0000";
designer = "Danh Hong";
designerURL = "http://www.nextspell.com";
disablesAutomaticAlignment = 1;
disablesNiceNames = 1;
familyName = Fasthand;
featurePrefixes = (
{
code = "lookup lookup_0 {\012sub uni17B7 by uni17B7.r;\012sub uni17B8 by uni17B8.r;\012sub uni17B9 by uni17B9.r;\012sub uni17BA by uni17BA.r;\012sub uni17BE by uni17B8.r;\012sub uni17C6 by uni17C6.r;\012sub uni17C9 by uni17C9.r;\012sub uni17CD by uni17CD.r;\012sub uni17B7_17CD by iMark_17CDkhmer.r;\012} lookup_0;\012";
name = lookup_0;
},
{
code = "lookup lookup_1 {\012sub uni17B7 by uni17B7.a;\012sub uni17B8 by uni17B8.a;\012sub uni17B9 by uni17B9.a;\012sub uni17BA by uni17BA.a;\012sub uni17BE by uni17B8.a;\012sub uni17C6 by uni17C6.a;\012sub uni17CE by uni17CE.a;\012sub uni17D0 by uni17D0.a;\012} lookup_1;\012";
name = lookup_1;
},
{
code = "lookup lookup_10 {\012sub uni17BB by uni17BB.n;\012sub uni17BC by uni17BC.n;\012sub uni17BD by uni17BD.n;\012} lookup_10;\012";
name = lookup_10;
},
{
code = "lookup lookup_11 {\012sub uni17BB.b by uni17BB.n2;\012sub uni17BC.b by uni17BC.n2;\012sub uni17BD.b by uni17BD.n2;\012} lookup_11;\012";
name = lookup_11;
},
{

glyphs = (
{
glyphname = A;
layers = (
{
layerId = "F6DB7C97-1387-4B6F-ABF5-DF6BEF73745E";
paths = (
{
closed = 1;
nodes = (
"996 1494 OFFCURVE",
"966 1500 QCURVE",
"954 1504 OFFCURVE",
"920 1516 OFFCURVE",
"910 1512 QCURVE SMOOTH",
"876 1502 OFFCURVE",
"806 1462 OFFCURVE",
"778 1444 QCURVE",
"766 1422 OFFCURVE",
"732 1418 QCURVE",
"692 1378 OFFCURVE",
"612 1300 OFFCURVE",
"574 1258 QCURVE",
"554 1246 OFFCURVE",
"528 1210 OFFCURVE",
"510 1198 QCURVE",
"506 1186 OFFCURVE",
"486 1172 OFFCURVE",
"482 1160 QCURVE",
"454 1136 OFFCURVE",
"410 1076 OFFCURVE",
"382 1050 QCURVE",
"360 1022 OFFCURVE",
"310 968 OFFCURVE",
"288 938 QCURVE",
"246 872 LINE SMOOTH",
"242 866 OFFCURVE",
"232 856 OFFCURVE",
"228 850 QCURVE SMOOTH",
"200 804 OFFCURVE",
"162 702 OFFCURVE",
"146 650 QCURVE SMOOTH",
"140 632 OFFCURVE",
"130 596 OFFCURVE",
"120 578 QCURVE SMOOTH",
"116 572 OFFCURVE",
"112 560 OFFCURVE",
"108 550 QCURVE",
"104 534 OFFCURVE",
"92 506 OFFCURVE",
"88 490 QCURVE",
"84 482 OFFCURVE",
"78 466 OFFCURVE",
"76 460 QCURVE SMOOTH",
"74 454 OFFCURVE",
"74 442 OFFCURVE",
"72 436 QCURVE SMOOTH",
"62 404 OFFCURVE",
"32 328 OFFCURVE",
"30 284 QCURVE",
"32 260 OFFCURVE",
"34 216 OFFCURVE",
"40 190 QCURVE",
"46 182 OFFCURVE",
"54 168 OFFCURVE",
"56 158 QCURVE",
"76 136 OFFCURVE",
"98 74 OFFCURVE",
"120 38 QCURVE",
"132 28 OFFCURVE",
"150 12 OFFCURVE",
"162 2 QCURVE",
"178 -8 OFFCURVE",
"216 -26 OFFCURVE",
"238 -14 QCURVE",
"258 -12 OFFCURVE",
"288 2 OFFCURVE",
"304 8 QCURVE",
"350 44 OFFCURVE",
"446 110 OFFCURVE",
"490 150 QCURVE",
"518 166 OFFCURVE",
"566 206 OFFCURVE",
"592 224 QCURVE",
"616 236 OFFCURVE",
"654 268 OFFCURVE",
"670 286 QCURVE",
"680 290 OFFCURVE",
"690 304 OFFCURVE",
"700 308 QCURVE",
"698 280 OFFCURVE",
"688 232 OFFCURVE",
"690 200 QCURVE",
"686 176 OFFCURVE",
"676 134 OFFCURVE",
"672 112 QCURVE SMOOTH",
"670 104 OFFCURVE",
"670 92 OFFCURVE",
"668 86 QCURVE SMOOTH",
"666 78 OFFCURVE",
"662 62 OFFCURVE",
"664 56 QCURVE",
"664 36 OFFCURVE",
"678 6 OFFCURVE",
"698 -22 OFFCURVE",
"718 -50 OFFCURVE",
"724 -68 QCURVE",
"740 -72 OFFCURVE",
"766 -82 OFFCURVE",
"784 -80 QCURVE SMOOTH",
"816 -76 OFFCURVE",
"860 -54 OFFCURVE",
"884 -44 QCURVE SMOOTH",
"940 -16 OFFCURVE",
"1040 54 OFFCURVE",
"1088 82 QCURVE",
"1102 96 OFFCURVE",
"1138 128 OFFCURVE",
"1158 138 QCURVE",
"1174 154 OFFCURVE",
"1212 188 OFFCURVE",
"1222 210 QCURVE",
"1232 214 OFFCURVE",
"1266 242 OFFCURVE",
"1272 250 QCURVE SMOOTH",
"1276 254 OFFCURVE",
"1298 282 OFFCURVE",
"1298 286 QCURVE SMOOTH",
"1298 292 OFFCURVE",
"1296 306 OFFCURVE",
"1298 314 QCURVE",
"1292 318 OFFCURVE",
"1276 320 OFFCURVE",
"1268 324 QCURVE",
"1258 324 OFFCURVE",
"1224 304 OFFCURVE",
"1216 306 QCURVE",
"1212 302 OFFCURVE",
"1188 284 OFFCURVE",
"1168 278 QCURVE",
"1162 274 OFFCURVE",
"1138 258 OFFCURVE",
"1134 254 QCURVE SMOOTH",
"1126 246 OFFCURVE",
"1106 238 OFFCURVE",
"1096 234 QCURVE",
"1086 228 OFFCURVE",
"1066 216 OFFCURVE",
"1056 210 QCURVE SMOOTH",
"1038 200 OFFCURVE",
"1002 174 OFFCURVE",
"980 168 QCURVE",
"972 158 OFFCURVE",
"952 148 OFFCURVE",
"940 144 QCURVE",
"936 136 OFFCURVE",
"922 134 OFFCURVE",
"912 130 QCURVE SMOOTH",
"898 124 OFFCURVE",
"878 108 OFFCURVE",
"868 106 QCURVE SMOOTH",
"856 102 OFFCURVE",
"834 114 OFFCURVE",
"822 114 QCURVE",
"818 162 OFFCURVE",
"828 246 OFFCURVE",
"838 294 QCURVE",
"850 336 OFFCURVE",
"876 422 OFFCURVE",
"890 462 QCURVE SMOOTH",
"904 500 OFFCURVE",
"920 572 OFFCURVE",
"930 610 QCURVE",
"940 626 OFFCURVE",
"952 662 OFFCURVE",
"960 680 QCURVE SMOOTH",
"970 702 OFFCURVE",
"984 752 OFFCURVE",
"994 774 QCURVE SMOOTH",
"998 784 OFFCURVE",
"1010 806 OFFCURVE",
"1014 818 QCURVE",
"1020 830 OFFCURVE",
"1028 856 OFFCURVE",
"1034 868 QCURVE SMOOTH",
"1046 892 OFFCURVE",
"1062 920 QCURVE",
"1068 928 OFFCURVE",
"1072 944 OFFCURVE",
"1076 952 QCURVE SMOOTH",
"1080 958 OFFCURVE",
"1088 970 OFFCURVE",
"1092 978 QCURVE SMOOTH",
"1096 986 OFFCURVE",
"1102 1002 OFFCURVE",
"1106 1008 QCURVE SMOOTH",
"1110 1014 OFFCURVE",
"1124 1024 OFFCURVE",
"1130 1032 QCURVE",
"1140 1042 OFFCURVE",
"1152 1068 OFFCURVE",
"1162 1080 QCURVE SMOOTH",
"1166 1084 OFFCURVE",
"1178 1096 OFFCURVE",
"1196 1118 QCURVE SMOOTH",
"1204 1126 OFFCURVE",
"1226 1140 OFFCURVE",
"1232 1148 QCURVE",
"1242 1158 OFFCURVE",
"1246 1176 OFFCURVE",
"1254 1186 QCURVE",
"1260 1202 OFFCURVE",
"1268 1212 QCURVE SMOOTH",
"1278 1228 OFFCURVE",
"1308 1264 OFFCURVE",
"1304 1292 QCURVE",
"1312 1298 OFFCURVE",
"1318 1324 OFFCURVE",
"1320 1336 QCURVE",
"1320 1346 OFFCURVE",
"1332 1368 OFFCURVE",
"1336 1380 QCURVE SMOOTH",
"1340 1390 OFFCURVE",
"1344 1418 OFFCURVE",
"1344 1428 QCURVE SMOOTH",
"1344 1442 OFFCURVE",
"1334 1474 OFFCURVE",
"1308 1482 QCURVE",
"1304 1482 OFFCURVE",
"1300 1486 OFFCURVE",
"1282 1490 QCURVE",
"1260 1478 OFFCURVE",
"1228 1436 OFFCURVE",
"1212 1416 QCURVE SMOOTH",
"1204 1406 OFFCURVE",
"1190 1390 OFFCURVE",
"1182 1380 QCURVE SMOOTH",
"1172 1370 OFFCURVE",
"1152 1346 OFFCURVE",
"1142 1336 QCURVE SMOOTH",
"1136 1330 OFFCURVE",
"1122 1318 OFFCURVE",
"1118 1310 QCURVE",
"1110 1300 OFFCURVE",
"1098 1282 OFFCURVE",
"1088 1272 QCURVE SMOOTH",
"1080 1262 OFFCURVE",
"1064 1244 OFFCURVE",
"1054 1234 QCURVE",
"1050 1286 OFFCURVE",
"1044 1394 OFFCURVE",
"1022 1434 QCURVE",
"1024 1438 OFFCURVE",
"1024 1450 OFFCURVE",
"1026 1458 QCURVE",
"1016 1468 OFFCURVE"
);
},
{
closed = 1;
nodes = (
"194 366 OFFCURVE",
"190 370 QCURVE",
"196 384 OFFCURVE",
"216 400 OFFCURVE",
"226 410 QCURVE",
"230 416 OFFCURVE",
"234 430 OFFCURVE",
"238 436 QCURVE",
"242 440 OFFCURVE",
"248 448 OFFCURVE",
"252 454 QCURVE",
"256 464 OFFCURVE",
"262 486 OFFCURVE",
"266 496 QCURVE SMOOTH",
"270 506 OFFCURVE",
"280 522 OFFCURVE",
"284 532 QCURVE SMOOTH",
"288 540 OFFCURVE",
"290 558 OFFCURVE",
"294 566 QCURVE",
"302 576 OFFCURVE",
"314 596 OFFCURVE",
"318 606 QCURVE SMOOTH",
"322 616 OFFCURVE",
"330 638 OFFCURVE",
"334 650 QCURVE",
"338 656 OFFCURVE",
"344 668 OFFCURVE",
"348 676 QCURVE SMOOTH",
"354 692 OFFCURVE",
"364 722 OFFCURVE",
"372 738 QCURVE SMOOTH",
"382 760 OFFCURVE",
"394 776 QCURVE",
"394 786 OFFCURVE",
"402 796 OFFCURVE",
"400 802 QCURVE",
"422 844 OFFCURVE",
"472 924 OFFCURVE",
"502 960 QCURVE SMOOTH",
"506 964 OFFCURVE",
"512 978 OFFCURVE",
"530 994 QCURVE SMOOTH",
"542 1004 OFFCURVE",
"560 1036 OFFCURVE",
"576 1044 QCURVE",
"582 1058 OFFCURVE",
"598 1082 OFFCURVE",
"608 1094 QCURVE SMOOTH",
"628 1118 OFFCURVE",
"650 1134 QCURVE",
"656 1150 OFFCURVE",
"680 1174 OFFCURVE",
"692 1188 QCURVE SMOOTH",
"702 1198 OFFCURVE",
"714 1222 OFFCURVE",
"724 1232 QCURVE SMOOTH",
"734 1244 OFFCURVE",
"752 1266 OFFCURVE",
"760 1276 QCURVE SMOOTH",
"764 1282 OFFCURVE",
"774 1294 OFFCURVE",
"778 1298 QCURVE SMOOTH",
"784 1304 OFFCURVE",
"794 1316 OFFCURVE",
"798 1320 QCURVE",
"802 1326 OFFCURVE",
"816 1332 OFFCURVE",
"820 1336 QCURVE SMOOTH",
"830 1346 OFFCURVE",
"870 1388 OFFCURVE",
"892 1384 QCURVE SMOOTH",
"908 1380 OFFCURVE",
"932 1330 OFFCURVE",
"938 1314 QCURVE SMOOTH",
"944 1298 OFFCURVE",
"950 1274 OFFCURVE",
"956 1240 QCURVE",
"956 1218 OFFCURVE",
"940 1160 OFFCURVE",
"932 1140 QCURVE SMOOTH",
"928 1130 OFFCURVE",
"920 1116 OFFCURVE",
"916 1106 QCURVE SMOOTH",
"914 1102 OFFCURVE",
"916 1090 OFFCURVE",
"904 1076 QCURVE",
"900 1062 OFFCURVE",
"890 1028 OFFCURVE",
"884 1012 QCURVE SMOOTH",
"870 968 OFFCURVE",
"854 876 OFFCURVE",
"838 824 QCURVE SMOOTH",
"834 814 OFFCURVE",
"828 784 OFFCURVE",
"824 772 QCURVE SMOOTH",
"820 756 OFFCURVE",
"814 726 OFFCURVE",
"812 702 QCURVE",
"796 598 OFFCURVE",
"702 442 OFFCURVE",
"650 378 QCURVE",
"612 356 OFFCURVE",
"534 294 OFFCURVE",
"494 272 QCURVE SMOOTH",
"478 262 OFFCURVE",
"448 246 OFFCURVE",
"428 242 QCURVE",
"418 238 OFFCURVE",
"398 230 OFFCURVE",
"388 226 QCURVE SMOOTH",
"372 218 OFFCURVE",
"344 200 OFFCURVE",
"328 192 QCURVE SMOOTH",
"318 186 OFFCURVE",
"308 182 QCURVE SMOOTH",
"302 180 OFFCURVE",
"270 182 OFFCURVE",
"262 186 QCURVE SMOOTH",
"252 190 OFFCURVE",
"248 204 OFFCURVE",
"240 208 QCURVE",
"228 242 OFFCURVE",
"214 302 OFFCURVE",
"204 340 QCURVE",
"200 346 OFFCURVE"
);
}
);
width = 1200;
}
);
note = A;
unicode = 0041;
},
{
glyphname = B;
layers = (
{
layerId = "F6DB7C97-1387-4B6F-ABF5-DF6BEF73745E";
paths = (
{
closed = 1;
nodes = (
"820 712 OFFCURVE",
"868 720 OFFCURVE",
"892 722 QCURVE",
"910 726 OFFCURVE",
"932 730 OFFCURVE",
"948 734 QCURVE SMOOTH",
"960 736 OFFCURVE",
"974 746 OFFCURVE",
"980 750 QCURVE SMOOTH",
"1004 766 OFFCURVE",
"1054 800 OFFCURVE",
"1074 820 QCURVE",
"1102 832 OFFCURVE",
"1142 870 OFFCURVE",
"1164 888 QCURVE",
"1166 896 OFFCURVE",
"1176 904 OFFCURVE",
"1180 908 QCURVE",
"1188 922 OFFCURVE",
"1202 948 OFFCURVE",
"1214 970 QCURVE",
"1228 988 OFFCURVE",
"1234 1032 OFFCURVE",
"1244 1054 QCURVE SMOOTH",
"1254 1076 OFFCURVE",
"1268 1124 OFFCURVE",
"1270 1148 QCURVE SMOOTH",
"1272 1170 OFFCURVE",
"1268 1208 OFFCURVE",
"1270 1226 QCURVE SMOOTH",
"1270 1240 OFFCURVE",
"1272 1264 OFFCURVE",
"1270 1274 QCURVE",
"1268 1300 OFFCURVE",
"1248 1344 OFFCURVE",
"1236 1372 QCURVE",
"1230 1396 OFFCURVE",
"1200 1430 OFFCURVE",
"1170 1456 QCURVE",
"1154 1466 OFFCURVE",
"1108 1476 OFFCURVE",
"1086 1484 QCURVE SMOOTH",
"1078 1486 OFFCURVE",
"1060 1490 OFFCURVE",
"1052 1492 QCURVE SMOOTH",
"1030 1498 OFFCURVE",
"980 1502 OFFCURVE",
"934 1504 QCURVE SMOOTH",
"914 1506 OFFCURVE",
"868 1504 OFFCURVE",
"852 1504 QCURVE",
"828 1494 OFFCURVE",
"772 1500 OFFCURVE",
"750 1486 QCURVE",
"698 1482 OFFCURVE",
"620 1444 OFFCURVE",
"574 1428 QCURVE",
"536 1404 OFFCURVE",
"460 1368 OFFCURVE",
"410 1338 QCURVE SMOOTH",
"364 1310 OFFCURVE",
"264 1264 OFFCURVE",
"218 1236 QCURVE",
"216 1228 OFFCURVE",
"198 1218 OFFCURVE",
"204 1208 QCURVE",
"214 1208 OFFCURVE",
"224 1214 OFFCURVE",
"228 1214 QCURVE",
"238 1208 OFFCURVE",
"248 1222 OFFCURVE",
"264 1212 QCURVE",
"292 1218 OFFCURVE",
"350 1230 OFFCURVE",
"380 1246 QCURVE SMOOTH",
"408 1262 OFFCURVE",
"468 1294 OFFCURVE",
"502 1308 QCURVE",
"520 1318 OFFCURVE",
"560 1334 OFFCURVE",
"574 1320 QCURVE",
"566 1310 OFFCURVE",
"558 1284 OFFCURVE",
"548 1274 QCURVE",
"546 1266 OFFCURVE",
"542 1258 OFFCURVE",
"538 1252 QCURVE",
"532 1236 OFFCURVE",
"518 1208 OFFCURVE",
"514 1198 QCURVE SMOOTH",
"506 1182 OFFCURVE",
"488 1148 OFFCURVE",
"478 1138 QCURVE",
"474 1116 OFFCURVE",
"446 1078 OFFCURVE",
"430 1038 QCURVE SMOOTH",
"426 1028 OFFCURVE",
"416 1012 OFFCURVE",
"412 1002 QCURVE",
"400 992 OFFCURVE",
"390 954 OFFCURVE",
"376 938 QCURVE",
"358 904 OFFCURVE",
"324 840 OFFCURVE",
"302 798 QCURVE",
"288 762 OFFCURVE",
"252 696 OFFCURVE",
"242 660 QCURVE",
"216 608 OFFCURVE",
"160 508 OFFCURVE",
"140 450 QCURVE",
"144 442 OFFCURVE",
"142 432 OFFCURVE",
"138 424 QCURVE SMOOTH",
"124 390 OFFCURVE",
"88 334 OFFCURVE",
"72 300 QCURVE SMOOTH",
"56 272 OFFCURVE",
"26 214 OFFCURVE",
"10 186 QCURVE",
"-2 154 OFFCURVE",
"-42 104 OFFCURVE",
"-56 72 QCURVE",
"-52 62 OFFCURVE",
"-62 54 OFFCURVE",
"-62 46 QCURVE SMOOTH",
"-62 34 OFFCURVE",
"-42 22 OFFCURVE",
"-24 18 QCURVE",
"-14 4 OFFCURVE",
"32 12 OFFCURVE",
"46 18 QCURVE",
"50 28 OFFCURVE",
"60 40 OFFCURVE",
"62 50 QCURVE",
"58 64 OFFCURVE",
"74 86 OFFCURVE",
"72 100 QCURVE",
"82 98 OFFCURVE",
"86 118 OFFCURVE",
"110 120 QCURVE",
"118 124 OFFCURVE",
"118 140 OFFCURVE",
"122 150 QCURVE",
"128 160 OFFCURVE",
"138 178 OFFCURVE",
"140 190 QCURVE",
"152 210 OFFCURVE",
"168 256 OFFCURVE",
"192 260 QCURVE",
"194 256 OFFCURVE",
"202 226 QCURVE",
"206 220 OFFCURVE",
"216 206 OFFCURVE",
"220 196 QCURVE",
"226 186 OFFCURVE",
"240 170 OFFCURVE",
"238 156 QCURVE",
"260 120 OFFCURVE",
"288 38 OFFCURVE",
"320 12 QCURVE SMOOTH",
"340 -4 OFFCURVE",
"394 -20 OFFCURVE",
"416 -30 QCURVE SMOOTH",
"444 -44 OFFCURVE",
"520 -68 OFFCURVE",
"560 -62 QCURVE",
"570 -58 OFFCURVE",
"596 -54 OFFCURVE",
"606 -50 QCURVE SMOOTH",
"616 -46 OFFCURVE",
"634 -34 OFFCURVE",
"646 -28 QCURVE SMOOTH",
"662 -18 OFFCURVE",
"690 0 OFFCURVE",
"704 10 QCURVE SMOOTH",
"710 14 OFFCURVE",
"724 22 OFFCURVE",
"730 26 QCURVE SMOOTH",
"738 30 OFFCURVE",
"752 46 OFFCURVE",
"760 50 QCURVE",
"770 58 OFFCURVE",
"788 76 OFFCURVE",
"816 96 QCURVE",
"820 106 OFFCURVE",
"834 116 OFFCURVE",
"838 120 QCURVE",
"838 136 OFFCURVE",
"854 144 QCURVE",
"850 152 OFFCURVE",
"864 164 OFFCURVE",
"866 172 QCURVE SMOOTH",
"868 182 OFFCURVE",
"876 206 OFFCURVE",
"878 220 QCURVE",
"888 242 OFFCURVE",
"914 284 OFFCURVE",
"920 312 QCURVE SMOOTH",
"922 320 OFFCURVE",
"928 332 OFFCURVE",
"930 338 QCURVE SMOOTH",
"934 352 OFFCURVE",
"934 380 OFFCURVE",
"944 394 QCURVE",
"948 422 OFFCURVE",
"964 478 OFFCURVE",
"960 512 QCURVE SMOOTH",
"958 522 OFFCURVE",
"956 542 OFFCURVE",
"952 552 QCURVE SMOOTH",
"948 564 OFFCURVE",
"942 590 OFFCURVE",
"938 598 QCURVE",
"916 628 OFFCURVE",
"890 652 QCURVE",
"892 656 OFFCURVE",
"888 656 OFFCURVE",
"874 670 QCURVE",
"864 672 OFFCURVE",
"846 674 OFFCURVE",
"830 678 QCURVE",
"820 686 OFFCURVE",
"788 692 OFFCURVE",
"780 704 QCURVE",
"798 708 LINE SMOOTH"
);
},
{
closed = 1;
nodes = (
"652 772 OFFCURVE",
"632 778 OFFCURVE",
"620 776 QCURVE SMOOTH",
"604 772 OFFCURVE",
"580 762 OFFCURVE",
"564 762 QCURVE",
"554 752 OFFCURVE",
"526 754 OFFCURVE",
"516 748 QCURVE",
"522 738 OFFCURVE",
"522 714 OFFCURVE",
"526 704 QCURVE SMOOTH",
"530 694 OFFCURVE",
"550 686 OFFCURVE",
"550 674 QCURVE",
"560 672 OFFCURVE",
"568 660 QCURVE",
"578 656 OFFCURVE",
"594 644 OFFCURVE",
"604 638 QCURVE",
"630 634 OFFCURVE",
"674 618 OFFCURVE",
"696 610 QCURVE SMOOTH",
"704 606 OFFCURVE",
"722 606 OFFCURVE",
"730 602 QCURVE",
"742 592 OFFCURVE",
"760 558 OFFCURVE",
"776 534 QCURVE",
"780 526 OFFCURVE",
"780 508 OFFCURVE",
"784 500 QCURVE",
"790 482 OFFCURVE",
"802 444 OFFCURVE",
"802 406 QCURVE",
"800 386 OFFCURVE",
"776 362 OFFCURVE",
"772 346 QCURVE",
"756 328 OFFCURVE",
"732 286 OFFCURVE",
"710 264 QCURVE",
"706 252 OFFCURVE",
"696 230 OFFCURVE",
"688 220 QCURVE SMOOTH",
"684 214 OFFCURVE",
"678 204 OFFCURVE",
"674 200 QCURVE",
"662 180 OFFCURVE",
"626 154 OFFCURVE",
"608 138 QCURVE",
"596 132 OFFCURVE",
"570 120 OFFCURVE",
"558 114 QCURVE",
"552 118 OFFCURVE",
"542 112 OFFCURVE",
"536 110 QCURVE",
"516 110 OFFCURVE",
"474 120 OFFCURVE",
"454 112 QCURVE",
"432 114 OFFCURVE",
"386 110 OFFCURVE",
"368 122 QCURVE",
"352 144 OFFCURVE",
"316 180 OFFCURVE",
"304 204 QCURVE SMOOTH",
"300 214 OFFCURVE",
"294 226 OFFCURVE",
"290 234 QCURVE SMOOTH",
"286 240 OFFCURVE",
"282 252 OFFCURVE",
"278 260 QCURVE SMOOTH",
"270 278 OFFCURVE",
"260 296 OFFCURVE",
"252 318 QCURVE SMOOTH",
"250 324 OFFCURVE",
"250 334 OFFCURVE",
"248 340 QCURVE SMOOTH",
"244 348 OFFCURVE",
"236 362 OFFCURVE",
"238 372 QCURVE",
"240 376 OFFCURVE",
"244 378 OFFCURVE",
"248 394 QCURVE",
"252 400 OFFCURVE",
"260 412 OFFCURVE",
"264 420 QCURVE SMOOTH",
"274 438 OFFCURVE",
"298 480 OFFCURVE",
"308 502 QCURVE SMOOTH",
"312 512 OFFCURVE",
"326 534 OFFCURVE",
"332 544 QCURVE",
"336 554 OFFCURVE",
"344 570 OFFCURVE",
"348 578 QCURVE",
"358 590 OFFCURVE",
"374 612 QCURVE",
"386 616 OFFCURVE",
"384 636 OFFCURVE",
"394 644 QCURVE",
"430 710 OFFCURVE",
"474 776 QCURVE SMOOTH",
"494 808 OFFCURVE",
"524 876 OFFCURVE",
"546 910 QCURVE",
"554 920 OFFCURVE",
"570 938 OFFCURVE",
"576 948 QCURVE",
"580 958 OFFCURVE",
"588 978 OFFCURVE",
"592 990 QCURVE",
"606 1018 OFFCURVE",
"632 1072 OFFCURVE",
"648 1102 QCURVE",
"658 1130 OFFCURVE",
"672 1164 OFFCURVE",
"688 1188 QCURVE",
"696 1192 OFFCURVE",
"700 1216 OFFCURVE",
"710 1220 QCURVE",
"714 1226 OFFCURVE",
"720 1238 OFFCURVE",
"730 1242 QCURVE",
"734 1252 OFFCURVE",
"746 1268 OFFCURVE",
"754 1278 QCURVE SMOOTH",
"764 1294 OFFCURVE",
"782 1308 OFFCURVE",
"792 1326 QCURVE SMOOTH",
"796 1332 OFFCURVE",
"804 1346 OFFCURVE",
"808 1350 QCURVE",
"814 1352 OFFCURVE",
"842 1358 OFFCURVE",
"874 1362 OFFCURVE",
"904 1364 OFFCURVE",
"918 1362 QCURVE",
"922 1366 OFFCURVE",
"942 1364 OFFCURVE",
"946 1360 QCURVE",
"976 1370 OFFCURVE",
"1026 1344 OFFCURVE",
"1044 1330 QCURVE",
"1056 1310 OFFCURVE",
"1084 1270 OFFCURVE",
"1094 1248 QCURVE",
"1098 1242 OFFCURVE",
"1106 1226 OFFCURVE",
"1106 1218 QCURVE",
"1108 1210 OFFCURVE",
"1102 1194 OFFCURVE",
"1100 1174 QCURVE",
"1096 1158 OFFCURVE",
"1084 1124 OFFCURVE",
"1078 1106 QCURVE SMOOTH",
"1072 1084 OFFCURVE",
"1056 1044 OFFCURVE",
"1046 1024 QCURVE",
"1032 1012 OFFCURVE",
"1014 980 OFFCURVE",
"1000 966 QCURVE",
"992 960 OFFCURVE",
"974 950 OFFCURVE",
"966 944 QCURVE SMOOTH",
"954 934 OFFCURVE",
"932 920 OFFCURVE",
"920 910 QCURVE",
"910 904 OFFCURVE",
"888 884 OFFCURVE",
"876 878 QCURVE",
"868 872 OFFCURVE",
"852 864 OFFCURVE",
"830 850 QCURVE SMOOTH",
"818 844 OFFCURVE",
"790 836 OFFCURVE",
"774 832 QCURVE",
"746 822 OFFCURVE",
"690 796 OFFCURVE",
"662 784 QCURVE",
"662 778 LINE"
);
}
);
width = 1106;
}
);
note = B;
unicode = 0042;
},
{
glyphname = C;
layers = (
{
layerId = "F6DB7C97-1387-4B6F-ABF5-DF6BEF73745E";
paths = (
{
closed = 1;
nodes = (
"1158 1484 OFFCURVE",
"1142 1492 QCURVE SMOOTH",
"1126 1500 OFFCURVE",
"1088 1504 QCURVE",
"1082 1506 OFFCURVE",
"1070 1512 OFFCURVE",
"1062 1514 QCURVE SMOOTH",
"1040 1520 OFFCURVE",
"1004 1506 OFFCURVE",
"980 1506 QCURVE",
"974 1498 OFFCURVE",
"954 1496 OFFCURVE",
"932 1482 QCURVE SMOOTH",
"918 1474 OFFCURVE",
"896 1464 OFFCURVE",
"880 1458 QCURVE",
"852 1444 OFFCURVE",
"796 1414 OFFCURVE",
"776 1392 QCURVE",
"742 1370 OFFCURVE",
"682 1316 OFFCURVE",
"654 1288 QCURVE SMOOTH",
"636 1272 OFFCURVE",
"602 1234 OFFCURVE",
"584 1216 QCURVE SMOOTH",
"568 1202 OFFCURVE",
"550 1194 QCURVE",
"534 1182 OFFCURVE",
"506 1158 OFFCURVE",
"492 1142 QCURVE SMOOTH",
"486 1136 OFFCURVE",
"472 1122 OFFCURVE",
"464 1116 QCURVE",
"450 1100 OFFCURVE",
"424 1074 OFFCURVE",
"410 1058 QCURVE SMOOTH",
"398 1044 OFFCURVE",
"372 1016 OFFCURVE",
"356 1004 QCURVE",
"340 974 OFFCURVE",
"298 926 OFFCURVE",
"278 898 QCURVE SMOOTH",
"266 882 OFFCURVE",
"242 852 OFFCURVE",
"236 830 QCURVE",
"218 814 OFFCURVE",
"196 774 OFFCURVE",
"186 754 QCURVE SMOOTH",
"174 732 OFFCURVE",
"154 690 OFFCURVE",
"144 668 QCURVE SMOOTH",
"134 644 OFFCURVE",
"116 600 OFFCURVE",
"98 576 QCURVE",
"78 542 OFFCURVE",
"48 464 OFFCURVE",
"36 420 QCURVE SMOOTH",
"32 404 OFFCURVE",
"20 368 OFFCURVE",
"20 352 QCURVE SMOOTH",
"20 342 OFFCURVE",
"24 324 OFFCURVE",
"22 314 QCURVE",
"20 278 OFFCURVE",
"20 204 OFFCURVE",
"30 170 QCURVE",
"34 162 OFFCURVE",
"44 150 OFFCURVE",
"44 142 QCURVE",
"52 126 OFFCURVE",
"68 100 OFFCURVE",
"76 88 QCURVE SMOOTH",
"84 78 OFFCURVE",
"96 64 OFFCURVE",
"112 38 QCURVE",
"134 12 OFFCURVE",
"188 -26 OFFCURVE",
"232 -54 QCURVE",
"242 -54 OFFCURVE",
"258 -48 OFFCURVE",
"268 -48 QCURVE SMOOTH",
"284 -50 OFFCURVE",
"310 -62 OFFCURVE",
"322 -64 QCURVE",
"328 -66 OFFCURVE",
"340 -66 OFFCURVE",
"344 -68 QCURVE",
"372 -70 OFFCURVE",
"418 -54 OFFCURVE",
"440 -48 QCURVE SMOOTH",
"490 -34 OFFCURVE",
"572 12 OFFCURVE",
"612 26 QCURVE",
"622 32 OFFCURVE",
"640 46 OFFCURVE",
"650 52 QCURVE",
"660 62 OFFCURVE",
"680 80 OFFCURVE",
"690 90 QCURVE",
"712 124 OFFCURVE",
"762 172 OFFCURVE",
"788 200 QCURVE SMOOTH",
"806 220 OFFCURVE",
"840 254 OFFCURVE",
"854 276 QCURVE SMOOTH",
"868 298 OFFCURVE",
"900 336 OFFCURVE",
"916 354 QCURVE",
"932 376 OFFCURVE",
"964 412 OFFCURVE",
"978 432 QCURVE",
"980 438 OFFCURVE",
"998 466 QCURVE",
"998 480 OFFCURVE",
"970 506 OFFCURVE",
"958 504 QCURVE",
"948 504 OFFCURVE",
"940 484 OFFCURVE",
"936 478 QCURVE SMOOTH",
"928 468 OFFCURVE",
"912 458 OFFCURVE",
"908 454 QCURVE SMOOTH",
"900 444 OFFCURVE",
"886 428 OFFCURVE",
"878 420 QCURVE SMOOTH",
"872 414 OFFCURVE",
"856 402 QCURVE SMOOTH",
"844 392 OFFCURVE",
"822 372 OFFCURVE",
"806 366 QCURVE",
"792 350 OFFCURVE",
"770 340 QCURVE",
"756 324 OFFCURVE",
"730 298 OFFCURVE",
"716 282 QCURVE SMOOTH",
"714 280 OFFCURVE",
"710 280 OFFCURVE",
"696 262 QCURVE",
"680 252 OFFCURVE",
"654 222 OFFCURVE",
"622 198 QCURVE",
"602 188 OFFCURVE",
"570 152 OFFCURVE",
"544 142 QCURVE SMOOTH",
"520 132 OFFCURVE",
"466 116 OFFCURVE",
"438 108 QCURVE SMOOTH",
"420 104 OFFCURVE",
"376 94 OFFCURVE",
"360 90 QCURVE SMOOTH",
"350 88 OFFCURVE",
"334 90 OFFCURVE",
"324 90 QCURVE",
"314 92 OFFCURVE",
"292 90 OFFCURVE",
"282 94 QCURVE SMOOTH",
"274 96 OFFCURVE",
"256 108 OFFCURVE",
"250 112 QCURVE SMOOTH",
"242 118 OFFCURVE",
"232 126 OFFCURVE",
"224 146 QCURVE SMOOTH",
"220 154 OFFCURVE",
"204 166 OFFCURVE",
"200 174 QCURVE",
"190 186 OFFCURVE",
"180 210 OFFCURVE",
"174 226 QCURVE",
"184 232 OFFCURVE",
"184 254 OFFCURVE",
"196 280 QCURVE",
"200 292 OFFCURVE",
"200 322 OFFCURVE",
"204 336 QCURVE",
"206 352 OFFCURVE",
"216 378 OFFCURVE",
"218 392 QCURVE SMOOTH",
"222 420 OFFCURVE",
"244 464 OFFCURVE",
"248 492 QCURVE",
"264 522 OFFCURVE",
"290 584 OFFCURVE",
"314 616 QCURVE",
"328 648 OFFCURVE",
"366 698 OFFCURVE",
"386 722 QCURVE",
"392 732 OFFCURVE",
"400 754 OFFCURVE",
"406 764 QCURVE SMOOTH",
"414 774 OFFCURVE",
"432 798 OFFCURVE",
"442 808 QCURVE SMOOTH",
"452 820 OFFCURVE",
"468 844 OFFCURVE",
"478 854 QCURVE",
"496 876 OFFCURVE",
"532 922 OFFCURVE",
"548 944 QCURVE SMOOTH",
"566 966 OFFCURVE",
"610 1004 OFFCURVE",
"630 1026 QCURVE SMOOTH",
"652 1048 OFFCURVE",
"702 1090 OFFCURVE",
"728 1110 QCURVE",
"762 1132 OFFCURVE",
"818 1184 OFFCURVE",
"852 1206 QCURVE",
"868 1228 OFFCURVE",
"900 1270 OFFCURVE",
"926 1298 QCURVE",
"934 1314 OFFCURVE",
"960 1338 OFFCURVE",
"972 1350 QCURVE SMOOTH",
"988 1364 OFFCURVE",
"1024 1388 OFFCURVE",
"1040 1398 QCURVE",
"1056 1394 OFFCURVE",
"1084 1384 OFFCURVE",
"1098 1354 QCURVE",
"1100 1338 OFFCURVE",
"1092 1304 OFFCURVE",
"1096 1294 QCURVE",
"1090 1284 OFFCURVE",
"1092 1246 OFFCURVE",
"1090 1230 QCURVE SMOOTH",
"1088 1208 OFFCURVE",
"1072 1168 OFFCURVE",
"1062 1148 QCURVE SMOOTH",
"1052 1130 OFFCURVE",
"1036 1094 OFFCURVE",
"1032 1074 QCURVE",
"1022 1054 OFFCURVE",
"1004 1020 OFFCURVE",
"994 1002 QCURVE",
"960 960 OFFCURVE",
"866 900 OFFCURVE",
"818 870 QCURVE",
"816 876 OFFCURVE",
"806 884 OFFCURVE",
"802 890 QCURVE SMOOTH",
"798 896 OFFCURVE",
"792 910 OFFCURVE",
"790 914 QCURVE",
"790 918 OFFCURVE",
"798 934 OFFCURVE",
"802 942 QCURVE SMOOTH",
"812 958 OFFCURVE",
"830 988 OFFCURVE",
"830 1010 QCURVE",
"844 1028 OFFCURVE",
"874 1062 OFFCURVE",
"884 1086 QCURVE",
"898 1090 OFFCURVE",
"908 1108 OFFCURVE",
"916 1118 QCURVE SMOOTH",
"926 1132 OFFCURVE",
"952 1148 OFFCURVE",
"956 1164 QCURVE",
"970 1168 OFFCURVE",
"998 1178 OFFCURVE",
"1008 1184 QCURVE",
"1008 1192 OFFCURVE",
"1008 1206 OFFCURVE",
"980 1202 QCURVE",
"972 1198 OFFCURVE",
"956 1198 OFFCURVE",
"948 1194 QCURVE",
"944 1190 OFFCURVE",
"936 1182 OFFCURVE",
"932 1178 QCURVE",
"926 1174 OFFCURVE",
"910 1164 OFFCURVE",
"904 1158 QCURVE SMOOTH",
"894 1150 OFFCURVE",
"884 1134 OFFCURVE",
"876 1128 QCURVE SMOOTH",
"852 1108 OFFCURVE",
"800 1072 OFFCURVE",
"780 1038 QCURVE",
"764 1028 OFFCURVE",
"740 1006 OFFCURVE",
"724 996 QCURVE",
"722 986 OFFCURVE",
"706 976 OFFCURVE",
"702 966 QCURVE",
"690 944 OFFCURVE",
"684 874 OFFCURVE",
"694 846 QCURVE SMOOTH",
"696 842 OFFCURVE",
"700 838 OFFCURVE",
"706 816 QCURVE SMOOTH",
"710 800 OFFCURVE",
"730 788 OFFCURVE",
"738 780 QCURVE",
"738 764 OFFCURVE",
"750 734 OFFCURVE",
"764 732 QCURVE",
"772 732 OFFCURVE",
"788 736 QCURVE SMOOTH",
"794 738 OFFCURVE",
"808 744 OFFCURVE",
"818 748 QCURVE SMOOTH",
"826 750 OFFCURVE",
"842 750 OFFCURVE",
"850 754 QCURVE",
"868 758 OFFCURVE",
"906 776 OFFCURVE",
"920 784 QCURVE",
"942 788 OFFCURVE",
"972 806 OFFCURVE",
"994 816 QCURVE SMOOTH",
"1052 844 OFFCURVE",
"1130 948 OFFCURVE",
"1162 1006 QCURVE SMOOTH",
"1170 1022 OFFCURVE",
"1186 1050 OFFCURVE",
"1190 1062 QCURVE SMOOTH",
"1192 1070 OFFCURVE",
"1190 1082 OFFCURVE",
"1192 1090 QCURVE",
"1192 1100 OFFCURVE",
"1198 1118 OFFCURVE",
"1200 1128 QCURVE SMOOTH",
"1210 1182 OFFCURVE",
"1236 1272 OFFCURVE",
"1242 1342 QCURVE",
"1236 1348 OFFCURVE",
"1236 1366 OFFCURVE",
"1236 1374 QCURVE",
"1232 1390 OFFCURVE",
"1230 1424 OFFCURVE",
"1228 1440 QCURVE",
"1222 1444 OFFCURVE",
"1210 1458 OFFCURVE",
"1208 1468 QCURVE",
"1188 1470 OFFCURVE"
);
}
);
width = 1056;
}
);
note = C;
unicode = 0043;
},
{
glyphname = D;
layers = (
{
layerId = "F6DB7C97-1387-4B6F-ABF5-DF6BEF73745E";
paths = (
{
closed = 1;
nodes = (
"502 1084 OFFCURVE",
"486 1050 QCURVE SMOOTH",
"478 1034 OFFCURVE",
"462 998 OFFCURVE",
"456 980 QCURVE SMOOTH",
"454 972 OFFCURVE",
"446 960 OFFCURVE",
"442 954 QCURVE SMOOTH",
"426 926 OFFCURVE",
"410 886 QCURVE",
"400 866 OFFCURVE",
"382 822 OFFCURVE",
"370 806 QCURVE",
"358 772 OFFCURVE",
"322 718 OFFCURVE",
"310 684 QCURVE",
"288 662 OFFCURVE",
"258 612 OFFCURVE",
"236 574 QCURVE SMOOTH",
"216 542 OFFCURVE",
"182 476 OFFCURVE",
"166 442 QCURVE SMOOTH",
"162 432 OFFCURVE",
"152 408 OFFCURVE",
"146 396 QCURVE",
"142 392 OFFCURVE",
"136 380 OFFCURVE",
"132 376 QCURVE",
"116 348 OFFCURVE",
"98 290 OFFCURVE",
"82 262 QCURVE SMOOTH",
"76 250 OFFCURVE",
"64 226 OFFCURVE",
"62 216 QCURVE SMOOTH",
"60 202 OFFCURVE",
"66 180 OFFCURVE",
"70 166 QCURVE SMOOTH",
"80 128 OFFCURVE",
"94 68 OFFCURVE",
"106 30 QCURVE",
"116 18 OFFCURVE",
"128 -10 OFFCURVE",
"158 -18 QCURVE",
"170 -26 OFFCURVE",
"194 -38 OFFCURVE",
"208 -46 QCURVE",
"216 -48 OFFCURVE",
"228 -52 OFFCURVE",
"236 -54 QCURVE SMOOTH",
"252 -58 OFFCURVE",
"286 -70 OFFCURVE",
"302 -72 QCURVE SMOOTH",
"310 -72 OFFCURVE",
"322 -68 OFFCURVE",
"328 -68 QCURVE",
"340 -66 OFFCURVE",
"364 -66 OFFCURVE",
"376 -62 QCURVE",
"380 -62 OFFCURVE",
"392 -56 OFFCURVE",
"416 -50 QCURVE",
"464 -28 OFFCURVE",
"496 2 QCURVE SMOOTH",
"506 12 OFFCURVE",
"528 24 OFFCURVE",
"538 32 QCURVE SMOOTH",
"562 48 OFFCURVE",
"602 82 OFFCURVE",
"622 98 QCURVE SMOOTH",
"676 144 OFFCURVE",
"786 228 OFFCURVE",
"836 278 QCURVE SMOOTH",
"876 320 OFFCURVE",
"944 408 OFFCURVE",
"976 458 QCURVE SMOOTH",
"986 472 OFFCURVE",
"1004 496 OFFCURVE",
"1010 508 QCURVE SMOOTH",
"1018 524 OFFCURVE",
"1022 530 QCURVE",
"1028 546 OFFCURVE",
"1042 580 OFFCURVE",
"1048 594 QCURVE SMOOTH",
"1052 604 OFFCURVE",
"1056 620 OFFCURVE",
"1074 642 QCURVE SMOOTH",
"1078 648 OFFCURVE",
"1080 664 OFFCURVE",
"1084 670 QCURVE",
"1100 704 OFFCURVE",
"1128 774 OFFCURVE",
"1148 802 QCURVE SMOOTH",
"1164 828 OFFCURVE",
"1192 878 OFFCURVE",
"1204 920 QCURVE",
"1204 942 OFFCURVE",
"1224 988 OFFCURVE",
"1228 1014 QCURVE SMOOTH",
"1230 1024 OFFCURVE",
"1230 1048 OFFCURVE",
"1232 1058 QCURVE SMOOTH",
"1236 1088 OFFCURVE",
"1246 1142 OFFCURVE",
"1250 1170 QCURVE",
"1256 1180 OFFCURVE",
"1258 1204 OFFCURVE",
"1262 1218 QCURVE SMOOTH",
"1266 1228 OFFCURVE",
"1272 1248 OFFCURVE",
"1272 1258 QCURVE SMOOTH",
"1272 1282 OFFCURVE",
"1256 1324 OFFCURVE",
"1248 1346 QCURVE",
"1250 1360 OFFCURVE",
"1232 1370 OFFCURVE",
"1222 1380 QCURVE SMOOTH",
"1216 1386 OFFCURVE",
"1206 1396 OFFCURVE",
"1190 1406 QCURVE SMOOTH",
"1182 1412 OFFCURVE",
"1170 1424 OFFCURVE",
"1160 1430 QCURVE SMOOTH",
"1142 1440 OFFCURVE",
"1110 1458 OFFCURVE",
"1090 1466 QCURVE SMOOTH",
"1080 1470 OFFCURVE",
"1058 1478 OFFCURVE",
"1032 1478 QCURVE",
"1024 1480 OFFCURVE",
"1016 1484 OFFCURVE",
"1008 1484 QCURVE SMOOTH",
"974 1486 OFFCURVE",
"916 1466 OFFCURVE",
"884 1462 QCURVE",
"862 1454 OFFCURVE",
"814 1446 OFFCURVE",
"792 1440 QCURVE SMOOTH",
"770 1436 OFFCURVE",
"728 1420 OFFCURVE",
"706 1410 QCURVE SMOOTH",
"664 1390 OFFCURVE",
"574 1346 OFFCURVE",
"538 1318 QCURVE SMOOTH",
"514 1302 OFFCURVE",
"464 1276 OFFCURVE",
"436 1262 QCURVE SMOOTH",
"416 1252 OFFCURVE",
"380 1220 OFFCURVE",
"362 1204 QCURVE SMOOTH",
"344 1188 OFFCURVE",
"308 1160 OFFCURVE",
"286 1146 QCURVE",
"262 1118 OFFCURVE",
"216 1064 OFFCURVE",
"200 1024 QCURVE",
"204 1014 OFFCURVE",
"222 1004 QCURVE",
"266 1004 OFFCURVE",
"306 1034 QCURVE SMOOTH",
"320 1044 OFFCURVE",
"340 1070 OFFCURVE",
"354 1080 QCURVE SMOOTH",
"398 1108 OFFCURVE",
"494 1150 OFFCURVE",
"548 1168 QCURVE",
"532 1138 OFFCURVE"
);
},
{
closed = 1;
nodes = (
"1030 1332 OFFCURVE",
"1046 1330 QCURVE",
"1056 1320 OFFCURVE",
"1066 1296 OFFCURVE",
"1076 1282 QCURVE SMOOTH",
"1082 1272 OFFCURVE",
"1084 1258 OFFCURVE",
"1088 1242 QCURVE",
"1088 1232 OFFCURVE",
"1092 1220 QCURVE SMOOTH",
"1094 1216 OFFCURVE",
"1096 1206 OFFCURVE",
"1106 1190 QCURVE",
"1110 1178 OFFCURVE",
"1104 1144 OFFCURVE",
"1102 1128 QCURVE SMOOTH",
"1102 1120 OFFCURVE",
"1106 1104 OFFCURVE",
"1104 1094 QCURVE SMOOTH",
"1100 1064 OFFCURVE",
"1098 1000 OFFCURVE",
"1082 976 QCURVE",
"1062 972 OFFCURVE",
"1052 926 OFFCURVE",
"1038 912 QCURVE",
"1028 884 OFFCURVE",
"998 826 OFFCURVE",
"978 800 QCURVE",
"956 742 OFFCURVE",
"894 646 OFFCURVE",
"866 594 QCURVE",
"850 576 OFFCURVE",
"824 532 OFFCURVE",
"808 512 QCURVE SMOOTH",
"796 496 OFFCURVE",
"768 470 OFFCURVE",
"760 450 QCURVE",
"738 436 OFFCURVE",
"710 396 OFFCURVE",
"690 380 QCURVE",
"680 364 OFFCURVE",
"658 336 OFFCURVE",
"646 322 QCURVE",
"628 308 OFFCURVE",
"618 304 QCURVE",
"594 270 OFFCURVE",
"530 224 OFFCURVE",
"500 198 QCURVE",
"462 184 OFFCURVE",
"412 138 OFFCURVE",
"380 118 QCURVE",
"352 116 OFFCURVE",
"322 86 OFFCURVE",
"302 76 QCURVE",
"274 72 OFFCURVE",
"236 48 OFFCURVE",
"204 44 QCURVE",
"210 50 OFFCURVE",
"210 68 OFFCURVE",
"210 86 OFFCURVE",
"214 102 OFFCURVE",
"222 108 QCURVE",
"222 120 OFFCURVE",
"232 146 OFFCURVE",
"236 158 QCURVE SMOOTH",
"240 170 OFFCURVE",
"248 196 OFFCURVE",
"260 220 QCURVE SMOOTH",
"266 234 OFFCURVE",
"274 262 OFFCURVE",
"280 276 QCURVE SMOOTH",
"284 288 OFFCURVE",
"296 316 OFFCURVE",
"304 330 QCURVE",
"308 342 OFFCURVE",
"322 366 OFFCURVE",
"328 380 QCURVE SMOOTH",
"334 396 OFFCURVE",
"342 422 OFFCURVE",
"348 434 QCURVE SMOOTH",
"352 442 OFFCURVE",
"362 454 OFFCURVE",
"366 460 QCURVE SMOOTH",
"376 478 OFFCURVE",
"392 514 OFFCURVE",
"402 530 QCURVE",
"406 540 OFFCURVE",
"420 558 OFFCURVE",
"428 580 QCURVE",
"436 594 OFFCURVE",
"458 618 OFFCURVE",
"468 634 QCURVE",
"474 656 OFFCURVE",
"488 692 OFFCURVE",
"494 710 QCURVE SMOOTH",
"498 720 OFFCURVE",
"500 744 OFFCURVE",
"504 754 QCURVE SMOOTH",
"508 768 OFFCURVE",
"522 794 OFFCURVE",
"528 808 QCURVE",
"532 824 OFFCURVE",
"550 850 OFFCURVE",
"556 864 QCURVE SMOOTH",
"564 888 OFFCURVE",
"590 930 QCURVE",
"598 950 OFFCURVE",
"620 984 OFFCURVE",
"630 1006 QCURVE SMOOTH",
"644 1032 OFFCURVE",
"670 1082 OFFCURVE",
"686 1108 QCURVE SMOOTH",
"700 1132 OFFCURVE",
"722 1186 OFFCURVE",
"744 1208 QCURVE",
"746 1214 OFFCURVE",
"752 1224 OFFCURVE",
"754 1230 QCURVE",
"770 1242 OFFCURVE",
"800 1262 OFFCURVE",
"818 1272 QCURVE SMOOTH",
"834 1280 OFFCURVE",
"866 1296 OFFCURVE",
"884 1302 QCURVE SMOOTH",
"910 1312 OFFCURVE",
"960 1330 OFFCURVE",
"988 1332 QCURVE SMOOTH",
"1004 1332 OFFCURVE"
);
}
);
width = 1128;
}
);
note = D;
unicode = 0044;
},
{
glyphname = E;
layers = (
{
layerId = "F6DB7C97-1387-4B6F-ABF5-DF6BEF73745E";
paths = (
{
closed = 1;
nodes = (
"986 1440 OFFCURVE",
"966 1458 OFFCURVE",
"950 1460 QCURVE",
"940 1470 OFFCURVE",
"912 1476 OFFCURVE",
"892 1478 QCURVE SMOOTH",
"876 1480 OFFCURVE",
"854 1472 OFFCURVE",
"840 1468 QCURVE SMOOTH",
"816 1462 OFFCURVE",
"802 1454 QCURVE SMOOTH",
"794 1450 OFFCURVE",
"782 1442 OFFCURVE",
"772 1440 QCURVE",
"752 1426 OFFCURVE",
"710 1408 OFFCURVE",
"692 1392 QCURVE",
"674 1380 OFFCURVE",
"638 1352 OFFCURVE",
"616 1342 QCURVE",
"584 1320 OFFCURVE",
"534 1262 OFFCURVE",
"508 1232 QCURVE",
"494 1220 OFFCURVE",
"472 1188 OFFCURVE",
"456 1178 QCURVE",
"448 1160 OFFCURVE",
"424 1128 OFFCURVE",
"410 1106 QCURVE SMOOTH",
"400 1090 OFFCURVE",
"378 1058 OFFCURVE",
"368 1044 QCURVE",
"368 1034 OFFCURVE",
"362 1026 OFFCURVE",
"360 1018 QCURVE SMOOTH",
"358 1012 OFFCURVE",
"360 1000 OFFCURVE",
"352 980 QCURVE SMOOTH",
"348 970 OFFCURVE",
"348 946 OFFCURVE",
"348 936 QCURVE SMOOTH",
"348 920 OFFCURVE",
"348 890 OFFCURVE",
"350 876 QCURVE",
"352 872 OFFCURVE",
"354 864 OFFCURVE",
"358 844 QCURVE SMOOTH",
"360 836 OFFCURVE",
"368 822 OFFCURVE",
"370 814 QCURVE SMOOTH",
"380 782 OFFCURVE",
"398 724 OFFCURVE",
"414 706 QCURVE",
"352 680 OFFCURVE",
"292 668 QCURVE",
"252 652 OFFCURVE",
"178 612 OFFCURVE",
"132 592 QCURVE",
"124 586 OFFCURVE",
"110 574 OFFCURVE",
"100 570 QCURVE",
"86 554 OFFCURVE",
"58 532 OFFCURVE",
"52 510 QCURVE",
"40 494 OFFCURVE",
"26 458 OFFCURVE",
"16 442 QCURVE SMOOTH",
"6 426 OFFCURVE",
"-14 396 OFFCURVE",
"-24 378 QCURVE",
"-28 368 OFFCURVE",
"-36 350 OFFCURVE",
"-44 340 QCURVE",
"-58 312 OFFCURVE",
"-88 232 OFFCURVE",
"-80 192 QCURVE",
"-74 184 OFFCURVE",
"-64 168 OFFCURVE",
"-60 158 QCURVE SMOOTH",
"-56 148 OFFCURVE",
"-50 132 OFFCURVE",
"-40 102 QCURVE SMOOTH",
"-32 82 OFFCURVE",
"-14 58 QCURVE",
"-8 44 OFFCURVE",
"6 22 OFFCURVE",
"12 12 QCURVE",
"22 0 OFFCURVE",
"36 -32 OFFCURVE",
"50 -36 QCURVE",
"58 -52 OFFCURVE",
"102 -82 OFFCURVE",
"118 -86 QCURVE SMOOTH",
"138 -92 OFFCURVE",
"150 -90 QCURVE",
"182 -80 OFFCURVE",
"252 -44 OFFCURVE",
"286 -34 QCURVE",
"310 -18 OFFCURVE",
"364 2 OFFCURVE",
"388 18 QCURVE",
"408 24 OFFCURVE",
"426 36 QCURVE",
"448 46 OFFCURVE",
"490 74 OFFCURVE",
"508 88 QCURVE SMOOTH",
"524 100 OFFCURVE",
"562 118 OFFCURVE",
"576 134 QCURVE",
"602 150 OFFCURVE",
"640 194 OFFCURVE",
"666 212 QCURVE",
"684 252 OFFCURVE",
"728 296 QCURVE",
"732 302 OFFCURVE",
"740 312 OFFCURVE",
"742 320 QCURVE",
"756 340 OFFCURVE",
"766 396 OFFCURVE",
"756 420 QCURVE SMOOTH",
"752 428 OFFCURVE",
"744 436 OFFCURVE",
"740 442 QCURVE SMOOTH",
"730 454 OFFCURVE",
"704 476 OFFCURVE",
"686 480 QCURVE",
"678 490 OFFCURVE",
"656 486 OFFCURVE",
"644 484 QCURVE",
"638 484 OFFCURVE",
"628 486 OFFCURVE",
"622 486 QCURVE",
"614 488 OFFCURVE",
"600 484 OFFCURVE",
"592 484 QCURVE",
"584 486 OFFCURVE",
"564 490 QCURVE",
"546 490 OFFCURVE",
"516 480 OFFCURVE",
"502 478 QCURVE SMOOTH",
"492 476 OFFCURVE",
"466 466 OFFCURVE",
"456 462 QCURVE",
"450 458 OFFCURVE",
"442 448 OFFCURVE",
"426 438 QCURVE SMOOTH",
"416 432 OFFCURVE",
"402 422 OFFCURVE",
"398 416 QCURVE",
"386 412 OFFCURVE",
"370 390 OFFCURVE",
"362 362 QCURVE SMOOTH",
"358 352 OFFCURVE",
"354 320 OFFCURVE",
"352 308 QCURVE SMOOTH",
"350 298 OFFCURVE",
"354 288 OFFCURVE",
"352 282 QCURVE",
"352 276 OFFCURVE",
"348 258 OFFCURVE",
"348 254 QCURVE",
"350 248 OFFCURVE",
"362 236 OFFCURVE",
"368 236 QCURVE",
"382 254 OFFCURVE",
"396 296 OFFCURVE",
"406 316 QCURVE",
"410 322 OFFCURVE",
"420 330 OFFCURVE",
"422 340 QCURVE",
"440 360 OFFCURVE",
"498 388 OFFCURVE",
"530 394 QCURVE",
"536 396 OFFCURVE",
"548 400 OFFCURVE",
"552 400 QCURVE",
"574 404 OFFCURVE",
"610 392 OFFCURVE",
"628 394 QCURVE",
"634 390 OFFCURVE",
"638 372 OFFCURVE",
"642 364 QCURVE",
"636 358 OFFCURVE",
"630 344 OFFCURVE",
"622 342 QCURVE",
"616 324 OFFCURVE",
"594 300 OFFCURVE",
"584 282 QCURVE",
"568 268 OFFCURVE",
"528 240 OFFCURVE",
"506 230 QCURVE SMOOTH",
"474 214 OFFCURVE",
"424 178 OFFCURVE",
"400 160 QCURVE",
"390 156 OFFCURVE",
"372 146 OFFCURVE",
"364 142 QCURVE SMOOTH",
"332 128 OFFCURVE",
"282 92 OFFCURVE",
"248 82 QCURVE",
"244 78 OFFCURVE",
"232 78 OFFCURVE",
"226 76 QCURVE SMOOTH",
"220 74 OFFCURVE",
"206 68 OFFCURVE",
"202 68 QCURVE SMOOTH",
"198 68 OFFCURVE",
"182 76 OFFCURVE",
"176 80 QCURVE SMOOTH",
"160 90 OFFCURVE",
"148 108 OFFCURVE",
"140 122 QCURVE",
"136 132 OFFCURVE",
"126 146 OFFCURVE",
"122 150 QCURVE",
"112 166 OFFCURVE",
"108 206 OFFCURVE",
"110 230 QCURVE SMOOTH",
"112 248 OFFCURVE",
"122 292 OFFCURVE",
"122 312 QCURVE",
"124 322 OFFCURVE",
"126 330 OFFCURVE",
"136 340 QCURVE",
"190 408 LINE",
"222 434 OFFCURVE",
"248 464 QCURVE",
"252 478 OFFCURVE",
"272 490 OFFCURVE",
"290 506 QCURVE",
"312 522 OFFCURVE",
"360 546 OFFCURVE",
"388 556 QCURVE",
"398 556 OFFCURVE",
"406 564 OFFCURVE",
"426 568 QCURVE",
"478 584 OFFCURVE",
"584 608 OFFCURVE",
"632 620 QCURVE",
"652 618 OFFCURVE",
"688 628 OFFCURVE",
"710 630 QCURVE",
"720 636 OFFCURVE",
"746 654 OFFCURVE",
"754 668 QCURVE SMOOTH",
"760 678 OFFCURVE",
"766 714 OFFCURVE",
"764 728 QCURVE",
"760 740 OFFCURVE",
"728 768 OFFCURVE",
"710 756 QCURVE",
"690 760 OFFCURVE",
"648 748 OFFCURVE",
"626 750 QCURVE SMOOTH",
"608 752 OFFCURVE",
"570 760 OFFCURVE",
"548 764 QCURVE",
"542 772 OFFCURVE",
"528 786 OFFCURVE",
"522 796 QCURVE SMOOTH",
"516 806 OFFCURVE",
"508 828 OFFCURVE",
"496 848 QCURVE",
"492 858 OFFCURVE",
"492 874 OFFCURVE",
"490 884 QCURVE",
"488 888 OFFCURVE",
"484 902 OFFCURVE",
"486 908 QCURVE SMOOTH",
"488 912 OFFCURVE",
"492 924 OFFCURVE",
"494 930 QCURVE SMOOTH",
"500 946 OFFCURVE",
"516 972 OFFCURVE",
"522 986 QCURVE SMOOTH",
"530 1000 OFFCURVE",
"542 1026 OFFCURVE",
"550 1038 QCURVE SMOOTH",
"560 1054 OFFCURVE",
"584 1086 OFFCURVE",
"604 1116 QCURVE SMOOTH",
"620 1138 OFFCURVE",
"650 1184 OFFCURVE",
"666 1202 QCURVE",
"696 1254 OFFCURVE",
"792 1332 OFFCURVE",
"868 1334 QCURVE",
"884 1344 OFFCURVE",
"928 1342 OFFCURVE",
"946 1334 QCURVE",
"942 1318 OFFCURVE",
"938 1292 OFFCURVE",
"930 1282 QCURVE",
"932 1270 OFFCURVE",
"920 1246 OFFCURVE",
"920 1230 QCURVE",
"914 1218 OFFCURVE",
"914 1200 QCURVE",
"908 1176 OFFCURVE",
"882 1130 OFFCURVE",
"880 1102 QCURVE",
"878 1092 OFFCURVE",
"880 1074 OFFCURVE",
"876 1064 QCURVE",
"880 1054 OFFCURVE",
"886 1044 OFFCURVE",
"892 1038 QCURVE",
"904 1036 OFFCURVE",
"926 1032 OFFCURVE",
"936 1030 QCURVE",
"952 1030 OFFCURVE",
"982 1040 OFFCURVE",
"998 1044 QCURVE SMOOTH",
"1014 1048 OFFCURVE",
"1036 1054 OFFCURVE",
"1046 1064 QCURVE SMOOTH",
"1062 1080 OFFCURVE",
"1042 1120 OFFCURVE",
"1042 1138 QCURVE SMOOTH",
"1040 1162 OFFCURVE",
"1064 1220 OFFCURVE",
"1068 1272 QCURVE SMOOTH",
"1070 1296 OFFCURVE",
"1088 1336 OFFCURVE",
"1088 1358 QCURVE",
"1084 1362 OFFCURVE",
"1072 1376 QCURVE SMOOTH",
"1056 1392 OFFCURVE",
"1018 1412 OFFCURVE",
"1004 1430 QCURVE",
"996 1430 LINE"
);
}
);
width = 882;
}
);
note = E;
unicode = 0045;
},
{
glyphname = F;
layers = (
{
layerId = "F6DB7C97-1387-4B6F-ABF5-DF6BEF73745E";
paths = (
{
closed = 1;
nodes = (
"1034 1446 OFFCURVE",
"1012 1444 QCURVE SMOOTH",
"906 1434 OFFCURVE",
"714 1382 OFFCURVE",
"612 1362 QCURVE",
"612 1358 OFFCURVE",
"590 1358 QCURVE",
"584 1352 OFFCURVE",
"566 1350 OFFCURVE",
"558 1346 QCURVE",
"530 1340 OFFCURVE",
"476 1326 OFFCURVE",
"446 1324 QCURVE",
"430 1316 OFFCURVE",
"394 1314 OFFCURVE",
"362 1304 QCURVE",
"332 1298 OFFCURVE",
"278 1288 OFFCURVE",
"250 1282 QCURVE",
"234 1274 OFFCURVE",
"184 1266 OFFCURVE",
"176 1246 QCURVE",
"162 1238 OFFCURVE",
"166 1228 OFFCURVE",
"180 1210 QCURVE",
"184 1210 OFFCURVE",
"192 1202 OFFCURVE",
"200 1198 QCURVE",
"210 1198 OFFCURVE",
"222 1190 OFFCURVE",
"246 1182 QCURVE",
"256 1180 OFFCURVE",
"272 1184 OFFCURVE",
"282 1182 QCURVE",
"314 1188 OFFCURVE",
"346 1188 QCURVE SMOOTH",
"362 1188 OFFCURVE",
"394 1192 OFFCURVE",
"410 1194 QCURVE SMOOTH",
"480 1200 OFFCURVE",
"616 1216 OFFCURVE",
"692 1224 QCURVE",
"722 1232 OFFCURVE",
"788 1260 OFFCURVE",
"818 1264 QCURVE",
"834 1268 OFFCURVE",
"858 1276 OFFCURVE",
"878 1280 QCURVE",
"894 1280 OFFCURVE",
"922 1292 OFFCURVE",
"932 1290 QCURVE",
"922 1266 OFFCURVE",
"894 1228 OFFCURVE",
"884 1204 QCURVE",
"876 1198 OFFCURVE",
"870 1180 OFFCURVE",
"858 1178 QCURVE",
"844 1148 OFFCURVE",
"822 1122 QCURVE SMOOTH",
"796 1092 OFFCURVE",
"780 1064 QCURVE",
"774 1056 OFFCURVE",
"762 1042 OFFCURVE",
"754 1032 QCURVE SMOOTH",
"744 1020 OFFCURVE",
"724 998 OFFCURVE",
"714 984 QCURVE SMOOTH",
"704 970 OFFCURVE",
"688 944 OFFCURVE",
"666 914 QCURVE",
"662 910 OFFCURVE",
"660 894 OFFCURVE",
"652 884 QCURVE",
"646 880 OFFCURVE",
"642 868 OFFCURVE",
"634 864 QCURVE",
"628 848 OFFCURVE",
"606 826 OFFCURVE",
"596 814 QCURVE SMOOTH",
"592 808 OFFCURVE",
"586 794 OFFCURVE",
"580 790 QCURVE",
"496 778 OFFCURVE",
"324 762 OFFCURVE",
"236 742 QCURVE",
"202 742 OFFCURVE",
"182 716 QCURVE",
"188 700 OFFCURVE",
"194 694 QCURVE",
"202 690 OFFCURVE",
"204 680 OFFCURVE",
"208 674 QCURVE",
"220 662 OFFCURVE",
"230 642 QCURVE SMOOTH",
"232 638 OFFCURVE",
"238 636 OFFCURVE",
"246 624 QCURVE",
"256 614 OFFCURVE",
"276 624 OFFCURVE",
"286 628 QCURVE",
"298 630 OFFCURVE",
"324 632 OFFCURVE",
"334 632 QCURVE SMOOTH",
"366 632 OFFCURVE",
"428 642 OFFCURVE",
"452 644 QCURVE",
"466 652 OFFCURVE",
"484 648 QCURVE",
"484 632 OFFCURVE",
"470 618 OFFCURVE",
"464 608 QCURVE SMOOTH",
"456 596 OFFCURVE",
"446 568 OFFCURVE",
"438 556 QCURVE SMOOTH",
"434 548 OFFCURVE",
"426 538 OFFCURVE",
"422 532 QCURVE SMOOTH",
"402 504 OFFCURVE",
"392 476 QCURVE",
"382 456 OFFCURVE",
"366 424 OFFCURVE",
"354 404 QCURVE",
"344 394 OFFCURVE",
"336 370 OFFCURVE",
"332 356 QCURVE",
"322 338 OFFCURVE",
"298 306 OFFCURVE",
"290 274 QCURVE",
"286 242 OFFCURVE",
"258 196 OFFCURVE",
"246 172 QCURVE",
"238 164 OFFCURVE",
"226 148 OFFCURVE",
"222 136 QCURVE",
"204 118 OFFCURVE",
"180 74 OFFCURVE",
"164 58 QCURVE",
"156 44 OFFCURVE",
"144 18 OFFCURVE",
"134 6 QCURVE",
"134 -2 OFFCURVE",
"128 -10 OFFCURVE",
"124 -18 QCURVE SMOOTH",
"120 -24 OFFCURVE",
"114 -36 OFFCURVE",
"108 -52 QCURVE",
"88 -82 LINE",
"84 -90 OFFCURVE",
"62 -118 OFFCURVE",
"62 -126 QCURVE",
"60 -138 OFFCURVE",
"84 -166 OFFCURVE",
"114 -152 QCURVE",
"118 -138 OFFCURVE",
"134 -114 OFFCURVE",
"156 -106 QCURVE",
"172 -96 OFFCURVE",
"216 -68 OFFCURVE",
"232 -56 QCURVE SMOOTH",
"238 -52 OFFCURVE",
"252 -44 OFFCURVE",
"258 -36 QCURVE",
"268 -26 OFFCURVE",
"280 0 OFFCURVE",
"288 12 QCURVE",
"314 60 OFFCURVE",
"372 150 OFFCURVE",
"398 190 QCURVE",
"408 210 OFFCURVE",
"428 246 OFFCURVE",
"438 262 QCURVE",
"442 276 OFFCURVE",
"456 298 OFFCURVE",
"462 314 QCURVE SMOOTH",
"466 326 OFFCURVE",
"476 352 OFFCURVE",
"482 364 QCURVE SMOOTH",
"494 384 OFFCURVE",
"516 418 OFFCURVE",
"526 436 QCURVE",
"544 458 OFFCURVE",
"580 504 OFFCURVE",
"596 526 QCURVE SMOOTH",
"602 534 OFFCURVE",
"612 550 OFFCURVE",
"620 556 QCURVE",
"628 570 OFFCURVE",
"646 594 OFFCURVE",
"656 604 QCURVE",
"666 618 OFFCURVE",
"682 642 OFFCURVE",
"692 656 QCURVE SMOOTH",
"696 662 OFFCURVE",
"700 674 OFFCURVE",
"706 678 QCURVE",
"716 682 OFFCURVE",
"742 676 OFFCURVE",
"752 684 QCURVE",
"788 688 OFFCURVE",
"862 698 OFFCURVE",
"898 702 QCURVE SMOOTH",
"900 702 OFFCURVE",
"902 704 OFFCURVE",
"924 706 QCURVE SMOOTH",
"958 710 OFFCURVE",
"1040 712 OFFCURVE",
"1052 748 QCURVE",
"1056 752 OFFCURVE",
"1060 764 OFFCURVE",
"1068 768 QCURVE",
"1078 764 OFFCURVE",
"1088 774 OFFCURVE",
"1098 774 QCURVE",
"1104 792 OFFCURVE",
"1088 804 QCURVE",
"1036 804 OFFCURVE",
"932 800 OFFCURVE",
"872 796 QCURVE SMOOTH",
"844 794 OFFCURVE",
"798 788 OFFCURVE",
"776 790 QCURVE",
"808 838 OFFCURVE",
"880 922 OFFCURVE",
"908 972 QCURVE",
"928 986 OFFCURVE",
"942 1022 OFFCURVE",
"954 1040 QCURVE",
"958 1048 OFFCURVE",
"972 1062 OFFCURVE",
"976 1072 QCURVE",
"1000 1102 LINE",
"1012 1114 OFFCURVE",
"1040 1134 OFFCURVE",
"1054 1144 QCURVE SMOOTH",
"1070 1156 OFFCURVE",
"1078 1182 OFFCURVE",
"1088 1196 QCURVE SMOOTH",
"1098 1210 OFFCURVE",
"1120 1238 OFFCURVE",
"1130 1254 QCURVE SMOOTH",
"1140 1270 OFFCURVE",
"1160 1302 OFFCURVE",
"1164 1318 QCURVE SMOOTH",
"1168 1338 OFFCURVE",
"1168 1346 QCURVE",
"1166 1350 OFFCURVE",
"1162 1354 OFFCURVE",
"1162 1376 QCURVE",
"1158 1378 OFFCURVE",
"1152 1382 OFFCURVE",
"1128 1382 QCURVE SMOOTH",
"1122 1382 OFFCURVE",
"1100 1404 OFFCURVE",
"1096 1410 QCURVE",
"1096 1416 OFFCURVE",
"1090 1434 QCURVE",
"1076 1440 OFFCURVE"
);
}
);
width = 860;
}
);
note = F;
unicode = 0046;
},
{
glyphname = G;
layers = (
{
layerId = "F6DB7C97-1387-4B6F-ABF5-DF6BEF73745E";
paths = (
{
closed = 1;
nodes = (
"1520 1556 OFFCURVE",
"1510 1566 QCURVE",
"1506 1564 OFFCURVE",
"1476 1554 QCURVE",
"1470 1556 OFFCURVE",
"1452 1550 QCURVE",
"1450 1540 OFFCURVE",
"1438 1534 OFFCURVE",
"1430 1522 QCURVE SMOOTH",
"1426 1516 OFFCURVE",
"1420 1498 QCURVE",
"1404 1480 OFFCURVE",
"1376 1448 OFFCURVE",
"1360 1432 QCURVE SMOOTH",
"1336 1406 OFFCURVE",
"1276 1368 OFFCURVE",
"1248 1346 QCURVE SMOOTH",
"1188 1302 OFFCURVE",
"1036 1250 OFFCURVE",
"954 1228 QCURVE",
"944 1232 OFFCURVE",
"924 1224 OFFCURVE",
"910 1222 QCURVE SMOOTH",
"886 1218 OFFCURVE",
"848 1206 OFFCURVE",
"830 1200 QCURVE",
"820 1208 OFFCURVE",
"800 1226 OFFCURVE",
"798 1242 QCURVE SMOOTH",
"796 1268 OFFCURVE",
"790 1328 OFFCURVE",
"772 1382 OFFCURVE",
"742 1424 OFFCURVE",
"716 1430 QCURVE",
"708 1434 OFFCURVE",
"694 1434 OFFCURVE",
"674 1436 QCURVE",
"664 1444 OFFCURVE",
"644 1444 QCURVE",
"616 1432 OFFCURVE",
"568 1400 OFFCURVE",
"542 1384 QCURVE",
"534 1342 OFFCURVE",
"530 1298 QCURVE",
"530 1278 OFFCURVE",
"528 1242 OFFCURVE",
"532 1220 QCURVE SMOOTH",
"534 1200 OFFCURVE",
"546 1164 OFFCURVE",
"556 1146 QCURVE SMOOTH",
"560 1140 OFFCURVE",
"568 1122 OFFCURVE",
"568 1118 QCURVE",
"570 1110 OFFCURVE",
"560 1092 OFFCURVE",
"556 1084 QCURVE SMOOTH",
"526 1014 OFFCURVE",
"464 872 OFFCURVE",
"426 812 QCURVE",
"420 796 OFFCURVE",
"408 772 OFFCURVE",
"404 760 QCURVE SMOOTH",
"400 744 OFFCURVE",
"382 712 OFFCURVE",
"378 692 QCURVE",
"368 678 OFFCURVE",
"362 642 OFFCURVE",
"352 628 QCURVE",
"342 624 OFFCURVE",
"318 618 OFFCURVE",
"306 618 QCURVE SMOOTH",
"284 616 OFFCURVE",
"244 606 OFFCURVE",
"222 612 QCURVE",
"178 608 OFFCURVE",
"102 588 OFFCURVE",
"72 572 QCURVE",
"32 562 OFFCURVE",
"-4 490 OFFCURVE",
"-38 448 QCURVE",
"-58 444 OFFCURVE",
"-62 400 OFFCURVE",
"-62 382 QCURVE SMOOTH",
"-62 372 OFFCURVE",
"-58 354 OFFCURVE",
"-58 344 QCURVE SMOOTH",
"-60 316 OFFCURVE",
"-62 258 OFFCURVE",
"-58 234 QCURVE",
"-44 224 OFFCURVE",
"-38 186 OFFCURVE",
"-28 174 QCURVE",
"-24 158 OFFCURVE",
"-10 140 OFFCURVE",
"-4 124 QCURVE",
"4 118 OFFCURVE",
"14 100 OFFCURVE",
"18 92 QCURVE",
"38 62 OFFCURVE",
"66 44 QCURVE",
"82 28 OFFCURVE",
"114 6 OFFCURVE",
"132 -8 QCURVE",
"152 -14 OFFCURVE",
"182 -34 OFFCURVE",
"200 -44 QCURVE",
"220 -48 OFFCURVE",
"262 -54 OFFCURVE",
"278 -58 QCURVE SMOOTH",
"288 -60 OFFCURVE",
"310 -58 OFFCURVE",
"318 -62 QCURVE",
"322 -62 OFFCURVE",
"324 -66 OFFCURVE",
"342 -72 QCURVE SMOOTH",
"350 -74 OFFCURVE",
"362 -78 OFFCURVE",
"368 -80 QCURVE SMOOTH",
"378 -82 OFFCURVE",
"412 -76 OFFCURVE",
"424 -72 QCURVE",
"428 -72 OFFCURVE",
"432 -68 OFFCURVE",
"446 -70 QCURVE",
"452 -68 OFFCURVE",
"464 -60 OFFCURVE",
"494 -56 QCURVE",
"510 -46 OFFCURVE",
"560 -32 OFFCURVE",
"582 -24 QCURVE",
"598 -16 OFFCURVE",
"614 -22 QCURVE SMOOTH",
"618 -24 OFFCURVE",
"624 -20 OFFCURVE",
"644 -18 QCURVE",
"654 -6 OFFCURVE",
"686 10 OFFCURVE",
"696 22 QCURVE",
"732 50 OFFCURVE",
"802 102 OFFCURVE",
"824 146 QCURVE",
"858 192 OFFCURVE",
"910 300 OFFCURVE",
"938 356 QCURVE SMOOTH",
"964 410 OFFCURVE",
"1024 528 OFFCURVE",
"1038 590 QCURVE",
"1044 600 OFFCURVE",
"1050 620 OFFCURVE",
"1060 626 QCURVE",
"1082 636 OFFCURVE",
"1114 636 QCURVE SMOOTH",
"1136 636 LINE",
"1140 638 OFFCURVE",
"1156 642 OFFCURVE",
"1164 644 QCURVE SMOOTH",
"1180 648 OFFCURVE",
"1200 648 OFFCURVE",
"1216 652 QCURVE",
"1228 646 OFFCURVE",
"1250 652 OFFCURVE",
"1262 656 QCURVE SMOOTH",
"1276 662 OFFCURVE",
"1298 674 OFFCURVE",
"1302 684 QCURVE",
"1322 688 OFFCURVE",
"1360 694 OFFCURVE",
"1380 712 QCURVE",
"1372 714 OFFCURVE",
"1380 730 OFFCURVE",
"1384 734 QCURVE",
"1380 738 OFFCURVE",
"1368 734 OFFCURVE",
"1356 736 QCURVE",
"1346 734 OFFCURVE",
"1330 740 OFFCURVE",
"1320 738 QCURVE",
"1314 738 OFFCURVE",
"1302 734 OFFCURVE",
"1298 732 QCURVE",
"1276 726 OFFCURVE",
"1256 730 QCURVE",
"1226 722 OFFCURVE",
"1172 718 OFFCURVE",
"1144 714 QCURVE SMOOTH",
"1130 712 OFFCURVE",
"1102 704 OFFCURVE",
"1086 708 QCURVE",
"1108 752 OFFCURVE",
"1146 842 OFFCURVE",
"1168 884 QCURVE",
"1168 900 OFFCURVE",
"1186 920 OFFCURVE",
"1190 930 QCURVE SMOOTH",
"1194 940 OFFCURVE",
"1200 954 OFFCURVE",
"1204 964 QCURVE SMOOTH",
"1208 974 OFFCURVE",
"1214 990 OFFCURVE",
"1218 1000 QCURVE SMOOTH",
"1232 1028 OFFCURVE",
"1264 1076 OFFCURVE",
"1278 1104 QCURVE",
"1284 1108 OFFCURVE",
"1288 1120 OFFCURVE",
"1292 1126 QCURVE SMOOTH",
"1306 1144 OFFCURVE",
"1330 1178 QCURVE SMOOTH",
"1334 1184 OFFCURVE",
"1340 1200 OFFCURVE",
"1344 1206 QCURVE SMOOTH",
"1346 1210 OFFCURVE",
"1352 1216 OFFCURVE",
"1360 1232 QCURVE SMOOTH",
"1366 1244 OFFCURVE",
"1382 1266 OFFCURVE",
"1386 1278 QCURVE",
"1398 1292 OFFCURVE",
"1412 1320 OFFCURVE",
"1422 1336 QCURVE SMOOTH",
"1432 1350 OFFCURVE",
"1454 1374 OFFCURVE",
"1470 1404 QCURVE",
"1476 1408 OFFCURVE",
"1488 1430 OFFCURVE",
"1496 1440 QCURVE",
"1510 1464 OFFCURVE",
"1536 1514 OFFCURVE",
"1514 1530 QCURVE",
"1520 1540 LINE"
);
},
{
closed = 1;
nodes = (
"1146 1146 OFFCURVE",
"1196 1168 QCURVE",
"1196 1162 OFFCURVE",
"1182 1152 OFFCURVE",
"1180 1144 QCURVE",
"1176 1140 OFFCURVE",
"1170 1126 OFFCURVE",
"1164 1122 QCURVE",
"1164 1112 OFFCURVE",
"1154 1106 OFFCURVE",
"1154 1096 QCURVE",
"1140 1088 OFFCURVE",
"1130 1060 QCURVE",
"1118 1040 OFFCURVE",
"1096 998 OFFCURVE",
"1084 976 QCURVE SMOOTH",
"1074 958 OFFCURVE",
"1052 924 OFFCURVE",
"1042 906 QCURVE SMOOTH",
"1032 886 OFFCURVE",
"1018 852 OFFCURVE",
"1010 834 QCURVE",
"1000 818 OFFCURVE",
"982 784 OFFCURVE",
"972 768 QCURVE SMOOTH",
"968 762 OFFCURVE",
"966 748 OFFCURVE",
"954 730 QCURVE",
"946 722 OFFCURVE",
"940 702 OFFCURVE",
"934 692 QCURVE",
"858 688 OFFCURVE",
"696 668 OFFCURVE",
"624 672 QCURVE",
"588 668 OFFCURVE",
"520 656 OFFCURVE",
"486 652 QCURVE",
"492 674 OFFCURVE",
"512 718 OFFCURVE",
"524 740 QCURVE SMOOTH",
"556 798 OFFCURVE",
"606 914 OFFCURVE",
"632 978 QCURVE SMOOTH",
"644 1006 OFFCURVE",
"672 1056 OFFCURVE",
"686 1084 QCURVE",
"702 1078 OFFCURVE",
"742 1070 OFFCURVE",
"748 1054 QCURVE",
"768 1050 OFFCURVE",
"816 1036 OFFCURVE",
"838 1032 QCURVE SMOOTH",
"850 1030 OFFCURVE",
"866 1034 QCURVE",
"910 1034 OFFCURVE",
"980 1062 OFFCURVE",
"1010 1078 QCURVE",
"1062 1094 OFFCURVE"
);
},
{
closed = 1;
nodes = (
"890 602 OFFCURVE",
"900 600 QCURVE",
"900 588 OFFCURVE",
"886 566 OFFCURVE",
"880 558 QCURVE",
"872 536 OFFCURVE",
"856 498 OFFCURVE",
"846 466 QCURVE",
"832 444 OFFCURVE",
"812 388 OFFCURVE",
"796 366 QCURVE",
"786 336 OFFCURVE",
"772 312 QCURVE",
"764 280 OFFCURVE",
"728 232 OFFCURVE",
"712 210 QCURVE SMOOTH",
"700 194 OFFCURVE",
"682 174 OFFCURVE",
"666 164 QCURVE SMOOTH",
"658 160 OFFCURVE",
"646 152 QCURVE SMOOTH",
"630 142 OFFCURVE",
"602 116 OFFCURVE",
"586 106 QCURVE",
"576 92 OFFCURVE",
"546 72 OFFCURVE",
"532 62 QCURVE",
"500 58 OFFCURVE",
"426 54 OFFCURVE",
"392 54 QCURVE SMOOTH",
"366 54 OFFCURVE",
"356 58 QCURVE",
"320 54 OFFCURVE",
"248 76 OFFCURVE",
"220 92 QCURVE SMOOTH",
"216 94 OFFCURVE",
"212 98 OFFCURVE",
"198 102 QCURVE",
"192 106 OFFCURVE",
"184 122 OFFCURVE",
"178 132 QCURVE SMOOTH",
"160 160 OFFCURVE",
"120 216 OFFCURVE",
"114 262 QCURVE SMOOTH",
"112 278 OFFCURVE",
"120 306 OFFCURVE",
"130 330 OFFCURVE",
"140 354 OFFCURVE",
"136 386 QCURVE",
"136 394 OFFCURVE",
"146 400 OFFCURVE",
"152 406 QCURVE SMOOTH",
"162 416 OFFCURVE",
"180 438 OFFCURVE",
"196 442 QCURVE",
"214 458 OFFCURVE",
"262 474 OFFCURVE",
"284 478 QCURVE",
"280 468 OFFCURVE",
"272 452 OFFCURVE",
"270 430 QCURVE",
"268 422 OFFCURVE",
"260 404 OFFCURVE",
"256 394 QCURVE SMOOTH",
"248 372 OFFCURVE",
"238 336 OFFCURVE",
"242 304 QCURVE",
"252 306 OFFCURVE",
"272 302 QCURVE",
"294 340 OFFCURVE",
"336 414 OFFCURVE",
"358 448 QCURVE",
"380 458 OFFCURVE",
"400 498 OFFCURVE",
"414 514 QCURVE",
"440 518 OFFCURVE",
"490 534 OFFCURVE",
"516 538 QCURVE SMOOTH",
"524 540 OFFCURVE",
"540 538 OFFCURVE",
"566 546 QCURVE SMOOTH",
"608 556 OFFCURVE",
"696 568 OFFCURVE",
"750 576 QCURVE",
"772 586 OFFCURVE",
"834 590 OFFCURVE",
"864 594 QCURVE",
"870 598 OFFCURVE"
);
}
);
width = 1210;
}
);
note = G;
unicode = 0047;
},
{
glyphname = H;
layers = (
{
layerId = "F6DB7C97-1387-4B6F-ABF5-DF6BEF73745E";
paths = (
{
closed = 1;
nodes = (
"1484 1502 OFFCURVE",
"1480 1512 QCURVE",
"1472 1516 OFFCURVE",
"1464 1526 OFFCURVE",
"1454 1528 QCURVE",
"1446 1524 OFFCURVE",
"1432 1516 OFFCURVE",
"1426 1510 QCURVE",
"1416 1516 OFFCURVE",
"1404 1502 OFFCURVE",
"1400 1498 QCURVE",
"1396 1492 OFFCURVE",
"1384 1478 OFFCURVE",
"1380 1472 QCURVE",
"1378 1466 OFFCURVE",
"1382 1452 OFFCURVE",
"1378 1446 QCURVE SMOOTH",
"1376 1442 OFFCURVE",
"1368 1428 OFFCURVE",
"1364 1420 QCURVE SMOOTH",
"1352 1400 OFFCURVE",
"1342 1374 QCURVE",
"1334 1360 OFFCURVE",
"1318 1336 OFFCURVE",
"1310 1324 QCURVE",
"1300 1302 OFFCURVE",
"1284 1280 QCURVE",
"1280 1270 OFFCURVE",
"1272 1252 OFFCURVE",
"1268 1242 QCURVE SMOOTH",
"1258 1222 OFFCURVE",
"1238 1184 OFFCURVE",
"1228 1164 QCURVE SMOOTH",
"1218 1142 OFFCURVE",
"1196 1098 OFFCURVE",
"1188 1078 QCURVE",
"1178 1070 OFFCURVE",
"1176 1050 OFFCURVE",
"1172 1042 QCURVE SMOOTH",
"1168 1034 OFFCURVE",
"1162 1020 OFFCURVE",
"1158 1014 QCURVE SMOOTH",
"1134 974 OFFCURVE",
"1100 916 QCURVE SMOOTH",
"1096 908 OFFCURVE",
"1090 898 OFFCURVE",
"1078 874 QCURVE SMOOTH",
"1074 864 OFFCURVE",
"1062 852 OFFCURVE",
"1056 836 QCURVE SMOOTH",
"1052 828 OFFCURVE",
"1038 812 OFFCURVE",
"1034 802 QCURVE SMOOTH",
"1030 794 OFFCURVE",
"1020 778 OFFCURVE",
"1012 774 QCURVE",
"964 778 OFFCURVE",
"874 776 OFFCURVE",
"830 774 QCURVE",
"822 772 OFFCURVE",
"810 774 OFFCURVE",
"802 770 QCURVE",
"754 768 OFFCURVE",
"664 738 OFFCURVE",
"612 742 QCURVE",
"578 738 OFFCURVE",
"510 730 OFFCURVE",
"476 730 QCURVE",
"480 746 OFFCURVE",
"492 766 OFFCURVE",
"502 786 QCURVE",
"506 800 OFFCURVE",
"518 820 OFFCURVE",
"522 832 QCURVE",
"538 860 OFFCURVE",
"574 926 OFFCURVE",
"590 952 QCURVE SMOOTH",
"598 964 OFFCURVE",
"608 990 OFFCURVE",
"616 1000 QCURVE SMOOTH",
"638 1026 OFFCURVE",
"672 1048 QCURVE",
"698 1086 OFFCURVE",
"752 1156 OFFCURVE",
"792 1166 QCURVE",
"796 1170 OFFCURVE",
"798 1184 OFFCURVE",
"806 1184 QCURVE",
"816 1196 OFFCURVE",
"834 1210 QCURVE",
"840 1222 OFFCURVE",
"860 1242 OFFCURVE",
"864 1260 QCURVE",
"872 1270 OFFCURVE",
"880 1292 OFFCURVE",
"888 1302 QCURVE",
"888 1310 OFFCURVE",
"898 1328 OFFCURVE",
"900 1338 QCURVE SMOOTH",
"902 1346 OFFCURVE",
"898 1364 OFFCURVE",
"898 1374 QCURVE",
"894 1402 OFFCURVE",
"894 1458 OFFCURVE",
"878 1474 QCURVE",
"894 1488 OFFCURVE",
"866 1516 OFFCURVE",
"850 1516 QCURVE SMOOTH",
"832 1518 OFFCURVE",
"802 1502 OFFCURVE",
"786 1496 QCURVE",
"776 1490 OFFCURVE",
"754 1480 OFFCURVE",
"736 1474 QCURVE SMOOTH",
"732 1472 OFFCURVE",
"730 1468 OFFCURVE",
"714 1464 QCURVE",
"686 1448 OFFCURVE",
"632 1416 OFFCURVE",
"608 1400 QCURVE SMOOTH",
"598 1392 OFFCURVE",
"580 1376 OFFCURVE",
"570 1372 QCURVE SMOOTH",
"544 1360 OFFCURVE",
"494 1334 OFFCURVE",
"468 1324 QCURVE",
"448 1308 OFFCURVE",
"404 1286 OFFCURVE",
"374 1268 QCURVE",
"352 1248 OFFCURVE",
"306 1206 OFFCURVE",
"308 1168 QCURVE SMOOTH",
"308 1158 OFFCURVE",
"280 1146 OFFCURVE",
"274 1140 QCURVE",
"276 1136 OFFCURVE",
"278 1132 OFFCURVE",
"292 1122 QCURVE",
"306 1124 OFFCURVE",
"326 1132 OFFCURVE",
"336 1134 QCURVE",
"402 1190 OFFCURVE",
"490 1234 QCURVE",
"504 1244 OFFCURVE",
"530 1260 OFFCURVE",
"546 1268 QCURVE SMOOTH",
"562 1276 OFFCURVE",
"588 1290 OFFCURVE",
"594 1278 QCURVE",
"590 1262 OFFCURVE",
"578 1238 OFFCURVE",
"570 1224 QCURVE SMOOTH",
"564 1212 OFFCURVE",
"548 1188 OFFCURVE",
"544 1178 QCURVE SMOOTH",
"540 1170 OFFCURVE",
"540 1156 OFFCURVE",
"536 1146 QCURVE SMOOTH",
"526 1116 OFFCURVE",
"500 1044 OFFCURVE",
"482 1022 QCURVE",
"466 988 OFFCURVE",
"428 934 OFFCURVE",
"414 902 QCURVE",
"398 880 OFFCURVE",
"374 832 OFFCURVE",
"358 812 QCURVE",
"360 806 OFFCURVE",
"352 794 OFFCURVE",
"350 788 QCURVE",
"334 770 OFFCURVE",
"318 722 OFFCURVE",
"304 700 QCURVE",
"288 696 OFFCURVE",
"258 694 OFFCURVE",
"242 692 QCURVE SMOOTH",
"232 690 OFFCURVE",
"220 684 OFFCURVE",
"212 680 QCURVE SMOOTH",
"202 676 OFFCURVE",
"188 668 OFFCURVE",
"184 664 QCURVE",
"184 652 OFFCURVE",
"174 638 QCURVE",
"200 618 OFFCURVE",
"204 574 QCURVE",
"214 568 OFFCURVE",
"214 538 OFFCURVE",
"224 534 QCURVE",
"204 496 OFFCURVE",
"168 422 OFFCURVE",
"154 380 QCURVE",
"140 354 OFFCURVE",
"112 304 OFFCURVE",
"98 260 QCURVE SMOOTH",
"94 250 OFFCURVE",
"76 234 OFFCURVE",
"70 224 QCURVE SMOOTH",
"64 212 OFFCURVE",
"56 190 OFFCURVE",
"52 180 QCURVE",
"36 160 OFFCURVE",
"18 116 OFFCURVE",
"12 88 QCURVE",
"4 82 OFFCURVE",
"0 58 OFFCURVE",
"-10 54 QCURVE",
"-18 38 OFFCURVE",
"-36 10 OFFCURVE",
"-40 -8 QCURVE",
"-32 -16 OFFCURVE",
"-22 -26 OFFCURVE",
"-8 -26 QCURVE",
"-4 -22 OFFCURVE",
"6 -8 OFFCURVE",
"12 -16 QCURVE",
"28 -26 OFFCURVE",
"58 -16 OFFCURVE",
"80 2 QCURVE",
"108 34 OFFCURVE",
"174 86 OFFCURVE",
"196 122 QCURVE SMOOTH",
"204 134 OFFCURVE",
"220 158 OFFCURVE",
"226 170 QCURVE SMOOTH",
"234 186 OFFCURVE",
"242 220 OFFCURVE",
"252 234 QCURVE",
"264 262 OFFCURVE",
"294 316 OFFCURVE",
"306 344 QCURVE",
"330 376 OFFCURVE",
"354 456 OFFCURVE",
"372 492 QCURVE",
"386 488 OFFCURVE",
"408 478 OFFCURVE",
"418 474 QCURVE",
"428 468 OFFCURVE",
"452 460 OFFCURVE",
"462 454 QCURVE SMOOTH",
"470 450 OFFCURVE",
"482 434 OFFCURVE",
"496 418 QCURVE SMOOTH",
"500 414 OFFCURVE",
"500 404 OFFCURVE",
"512 380 QCURVE",
"522 372 OFFCURVE",
"530 352 OFFCURVE",
"546 332 QCURVE",
"558 312 OFFCURVE",
"586 268 OFFCURVE",
"596 246 QCURVE",
"600 240 OFFCURVE",
"600 228 OFFCURVE",
"604 222 QCURVE",
"608 212 OFFCURVE",
"618 192 OFFCURVE",
"622 182 QCURVE SMOOTH",
"626 168 OFFCURVE",
"634 142 OFFCURVE",
"638 126 QCURVE",
"654 94 OFFCURVE",
"682 22 OFFCURVE",
"698 -36 QCURVE",
"708 -46 OFFCURVE",
"730 -44 OFFCURVE",
"738 -54 QCURVE",
"738 -70 OFFCURVE",
"756 -98 OFFCURVE",
"778 -94 QCURVE",
"782 -84 OFFCURVE",
"796 -62 OFFCURVE",
"808 -74 QCURVE",
"814 -60 OFFCURVE",
"836 -44 OFFCURVE",
"842 -28 QCURVE SMOOTH",
"846 -18 OFFCURVE",
"850 0 OFFCURVE",
"854 10 QCURVE SMOOTH",
"862 28 OFFCURVE",
"866 52 QCURVE",
"874 66 OFFCURVE",
"882 98 OFFCURVE",
"886 116 QCURVE",
"928 230 OFFCURVE",
"1026 444 OFFCURVE",
"1086 550 QCURVE",
"1098 576 OFFCURVE",
"1122 624 OFFCURVE",
"1134 650 QCURVE",
"1170 654 OFFCURVE",
"1226 662 OFFCURVE",
"1258 670 QCURVE",
"1266 666 OFFCURVE",
"1280 670 QCURVE",
"1296 662 OFFCURVE",
"1312 682 OFFCURVE",
"1308 710 QCURVE",
"1312 716 OFFCURVE",
"1302 718 OFFCURVE",
"1292 734 QCURVE",
"1268 746 OFFCURVE",
"1210 758 OFFCURVE",
"1182 764 QCURVE",
"1216 834 OFFCURVE",
"1290 970 OFFCURVE",
"1330 1036 QCURVE",
"1342 1068 OFFCURVE",
"1368 1126 OFFCURVE",
"1390 1146 QCURVE",
"1414 1186 OFFCURVE",
"1464 1254 OFFCURVE",
"1482 1298 QCURVE",
"1486 1314 OFFCURVE",
"1506 1336 OFFCURVE",
"1512 1348 QCURVE",
"1508 1364 OFFCURVE",
"1510 1390 OFFCURVE",
"1510 1406 QCURVE SMOOTH",
"1508 1430 OFFCURVE",
"1496 1462 OFFCURVE",
"1478 1472 QCURVE",
"1488 1478 OFFCURVE"
);
},
{
closed = 1;
nodes = (
"926 622 OFFCURVE",
"942 620 QCURVE",
"920 566 OFFCURVE",
"872 466 OFFCURVE",
"850 414 QCURVE",
"852 398 OFFCURVE",
"834 370 OFFCURVE",
"832 356 QCURVE",
"810 308 OFFCURVE",
"780 208 OFFCURVE",
"760 142 QCURVE",
"754 146 OFFCURVE",
"750 156 OFFCURVE",
"744 160 QCURVE",
"732 188 OFFCURVE",
"690 240 OFFCURVE",
"674 266 QCURVE",
"664 278 OFFCURVE",
"652 306 OFFCURVE",
"632 308 QCURVE",
"622 322 OFFCURVE",
"608 350 OFFCURVE",
"596 360 QCURVE",
"590 380 OFFCURVE",
"574 390 QCURVE",
"546 418 OFFCURVE",
"492 474 OFFCURVE",
"466 506 QCURVE",
"430 532 OFFCURVE",
"402 564 QCURVE",
"406 574 OFFCURVE",
"410 588 OFFCURVE",
"414 596 QCURVE",
"424 600 OFFCURVE",
"446 606 OFFCURVE",
"458 608 QCURVE SMOOTH",
"510 618 OFFCURVE",
"620 628 OFFCURVE",
"674 636 QCURVE",
"706 632 OFFCURVE",
"788 644 OFFCURVE",
"830 642 QCURVE",
"844 636 OFFCURVE",
"858 636 QCURVE",
"864 634 OFFCURVE",
"878 636 OFFCURVE",
"884 634 QCURVE SMOOTH",
"900 630 OFFCURVE"
);
}
);
width = 1276;
}
);
note = H;
unicode = 0048;
},
{
glyphname = I;
layers = (
{
layerId = "F6DB7C97-1387-4B6F-ABF5-DF6BEF73745E";
paths = (
{
closed = 1;
nodes = (
"980 1466 OFFCURVE",
"980 1460 OFFCURVE",
"958 1462 QCURVE SMOOTH",
"936 1462 OFFCURVE",
"894 1454 OFFCURVE",
"874 1450 QCURVE",
"862 1454 OFFCURVE",
"840 1442 OFFCURVE",
"828 1440 QCURVE SMOOTH",
"812 1436 OFFCURVE",
"786 1440 OFFCURVE",
"772 1440 QCURVE SMOOTH",
"758 1440 OFFCURVE",
"734 1446 OFFCURVE",
"720 1446 QCURVE SMOOTH",
"694 1448 OFFCURVE",
"658 1438 OFFCURVE",
"636 1432 QCURVE",
"618 1432 OFFCURVE",
"578 1426 OFFCURVE",
"556 1422 QCURVE SMOOTH",
"534 1418 OFFCURVE",
"492 1416 OFFCURVE",
"472 1410 QCURVE",
"464 1402 OFFCURVE",
"448 1402 OFFCURVE",
"438 1398 QCURVE",
"416 1394 OFFCURVE",
"388 1348 OFFCURVE",
"390 1302 QCURVE",
"386 1288 OFFCURVE",
"368 1286 OFFCURVE",
"370 1270 QCURVE",
"378 1238 OFFCURVE",
"404 1234 QCURVE SMOOTH",
"428 1230 OFFCURVE",
"460 1234 QCURVE SMOOTH",
"470 1236 OFFCURVE",
"486 1244 OFFCURVE",
"492 1246 QCURVE SMOOTH",
"500 1248 OFFCURVE",
"514 1250 OFFCURVE",
"522 1254 QCURVE",
"516 1238 OFFCURVE",
"506 1208 OFFCURVE",
"498 1196 QCURVE",
"494 1182 OFFCURVE",
"482 1160 OFFCURVE",
"478 1146 QCURVE",
"464 1124 OFFCURVE",
"448 1074 OFFCURVE",
"436 1052 QCURVE SMOOTH",
"426 1030 OFFCURVE",
"400 968 OFFCURVE",
"396 942 QCURVE",
"380 904 OFFCURVE",
"346 830 OFFCURVE",
"332 790 QCURVE",
"318 770 OFFCURVE",
"288 732 OFFCURVE",
"274 712 QCURVE SMOOTH",
"264 696 OFFCURVE",
"244 664 OFFCURVE",
"236 648 QCURVE SMOOTH",
"232 638 OFFCURVE",
"230 624 OFFCURVE",
"226 614 QCURVE SMOOTH",
"220 594 OFFCURVE",
"208 580 QCURVE",
"196 554 OFFCURVE",
"176 504 OFFCURVE",
"166 478 QCURVE SMOOTH",
"160 462 OFFCURVE",
"146 432 OFFCURVE",
"140 416 QCURVE SMOOTH",
"108 334 OFFCURVE",
"40 162 OFFCURVE",
"12 80 QCURVE",
"-20 76 OFFCURVE",
"-66 56 OFFCURVE",
"-96 52 QCURVE",
"-106 36 OFFCURVE",
"-140 10 OFFCURVE",
"-140 -14 QCURVE",
"-138 -24 OFFCURVE",
"-144 -42 OFFCURVE",
"-144 -52 QCURVE SMOOTH",
"-144 -62 OFFCURVE",
"-132 -80 OFFCURVE",
"-126 -86 QCURVE",
"-118 -86 OFFCURVE",
"-106 -92 OFFCURVE",
"-100 -92 QCURVE SMOOTH",
"-82 -92 OFFCURVE",
"-52 -80 OFFCURVE",
"-36 -76 QCURVE SMOOTH",
"-14 -70 OFFCURVE",
"32 -62 OFFCURVE",
"66 -62 QCURVE",
"72 -58 OFFCURVE",
"86 -60 OFFCURVE",
"94 -60 QCURVE",
"102 -58 OFFCURVE",
"122 -54 OFFCURVE",
"134 -52 QCURVE SMOOTH",
"152 -48 OFFCURVE",
"182 -34 OFFCURVE",
"204 -30 QCURVE SMOOTH",
"248 -24 OFFCURVE",
"266 -8 QCURVE SMOOTH",
"272 -2 OFFCURVE",
"278 10 OFFCURVE",
"290 24 QCURVE",
"294 32 OFFCURVE",
"298 52 OFFCURVE",
"314 72 QCURVE",
"332 102 OFFCURVE",
"310 132 QCURVE",
"276 132 OFFCURVE",
"236 110 OFFCURVE",
"204 110 QCURVE",
"240 214 OFFCURVE",
"320 418 OFFCURVE",
"358 516 QCURVE",
"364 526 OFFCURVE",
"374 562 OFFCURVE",
"378 576 QCURVE SMOOTH",
"388 616 OFFCURVE",
"418 686 OFFCURVE",
"438 734 QCURVE SMOOTH",
"444 746 OFFCURVE",
"456 766 OFFCURVE",
"462 776 QCURVE",
"466 786 OFFCURVE",
"476 808 OFFCURVE",
"488 824 QCURVE",
"492 834 OFFCURVE",
"500 852 OFFCURVE",
"504 860 QCURVE SMOOTH",
"506 864 OFFCURVE",
"510 868 OFFCURVE",
"520 888 QCURVE SMOOTH",
"528 904 OFFCURVE",
"542 932 OFFCURVE",
"552 942 QCURVE",
"574 988 OFFCURVE",
"628 1088 OFFCURVE",
"664 1146 QCURVE",
"676 1180 OFFCURVE",
"712 1228 OFFCURVE",
"722 1262 QCURVE",
"734 1266 OFFCURVE",
"752 1272 OFFCURVE",
"760 1274 QCURVE SMOOTH",
"768 1276 OFFCURVE",
"784 1276 OFFCURVE",
"808 1286 QCURVE",
"824 1288 OFFCURVE",
"852 1292 OFFCURVE",
"874 1300 QCURVE",
"878 1304 OFFCURVE",
"892 1302 OFFCURVE",
"898 1304 QCURVE SMOOTH",
"910 1308 OFFCURVE",
"914 1324 OFFCURVE",
"920 1334 QCURVE",
"924 1338 OFFCURVE",
"936 1350 OFFCURVE",
"940 1356 QCURVE",
"950 1366 OFFCURVE",
"962 1366 OFFCURVE",
"968 1376 QCURVE SMOOTH",
"972 1384 OFFCURVE",
"974 1392 OFFCURVE",
"978 1402 QCURVE SMOOTH",
"982 1412 OFFCURVE",
"984 1432 OFFCURVE",
"996 1458 QCURVE",
"986 1464 LINE"
);
}
);
width = 566;
}
);
note = I;
unicode = 0049;
},
{
glyphname = J;
layers = (
{
layerId = "F6DB7C97-1387-4B6F-ABF5-DF6BEF73745E";
paths = (
{
closed = 1;
nodes = (
"-62 498 OFFCURVE",
"-76 494 QCURVE SMOOTH",
"-96 490 OFFCURVE",
"-136 492 OFFCURVE",
"-148 484 QCURVE",
"-156 470 OFFCURVE",
"-176 450 OFFCURVE",
"-184 438 QCURVE",
"-188 428 OFFCURVE",
"-198 402 OFFCURVE",
"-202 388 QCURVE SMOOTH",
"-208 366 OFFCURVE",
"-212 322 OFFCURVE",
"-216 296 QCURVE",
"-218 256 OFFCURVE",
"-230 178 OFFCURVE",
"-220 142 QCURVE",
"-198 80 OFFCURVE",
"-136 -20 OFFCURVE",
"-90 -50 QCURVE",
"-60 -54 OFFCURVE",
"-8 -96 OFFCURVE",
"22 -102 QCURVE SMOOTH",
"30 -104 OFFCURVE",
"48 -104 OFFCURVE",
"56 -104 QCURVE",
"72 -108 OFFCURVE",
"104 -116 OFFCURVE",
"120 -110 QCURVE",
"134 -110 OFFCURVE",
"150 -114 OFFCURVE",
"164 -114 QCURVE SMOOTH",
"174 -114 OFFCURVE",
"188 -108 OFFCURVE",
"206 -104 QCURVE SMOOTH",
"230 -98 OFFCURVE",
"256 -84 QCURVE",
"268 -80 OFFCURVE",
"288 -66 OFFCURVE",
"300 -60 QCURVE",
"310 -50 OFFCURVE",
"320 -30 OFFCURVE",
"330 -20 QCURVE SMOOTH",
"340 -10 OFFCURVE",
"360 14 OFFCURVE",
"364 26 QCURVE SMOOTH",
"368 34 OFFCURVE",
"370 52 OFFCURVE",
"374 60 QCURVE SMOOTH",
"378 68 OFFCURVE",
"390 82 OFFCURVE",
"396 90 QCURVE SMOOTH",
"406 106 OFFCURVE",
"412 138 OFFCURVE",
"420 156 QCURVE SMOOTH",
"424 168 OFFCURVE",
"436 188 OFFCURVE",
"436 202 QCURVE",
"446 226 OFFCURVE",
"464 268 OFFCURVE",
"476 288 QCURVE",
"498 334 OFFCURVE",
"534 426 OFFCURVE",
"556 468 QCURVE SMOOTH",
"562 482 OFFCURVE",
"576 506 OFFCURVE",
"588 528 QCURVE SMOOTH",
"592 536 OFFCURVE",
"596 570 OFFCURVE",
"594 572 QCURVE",
"598 576 OFFCURVE",
"602 590 OFFCURVE",
"606 594 QCURVE",
"616 634 OFFCURVE",
"650 700 OFFCURVE",
"664 738 QCURVE",
"670 742 OFFCURVE",
"672 754 OFFCURVE",
"676 762 QCURVE SMOOTH",
"680 768 OFFCURVE",
"686 782 OFFCURVE",
"690 788 QCURVE",
"700 814 OFFCURVE",
"714 862 OFFCURVE",
"724 886 QCURVE SMOOTH",
"740 924 OFFCURVE",
"782 986 OFFCURVE",
"798 1020 QCURVE SMOOTH",
"812 1046 OFFCURVE",
"840 1094 OFFCURVE",
"856 1118 QCURVE SMOOTH",
"872 1140 OFFCURVE",
"898 1192 OFFCURVE",
"914 1214 QCURVE SMOOTH",
"930 1238 OFFCURVE",
"964 1282 OFFCURVE",
"980 1304 QCURVE",
"990 1310 OFFCURVE",
"1008 1334 OFFCURVE",
"1014 1346 QCURVE SMOOTH",
"1020 1356 OFFCURVE",
"1034 1386 OFFCURVE",
"1042 1416 OFFCURVE",
"1036 1446 OFFCURVE",
"1024 1456 QCURVE",
"1016 1458 OFFCURVE",
"1002 1462 OFFCURVE",
"996 1460 QCURVE SMOOTH",
"988 1456 OFFCURVE",
"968 1454 OFFCURVE",
"958 1450 QCURVE SMOOTH",
"948 1446 OFFCURVE",
"934 1440 OFFCURVE",
"924 1438 QCURVE SMOOTH",
"910 1434 OFFCURVE",
"910 1438 OFFCURVE",
"898 1436 QCURVE",
"888 1436 OFFCURVE",
"876 1432 OFFCURVE",
"868 1430 QCURVE",
"836 1426 OFFCURVE",
"794 1404 OFFCURVE",
"762 1374 OFFCURVE",
"732 1340 OFFCURVE",
"712 1326 QCURVE SMOOTH",
"658 1284 LINE SMOOTH",
"646 1274 OFFCURVE",
"622 1248 OFFCURVE",
"610 1236 QCURVE SMOOTH",
"584 1214 OFFCURVE",
"528 1174 OFFCURVE",
"502 1150 QCURVE",
"500 1144 OFFCURVE",
"490 1136 OFFCURVE",
"486 1130 QCURVE SMOOTH",
"482 1122 OFFCURVE",
"472 1102 OFFCURVE",
"482 1084 QCURVE SMOOTH",
"488 1074 OFFCURVE",
"494 1058 OFFCURVE",
"506 1054 QCURVE",
"518 1056 OFFCURVE",
"538 1062 OFFCURVE",
"550 1064 QCURVE",
"556 1072 OFFCURVE",
"568 1084 OFFCURVE",
"574 1108 QCURVE",
"586 1122 OFFCURVE",
"622 1148 OFFCURVE",
"638 1158 QCURVE",
"658 1164 OFFCURVE",
"686 1188 OFFCURVE",
"702 1192 QCURVE",
"698 1182 OFFCURVE",
"692 1166 OFFCURVE",
"690 1156 QCURVE",
"674 1130 OFFCURVE",
"654 1076 OFFCURVE",
"638 1044 QCURVE",
"622 1022 OFFCURVE",
"606 970 OFFCURVE",
"596 942 QCURVE SMOOTH",
"584 908 OFFCURVE",
"546 846 OFFCURVE",
"532 812 QCURVE",
"514 784 OFFCURVE",
"484 728 OFFCURVE",
"466 698 QCURVE SMOOTH",
"450 670 OFFCURVE",
"436 638 QCURVE SMOOTH",
"424 614 OFFCURVE",
"400 566 OFFCURVE",
"394 534 QCURVE",
"380 516 OFFCURVE",
"364 474 OFFCURVE",
"356 452 QCURVE SMOOTH",
"346 430 OFFCURVE",
"330 388 OFFCURVE",
"322 364 QCURVE SMOOTH",
"308 324 OFFCURVE",
"282 240 OFFCURVE",
"260 202 QCURVE",
"258 188 OFFCURVE",
"246 140 OFFCURVE",
"240 126 QCURVE SMOOTH",
"234 112 OFFCURVE",
"224 84 OFFCURVE",
"218 74 QCURVE SMOOTH",
"212 66 OFFCURVE",
"194 58 OFFCURVE",
"186 54 QCURVE SMOOTH",
"158 38 OFFCURVE",
"122 32 QCURVE",
"98 38 OFFCURVE",
"40 34 OFFCURVE",
"20 46 QCURVE",
"6 50 OFFCURVE",
"-2 66 QCURVE SMOOTH",
"-4 70 OFFCURVE",
"-2 76 OFFCURVE",
"-18 86 QCURVE",
"-22 100 OFFCURVE",
"-46 134 OFFCURVE",
"-50 144 QCURVE SMOOTH",
"-58 160 OFFCURVE",
"-54 200 OFFCURVE",
"-54 216 QCURVE SMOOTH",
"-54 230 OFFCURVE",
"-52 256 OFFCURVE",
"-52 270 QCURVE",
"-48 294 OFFCURVE",
"-36 340 OFFCURVE",
"-32 360 QCURVE",
"-28 370 OFFCURVE",
"-24 392 OFFCURVE",
"-24 418 QCURVE SMOOTH",
"-22 440 OFFCURVE",
"-18 490 OFFCURVE",
"-22 506 QCURVE",
"-34 512 OFFCURVE"
);
}
);
width = 734;
}
);
note = J;
unicode = 004A;
},
{
glyphname = K;
layers = (
{
layerId = "F6DB7C97-1387-4B6F-ABF5-DF6BEF73745E";
paths = (
{
closed = 1;
nodes = (
"520 786 OFFCURVE",
"530 804 QCURVE",
"538 824 OFFCURVE",
"560 862 OFFCURVE",
"564 880 QCURVE SMOOTH",
"570 902 OFFCURVE",
"574 936 OFFCURVE",
"580 954 QCURVE SMOOTH",
"586 968 OFFCURVE",
"598 992 OFFCURVE",
"604 1006 QCURVE",
"614 1016 OFFCURVE",
"626 1044 OFFCURVE",
"642 1064 QCURVE",
"652 1070 OFFCURVE",
"652 1090 OFFCURVE",
"656 1100 QCURVE SMOOTH",
"662 1116 OFFCURVE",
"674 1148 OFFCURVE",
"682 1164 QCURVE SMOOTH",
"704 1216 OFFCURVE",
"752 1320 OFFCURVE",
"776 1370 QCURVE",
"780 1390 OFFCURVE",
"792 1430 OFFCURVE",
"792 1450 QCURVE SMOOTH",
"792 1472 OFFCURVE",
"762 1508 OFFCURVE",
"750 1516 QCURVE",
"746 1520 OFFCURVE",
"722 1520 OFFCURVE",
"706 1520 QCURVE",
"684 1530 OFFCURVE",
"662 1524 OFFCURVE",
"648 1508 QCURVE SMOOTH",
"640 1500 OFFCURVE",
"634 1478 OFFCURVE",
"628 1470 QCURVE SMOOTH",
"620 1460 OFFCURVE",
"592 1448 OFFCURVE",
"572 1426 QCURVE SMOOTH",
"564 1418 OFFCURVE",
"538 1380 OFFCURVE",
"528 1374 QCURVE SMOOTH",
"516 1368 OFFCURVE",
"480 1360 OFFCURVE",
"464 1352 QCURVE SMOOTH",
"450 1344 OFFCURVE",
"416 1324 OFFCURVE",
"404 1314 QCURVE",
"366 1294 OFFCURVE",
"334 1268 QCURVE SMOOTH",
"316 1254 OFFCURVE",
"300 1234 QCURVE",
"290 1226 OFFCURVE",
"272 1208 OFFCURVE",
"268 1200 QCURVE SMOOTH",
"264 1190 OFFCURVE",
"264 1162 OFFCURVE",
"266 1148 QCURVE SMOOTH",
"268 1134 OFFCURVE",
"282 1136 OFFCURVE",
"288 1124 QCURVE SMOOTH",
"290 1120 OFFCURVE",
"288 1114 OFFCURVE",
"302 1096 QCURVE",
"328 1098 OFFCURVE",
"362 1116 QCURVE",
"374 1124 OFFCURVE",
"400 1142 OFFCURVE",
"410 1150 QCURVE",
"442 1182 OFFCURVE",
"468 1200 QCURVE SMOOTH",
"478 1208 OFFCURVE",
"494 1220 OFFCURVE",
"504 1224 QCURVE",
"508 1228 OFFCURVE",
"520 1242 OFFCURVE",
"526 1242 QCURVE",
"510 1194 OFFCURVE",
"470 1102 OFFCURVE",
"452 1052 QCURVE",
"424 988 OFFCURVE",
"364 860 OFFCURVE",
"336 796 QCURVE SMOOTH",
"326 774 OFFCURVE",
"312 730 OFFCURVE",
"300 710 QCURVE SMOOTH",
"292 696 OFFCURVE",
"280 672 OFFCURVE",
"274 660 QCURVE SMOOTH",
"268 646 OFFCURVE",
"260 618 OFFCURVE",
"256 604 QCURVE",
"246 582 OFFCURVE",
"222 536 OFFCURVE",
"212 514 QCURVE",
"190 486 OFFCURVE",
"164 410 OFFCURVE",
"148 376 QCURVE SMOOTH",
"136 348 OFFCURVE",
"118 284 OFFCURVE",
"100 260 QCURVE",
"90 230 OFFCURVE",
"58 176 OFFCURVE",
"46 150 QCURVE",
"38 140 OFFCURVE",
"28 124 OFFCURVE",
"20 114 QCURVE SMOOTH",
"-2 86 OFFCURVE",
"-24 14 OFFCURVE",
"-44 -20 QCURVE",
"-44 -34 OFFCURVE",
"-52 -54 QCURVE",
"-50 -64 OFFCURVE",
"-48 -70 OFFCURVE",
"-44 -80 QCURVE",
"-22 -90 OFFCURVE",
"34 -94 OFFCURVE",
"56 -84 QCURVE",
"62 -80 OFFCURVE",
"74 -68 OFFCURVE",
"80 -64 QCURVE SMOOTH",
"88 -58 OFFCURVE",
"104 -50 OFFCURVE",
"122 -26 QCURVE",
"132 -22 OFFCURVE",
"146 -18 OFFCURVE",
"154 -14 QCURVE SMOOTH",
"160 -10 OFFCURVE",
"170 2 OFFCURVE",
"184 14 QCURVE",
"188 38 OFFCURVE",
"188 84 OFFCURVE",
"192 114 QCURVE",
"200 136 OFFCURVE",
"214 174 OFFCURVE",
"224 190 QCURVE SMOOTH",
"228 196 OFFCURVE",
"236 206 OFFCURVE",
"240 212 QCURVE",
"244 222 OFFCURVE",
"246 244 OFFCURVE",
"250 254 QCURVE SMOOTH",
"254 264 OFFCURVE",
"260 282 OFFCURVE",
"264 292 QCURVE SMOOTH",
"272 312 OFFCURVE",
"292 346 OFFCURVE",
"302 362 QCURVE",
"306 372 OFFCURVE",
"310 390 OFFCURVE",
"324 412 QCURVE",
"334 434 OFFCURVE",
"346 482 OFFCURVE",
"374 520 QCURVE",
"384 504 OFFCURVE",
"396 468 OFFCURVE",
"402 450 QCURVE SMOOTH",
"408 434 OFFCURVE",
"424 402 OFFCURVE",
"428 386 QCURVE SMOOTH",
"432 370 OFFCURVE",
"438 340 OFFCURVE",
"444 328 QCURVE SMOOTH",
"446 322 OFFCURVE",
"450 312 OFFCURVE",
"454 306 QCURVE",
"456 296 OFFCURVE",
"460 284 OFFCURVE",
"462 278 QCURVE SMOOTH",
"474 244 OFFCURVE",
"508 150 OFFCURVE",
"526 114 QCURVE",
"532 108 OFFCURVE",
"542 94 OFFCURVE",
"550 90 QCURVE",
"554 80 OFFCURVE",
"568 66 OFFCURVE",
"574 60 QCURVE",
"584 38 OFFCURVE",
"606 2 OFFCURVE",
"622 -10 QCURVE",
"640 -46 OFFCURVE",
"704 -80 OFFCURVE",
"734 -102 QCURVE",
"744 -106 OFFCURVE",
"764 -110 OFFCURVE",
"774 -114 QCURVE",
"800 -114 OFFCURVE",
"824 -88 QCURVE",
"858 -64 OFFCURVE",
"916 0 OFFCURVE",
"946 28 QCURVE SMOOTH",
"962 44 OFFCURVE",
"996 68 OFFCURVE",
"1012 84 QCURVE SMOOTH",
"1028 98 OFFCURVE",
"1058 126 OFFCURVE",
"1078 140 QCURVE",
"1092 156 OFFCURVE",
"1128 184 OFFCURVE",
"1144 200 QCURVE",
"1152 212 OFFCURVE",
"1166 232 OFFCURVE",
"1170 246 QCURVE",
"1174 254 OFFCURVE",
"1170 272 OFFCURVE",
"1174 280 QCURVE",
"1164 286 OFFCURVE",
"1138 284 OFFCURVE",
"1124 280 QCURVE SMOOTH",
"1112 278 OFFCURVE",
"1088 266 OFFCURVE",
"1058 258 QCURVE",
"1046 248 OFFCURVE",
"1024 226 OFFCURVE",
"1010 216 QCURVE",
"982 186 OFFCURVE",
"930 130 OFFCURVE",
"890 108 QCURVE",
"886 102 OFFCURVE",
"870 92 OFFCURVE",
"862 84 QCURVE",
"854 80 OFFCURVE",
"840 66 OFFCURVE",
"832 62 QCURVE SMOOTH",
"818 56 OFFCURVE",
"790 58 OFFCURVE",
"776 60 QCURVE",
"758 76 OFFCURVE",
"736 116 OFFCURVE",
"718 134 QCURVE SMOOTH",
"710 142 OFFCURVE",
"696 162 OFFCURVE",
"686 168 QCURVE",
"678 184 OFFCURVE",
"654 218 OFFCURVE",
"648 240 QCURVE",
"632 272 OFFCURVE",
"624 304 QCURVE SMOOTH",
"620 320 OFFCURVE",
"614 348 OFFCURVE",
"610 364 QCURVE",
"606 372 OFFCURVE",
"602 388 OFFCURVE",
"598 396 QCURVE SMOOTH",
"590 416 OFFCURVE",
"582 450 OFFCURVE",
"576 468 QCURVE SMOOTH",
"572 482 OFFCURVE",
"566 508 OFFCURVE",
"562 518 QCURVE",
"558 534 OFFCURVE",
"540 574 OFFCURVE",
"546 602 QCURVE",
"586 612 OFFCURVE",
"620 662 OFFCURVE",
"650 684 QCURVE SMOOTH",
"666 696 OFFCURVE",
"704 720 OFFCURVE",
"722 734 QCURVE SMOOTH",
"744 748 OFFCURVE",
"790 774 OFFCURVE",
"812 788 QCURVE SMOOTH",
"818 792 OFFCURVE",
"830 798 OFFCURVE",
"834 802 QCURVE SMOOTH",
"844 812 OFFCURVE",
"860 822 OFFCURVE",
"866 826 QCURVE",
"874 836 OFFCURVE",
"886 856 OFFCURVE",
"892 866 QCURVE",
"914 894 OFFCURVE",
"966 946 OFFCURVE",
"990 972 QCURVE SMOOTH",
"994 976 OFFCURVE",
"998 988 OFFCURVE",
"1002 992 QCURVE SMOOTH",
"1010 1002 OFFCURVE",
"1028 1018 OFFCURVE",
"1034 1028 QCURVE SMOOTH",
"1040 1036 OFFCURVE",
"1048 1050 OFFCURVE",
"1068 1074 QCURVE SMOOTH",
"1090 1104 OFFCURVE",
"1138 1162 OFFCURVE",
"1166 1190 QCURVE",
"1174 1200 OFFCURVE",
"1192 1214 OFFCURVE",
"1196 1222 QCURVE SMOOTH",
"1200 1228 OFFCURVE",
"1204 1242 OFFCURVE",
"1208 1248 QCURVE SMOOTH",
"1212 1254 OFFCURVE",
"1220 1270 QCURVE SMOOTH",
"1224 1278 OFFCURVE",
"1230 1294 OFFCURVE",
"1232 1302 QCURVE SMOOTH",
"1240 1326 OFFCURVE",
"1238 1378 OFFCURVE",
"1242 1404 QCURVE",
"1242 1418 OFFCURVE",
"1246 1438 OFFCURVE",
"1242 1448 QCURVE SMOOTH",
"1236 1466 OFFCURVE",
"1218 1480 OFFCURVE",
"1200 1474 QCURVE",
"1190 1484 OFFCURVE",
"1162 1478 OFFCURVE",
"1154 1470 QCURVE SMOOTH",
"1146 1460 OFFCURVE",
"1140 1434 OFFCURVE",
"1134 1422 QCURVE SMOOTH",
"1130 1412 OFFCURVE",
"1120 1396 OFFCURVE",
"1112 1366 QCURVE",
"1102 1340 OFFCURVE",
"1072 1292 OFFCURVE",
"1056 1268 QCURVE",
"1050 1256 OFFCURVE",
"1034 1232 OFFCURVE",
"1026 1222 QCURVE SMOOTH",
"1016 1210 OFFCURVE",
"1004 1188 OFFCURVE",
"994 1178 QCURVE SMOOTH",
"982 1166 OFFCURVE",
"958 1144 OFFCURVE",
"946 1134 QCURVE SMOOTH",
"936 1124 OFFCURVE",
"914 1102 OFFCURVE",
"904 1090 QCURVE",
"860 1054 OFFCURVE",
"786 972 OFFCURVE",
"746 936 QCURVE SMOOTH",
"736 928 OFFCURVE",
"714 916 OFFCURVE",
"700 904 QCURVE",
"686 884 OFFCURVE",
"652 858 OFFCURVE",
"630 846 QCURVE",
"616 830 OFFCURVE",
"582 804 OFFCURVE",
"570 788 QCURVE",
"548 776 OFFCURVE",
"518 744 OFFCURVE",
"496 732 QCURVE",
"506 750 OFFCURVE"
);
}
);
width = 1058;
}
);
note = K;
unicode = 004B;
},
{
glyphname = L;
layers = (
{
layerId = "F6DB7C97-1387-4B6F-ABF5-DF6BEF73745E";
paths = (
{
closed = 1;
nodes = (
"212 208 OFFCURVE",
"222 238 QCURVE",
"242 274 OFFCURVE",
"268 358 OFFCURVE",
"290 392 QCURVE",
"294 412 OFFCURVE",
"304 416 QCURVE",
"326 470 OFFCURVE",
"380 564 OFFCURVE",
"398 622 QCURVE",
"420 658 OFFCURVE",
"438 750 OFFCURVE",
"458 786 QCURVE",
"456 796 OFFCURVE",
"468 806 OFFCURVE",
"466 816 QCURVE",
"488 858 OFFCURVE",
"524 948 OFFCURVE",
"548 1000 QCURVE",
"558 1008 OFFCURVE",
"564 1030 OFFCURVE",
"582 1052 QCURVE",
"588 1072 OFFCURVE",
"608 1104 OFFCURVE",
"616 1120 QCURVE SMOOTH",
"626 1136 OFFCURVE",
"642 1170 OFFCURVE",
"654 1184 QCURVE",
"666 1212 OFFCURVE",
"686 1232 QCURVE",
"692 1248 OFFCURVE",
"702 1284 OFFCURVE",
"698 1310 QCURVE",
"708 1322 OFFCURVE",
"714 1344 QCURVE",
"720 1358 OFFCURVE",
"722 1400 OFFCURVE",
"718 1416 QCURVE SMOOTH",
"710 1440 OFFCURVE",
"680 1486 OFFCURVE",
"662 1502 QCURVE",
"656 1506 OFFCURVE",
"642 1524 OFFCURVE",
"634 1522 QCURVE SMOOTH",
"616 1518 OFFCURVE",
"586 1496 OFFCURVE",
"570 1488 QCURVE",
"562 1474 OFFCURVE",
"570 1440 OFFCURVE",
"570 1424 QCURVE",
"550 1390 OFFCURVE",
"520 1322 OFFCURVE",
"498 1268 QCURVE SMOOTH",
"494 1260 OFFCURVE",
"486 1244 OFFCURVE",
"482 1234 QCURVE",
"480 1232 OFFCURVE",
"482 1228 OFFCURVE",
"468 1208 QCURVE SMOOTH",
"464 1202 OFFCURVE",
"460 1186 OFFCURVE",
"456 1176 QCURVE SMOOTH",
"452 1166 OFFCURVE",
"444 1142 OFFCURVE",
"440 1132 QCURVE SMOOTH",
"438 1124 OFFCURVE",
"430 1114 OFFCURVE",
"426 1110 QCURVE",
"420 1098 OFFCURVE",
"410 1068 OFFCURVE",
"392 1034 QCURVE",
"390 1028 OFFCURVE",
"380 1014 OFFCURVE",
"378 1004 QCURVE",
"366 988 OFFCURVE",
"368 974 QCURVE",
"358 964 OFFCURVE",
"356 936 OFFCURVE",
"346 926 QCURVE",
"350 920 OFFCURVE",
"340 906 OFFCURVE",
"340 898 QCURVE",
"332 882 OFFCURVE",
"322 842 OFFCURVE",
"312 828 QCURVE",
"308 806 OFFCURVE",
"292 782 OFFCURVE",
"288 764 QCURVE",
"278 748 OFFCURVE",
"264 700 OFFCURVE",
"256 682 QCURVE SMOOTH",
"250 670 OFFCURVE",
"240 650 OFFCURVE",
"232 630 QCURVE",
"216 608 OFFCURVE",
"198 556 OFFCURVE",
"182 534 QCURVE",
"164 514 OFFCURVE",
"142 462 OFFCURVE",
"122 444 QCURVE",
"120 434 OFFCURVE",
"110 426 OFFCURVE",
"108 416 QCURVE",
"102 408 OFFCURVE",
"88 390 OFFCURVE",
"82 380 QCURVE SMOOTH",
"70 360 OFFCURVE",
"56 316 OFFCURVE",
"44 296 QCURVE SMOOTH",
"28 272 OFFCURVE",
"22 254 QCURVE",
"2 232 OFFCURVE",
"-14 166 OFFCURVE",
"-26 136 QCURVE SMOOTH",
"-36 110 OFFCURVE",
"-58 60 OFFCURVE",
"-48 26 QCURVE",
"-42 22 OFFCURVE",
"-30 14 OFFCURVE",
"-26 10 QCURVE",
"-16 -16 OFFCURVE",
"8 -40 QCURVE",
"16 -52 OFFCURVE",
"24 -66 OFFCURVE",
"34 -72 QCURVE",
"50 -78 OFFCURVE",
"76 -88 OFFCURVE",
"92 -88 QCURVE",
"102 -84 OFFCURVE",
"120 -80 OFFCURVE",
"140 -70 QCURVE SMOOTH",
"144 -68 OFFCURVE",
"150 -68 OFFCURVE",
"172 -56 QCURVE",
"198 -46 OFFCURVE",
"246 -28 OFFCURVE",
"268 -18 QCURVE",
"290 -22 OFFCURVE",
"326 -2 OFFCURVE",
"348 2 QCURVE SMOOTH",
"370 6 OFFCURVE",
"408 8 OFFCURVE",
"424 12 QCURVE",
"450 8 OFFCURVE",
"496 28 OFFCURVE",
"524 26 QCURVE",
"544 30 OFFCURVE",
"550 22 QCURVE",
"570 30 OFFCURVE",
"588 26 QCURVE",
"598 32 OFFCURVE",
"620 40 OFFCURVE",
"630 48 QCURVE",
"640 64 OFFCURVE",
"648 84 OFFCURVE",
"654 102 QCURVE SMOOTH",
"660 118 OFFCURVE",
"668 164 OFFCURVE",
"664 180 QCURVE",
"630 198 OFFCURVE",
"552 190 OFFCURVE",
"504 182 QCURVE",
"460 170 OFFCURVE",
"358 170 OFFCURVE",
"308 164 QCURVE",
"270 154 OFFCURVE",
"208 122 OFFCURVE",
"174 112 QCURVE",
"180 144 OFFCURVE"
);
}
);
width = 794;
}
);
note = L;
unicode = 004C;
},
{
glyphname = M;
layers = (
{
layerId = "F6DB7C97-1387-4B6F-ABF5-DF6BEF73745E";
paths = (
{
closed = 1;
nodes = (
"48 -82 OFFCURVE",
"52 -88 QCURVE",
"56 -80 OFFCURVE",
"68 -80 OFFCURVE",
"70 -74 QCURVE",
"74 -78 OFFCURVE",
"84 -74 OFFCURVE",
"100 -64 QCURVE SMOOTH",
"112 -58 OFFCURVE",
"120 -50 OFFCURVE",
"138 -50 QCURVE SMOOTH",
"152 -50 OFFCURVE",
"162 -38 OFFCURVE",
"170 -38 QCURVE SMOOTH",
"180 -38 OFFCURVE",
"194 -46 OFFCURVE",
"216 -24 QCURVE",
"220 -18 OFFCURVE",
"224 -4 OFFCURVE",
"228 0 QCURVE",
"252 64 OFFCURVE",
"314 174 OFFCURVE",
"336 238 QCURVE",
"342 242 OFFCURVE",
"344 254 OFFCURVE",
"348 260 QCURVE SMOOTH",
"354 272 OFFCURVE",
"368 296 OFFCURVE",
"374 310 QCURVE",
"378 314 OFFCURVE",
"382 322 OFFCURVE",
"392 342 QCURVE SMOOTH",
"412 382 OFFCURVE",
"452 456 OFFCURVE",
"482 502 QCURVE",
"488 518 OFFCURVE",
"506 546 OFFCURVE",
"510 568 QCURVE",
"516 576 OFFCURVE",
"524 596 OFFCURVE",
"532 600 QCURVE",
"548 628 OFFCURVE",
"578 680 OFFCURVE",
"592 706 QCURVE",
"602 714 OFFCURVE",
"614 734 OFFCURVE",
"632 752 QCURVE",
"640 762 OFFCURVE",
"652 780 OFFCURVE",
"658 788 QCURVE",
"668 798 OFFCURVE",
"686 818 OFFCURVE",
"694 828 QCURVE SMOOTH",
"704 844 OFFCURVE",
"732 876 OFFCURVE",
"742 888 QCURVE SMOOTH",
"750 898 OFFCURVE",
"774 914 OFFCURVE",
"778 928 QCURVE",
"794 950 OFFCURVE",
"846 1014 OFFCURVE",
"868 1036 QCURVE",
"890 1068 OFFCURVE",
"940 1116 OFFCURVE",
"962 1146 QCURVE",
"974 1158 OFFCURVE",
"996 1184 OFFCURVE",
"1016 1184 QCURVE",
"1024 1178 OFFCURVE",
"1032 1158 OFFCURVE",
"1036 1148 QCURVE",
"1050 1146 OFFCURVE",
"1046 1118 OFFCURVE",
"1046 1102 QCURVE",
"1042 1060 OFFCURVE",
"1012 972 OFFCURVE",
"1002 938 QCURVE SMOOTH",
"994 914 OFFCURVE",
"986 862 OFFCURVE",
"976 838 QCURVE SMOOTH",
"966 814 OFFCURVE",
"948 768 OFFCURVE",
"956 754 QCURVE",
"956 750 OFFCURVE",
"954 740 OFFCURVE",
"942 718 QCURVE SMOOTH",
"936 706 OFFCURVE",
"924 678 OFFCURVE",
"920 668 QCURVE",
"914 658 OFFCURVE",
"900 624 OFFCURVE",
"886 588 OFFCURVE",
"872 556 OFFCURVE",
"866 540 QCURVE SMOOTH",
"858 520 OFFCURVE",
"844 486 OFFCURVE",
"840 468 QCURVE",
"836 460 OFFCURVE",
"836 452 OFFCURVE",
"834 444 QCURVE SMOOTH",
"830 434 OFFCURVE",
"824 418 OFFCURVE",
"820 408 QCURVE SMOOTH",
"816 398 OFFCURVE",
"808 380 OFFCURVE",
"804 370 QCURVE SMOOTH",
"800 356 OFFCURVE",
"794 332 OFFCURVE",
"790 318 QCURVE",
"784 314 OFFCURVE",
"776 292 QCURVE SMOOTH",
"772 280 OFFCURVE",
"760 250 OFFCURVE",
"766 226 QCURVE SMOOTH",
"768 218 OFFCURVE",
"762 198 OFFCURVE",
"764 190 QCURVE",
"764 174 OFFCURVE",
"778 150 OFFCURVE",
"782 134 QCURVE",
"792 122 OFFCURVE",
"812 86 OFFCURVE",
"828 80 QCURVE SMOOTH",
"840 74 OFFCURVE",
"866 86 OFFCURVE",
"872 100 QCURVE SMOOTH",
"882 126 OFFCURVE",
"908 164 OFFCURVE",
"918 188 QCURVE",
"928 194 OFFCURVE",
"934 226 OFFCURVE",
"942 244 QCURVE",
"958 272 OFFCURVE",
"994 324 OFFCURVE",
"1010 352 QCURVE SMOOTH",
"1020 368 OFFCURVE",
"1032 408 OFFCURVE",
"1042 426 QCURVE",
"1046 436 OFFCURVE",
"1074 484 OFFCURVE",
"1078 494 QCURVE",
"1092 518 OFFCURVE",
"1122 560 OFFCURVE",
"1138 582 QCURVE",
"1160 602 OFFCURVE",
"1192 650 OFFCURVE",
"1212 670 QCURVE",
"1228 694 OFFCURVE",
"1266 730 OFFCURVE",
"1286 762 QCURVE SMOOTH",
"1306 796 OFFCURVE",
"1352 856 OFFCURVE",
"1374 890 QCURVE",
"1402 918 OFFCURVE",
"1434 972 QCURVE",
"1434 976 OFFCURVE",
"1444 1004 OFFCURVE",
"1444 1008 QCURVE",
"1454 1020 OFFCURVE",
"1476 1042 OFFCURVE",
"1492 1068 QCURVE SMOOTH",
"1498 1076 OFFCURVE",
"1514 1086 OFFCURVE",
"1524 1104 QCURVE",
"1528 1108 OFFCURVE",
"1532 1110 OFFCURVE",
"1544 1122 QCURVE SMOOTH",
"1554 1132 OFFCURVE",
"1580 1150 OFFCURVE",
"1592 1160 QCURVE SMOOTH",
"1602 1168 OFFCURVE",
"1622 1180 OFFCURVE",
"1632 1188 QCURVE",
"1636 1158 OFFCURVE",
"1628 1102 OFFCURVE",
"1626 1078 QCURVE SMOOTH",
"1624 1060 OFFCURVE",
"1628 1032 OFFCURVE",
"1626 1016 QCURVE SMOOTH",
"1622 978 OFFCURVE",
"1594 894 OFFCURVE",
"1584 860 QCURVE",
"1570 842 OFFCURVE",
"1558 794 OFFCURVE",
"1546 776 QCURVE",
"1536 750 OFFCURVE",
"1514 704 OFFCURVE",
"1508 676 QCURVE",
"1498 658 OFFCURVE",
"1476 616 OFFCURVE",
"1468 596 QCURVE SMOOTH",
"1466 590 OFFCURVE",
"1464 576 OFFCURVE",
"1458 566 QCURVE",
"1432 490 OFFCURVE",
"1352 326 OFFCURVE",
"1318 250 QCURVE SMOOTH",
"1310 232 OFFCURVE",
"1294 192 OFFCURVE",
"1292 170 QCURVE SMOOTH",
"1288 136 OFFCURVE",
"1302 88 OFFCURVE",
"1310 62 QCURVE SMOOTH",
"1324 14 OFFCURVE",
"1350 -12 QCURVE SMOOTH",
"1370 -30 OFFCURVE",
"1400 -72 OFFCURVE",
"1432 -76 QCURVE",
"1434 -78 OFFCURVE",
"1438 -80 OFFCURVE",
"1452 -88 QCURVE",
"1482 -76 OFFCURVE",
"1502 -62 QCURVE SMOOTH",
"1556 -20 OFFCURVE",
"1606 10 QCURVE",
"1634 20 OFFCURVE",
"1682 60 OFFCURVE",
"1716 84 QCURVE SMOOTH",
"1736 96 OFFCURVE",
"1756 142 OFFCURVE",
"1766 164 QCURVE",
"1798 194 OFFCURVE",
"1858 264 OFFCURVE",
"1890 296 QCURVE",
"1896 310 OFFCURVE",
"1912 332 OFFCURVE",
"1910 352 QCURVE",
"1904 362 OFFCURVE",
"1890 382 OFFCURVE",
"1868 394 QCURVE",
"1810 354 OFFCURVE",
"1776 300 QCURVE",
"1750 280 OFFCURVE",
"1708 232 OFFCURVE",
"1684 212 QCURVE SMOOTH",
"1680 208 OFFCURVE",
"1668 204 OFFCURVE",
"1662 198 QCURVE",
"1646 194 OFFCURVE",
"1636 186 QCURVE",
"1624 180 OFFCURVE",
"1602 168 OFFCURVE",
"1586 162 QCURVE SMOOTH",
"1574 158 OFFCURVE",
"1542 150 OFFCURVE",
"1530 146 QCURVE SMOOTH",
"1520 142 OFFCURVE",
"1482 138 OFFCURVE",
"1472 144 QCURVE SMOOTH",
"1466 148 OFFCURVE",
"1450 174 OFFCURVE",
"1456 194 QCURVE SMOOTH",
"1462 212 OFFCURVE",
"1472 252 OFFCURVE",
"1482 264 QCURVE",
"1486 276 OFFCURVE",
"1498 300 OFFCURVE",
"1500 312 QCURVE",
"1534 382 OFFCURVE",
"1586 536 OFFCURVE",
"1626 602 QCURVE",
"1638 618 OFFCURVE",
"1654 658 OFFCURVE",
"1662 680 QCURVE",
"1670 694 OFFCURVE",
"1678 724 OFFCURVE",
"1682 740 QCURVE",
"1686 750 OFFCURVE",
"1698 772 OFFCURVE",
"1702 782 QCURVE SMOOTH",
"1706 792 OFFCURVE",
"1708 810 OFFCURVE",
"1712 820 QCURVE SMOOTH",
"1718 836 OFFCURVE",
"1730 864 OFFCURVE",
"1734 882 QCURVE",
"1746 896 OFFCURVE",
"1748 914 QCURVE",
"1758 940 OFFCURVE",
"1798 1022 OFFCURVE",
"1810 1054 QCURVE SMOOTH",
"1814 1062 OFFCURVE",
"1816 1078 OFFCURVE",
"1820 1088 QCURVE SMOOTH",
"1824 1100 OFFCURVE",
"1834 1126 OFFCURVE",
"1840 1142 QCURVE SMOOTH",
"1844 1156 OFFCURVE",
"1848 1180 OFFCURVE",
"1850 1190 QCURVE SMOOTH",
"1852 1212 OFFCURVE",
"1838 1256 OFFCURVE",
"1830 1272 QCURVE SMOOTH",
"1826 1282 OFFCURVE",
"1818 1302 OFFCURVE",
"1814 1310 QCURVE SMOOTH",
"1802 1340 LINE",
"1798 1346 OFFCURVE",
"1794 1362 OFFCURVE",
"1790 1368 QCURVE SMOOTH",
"1786 1376 OFFCURVE",
"1760 1400 QCURVE",
"1754 1404 OFFCURVE",
"1722 1414 OFFCURVE",
"1702 1398 QCURVE",
"1690 1408 OFFCURVE",
"1666 1382 OFFCURVE",
"1644 1374 QCURVE",
"1610 1342 OFFCURVE",
"1532 1280 OFFCURVE",
"1504 1240 QCURVE",
"1468 1208 OFFCURVE",
"1444 1178 QCURVE",
"1432 1168 OFFCURVE",
"1410 1150 OFFCURVE",
"1392 1132 QCURVE SMOOTH",
"1372 1110 OFFCURVE",
"1336 1066 OFFCURVE",
"1318 1042 QCURVE",
"1314 1030 OFFCURVE",
"1290 990 OFFCURVE",
"1276 962 QCURVE",
"1262 946 OFFCURVE",
"1242 914 OFFCURVE",
"1226 898 QCURVE",
"1216 878 OFFCURVE",
"1194 842 OFFCURVE",
"1174 812 QCURVE",
"1158 792 OFFCURVE",
"1130 750 OFFCURVE",
"1114 728 QCURVE SMOOTH",
"1104 712 OFFCURVE",
"1082 680 OFFCURVE",
"1072 664 QCURVE SMOOTH",
"1066 656 OFFCURVE",
"1054 638 OFFCURVE",
"1048 636 QCURVE",
"1052 648 OFFCURVE",
"1058 674 OFFCURVE",
"1062 686 QCURVE SMOOTH",
"1064 696 OFFCURVE",
"1068 716 OFFCURVE",
"1072 728 QCURVE",
"1080 766 OFFCURVE",
"1096 838 OFFCURVE",
"1106 874 QCURVE SMOOTH",
"1110 888 OFFCURVE",
"1110 918 OFFCURVE",
"1122 944 QCURVE",
"1124 954 OFFCURVE",
"1126 972 OFFCURVE",
"1132 978 QCURVE",
"1138 1006 OFFCURVE",
"1172 1068 OFFCURVE",
"1180 1092 QCURVE SMOOTH",
"1184 1102 OFFCURVE",
"1190 1118 OFFCURVE",
"1194 1128 QCURVE",
"1198 1148 OFFCURVE",
"1216 1182 OFFCURVE",
"1220 1198 QCURVE",
"1222 1256 OFFCURVE",
"1200 1346 OFFCURVE",
"1184 1386 QCURVE",
"1172 1396 OFFCURVE",
"1156 1424 OFFCURVE",
"1146 1436 QCURVE",
"1108 1440 OFFCURVE",
"1048 1416 OFFCURVE",
"998 1374 OFFCURVE",
"954 1322 OFFCURVE",
"922 1296 QCURVE",
"912 1282 OFFCURVE",
"890 1262 OFFCURVE",
"878 1252 QCURVE",
"862 1218 OFFCURVE",
"822 1152 OFFCURVE",
"796 1128 QCURVE",
"776 1102 OFFCURVE",
"734 1050 OFFCURVE",
"712 1028 QCURVE SMOOTH",
"704 1020 OFFCURVE",
"694 1002 OFFCURVE",
"686 992 QCURVE SMOOTH",
"682 986 OFFCURVE",
"670 974 QCURVE",
"666 966 OFFCURVE",
"656 952 OFFCURVE",
"650 948 QCURVE",
"642 932 OFFCURVE",
"632 930 QCURVE",
"642 958 OFFCURVE",
"664 1008 OFFCURVE",
"674 1032 QCURVE SMOOTH",
"678 1042 OFFCURVE",
"686 1060 OFFCURVE",
"694 1080 QCURVE",
"696 1082 OFFCURVE",
"696 1088 OFFCURVE",
"708 1104 QCURVE",
"724 1132 OFFCURVE",
"746 1190 OFFCURVE",
"760 1218 QCURVE SMOOTH",
"768 1232 OFFCURVE",
"788 1268 OFFCURVE",
"790 1286 QCURVE SMOOTH",
"790 1294 OFFCURVE",
"786 1316 OFFCURVE",
"786 1326 QCURVE",
"784 1336 OFFCURVE",
"782 1356 OFFCURVE",
"780 1366 QCURVE SMOOTH",
"776 1388 OFFCURVE",
"762 1420 OFFCURVE",
"756 1432 QCURVE SMOOTH",
"752 1442 OFFCURVE",
"736 1470 OFFCURVE",
"724 1474 QCURVE SMOOTH",
"720 1476 OFFCURVE",
"708 1474 OFFCURVE",
"688 1486 QCURVE SMOOTH",
"676 1492 OFFCURVE",
"662 1488 QCURVE SMOOTH",
"644 1484 OFFCURVE",
"614 1462 OFFCURVE",
"598 1454 QCURVE",
"576 1440 OFFCURVE",
"532 1410 OFFCURVE",
"516 1394 QCURVE",
"484 1374 OFFCURVE",
"422 1330 OFFCURVE",
"394 1308 QCURVE SMOOTH",
"320 1256 OFFCURVE",
"270 1182 QCURVE",
"270 1172 OFFCURVE",
"260 1156 OFFCURVE",
"252 1132 QCURVE",
"250 1128 OFFCURVE",
"248 1126 OFFCURVE",
"244 1110 QCURVE",
"234 1086 LINE SMOOTH",
"230 1076 OFFCURVE",
"220 1052 OFFCURVE",
"216 1042 QCURVE",
"200 1020 OFFCURVE",
"194 1002 QCURVE SMOOTH",
"190 992 OFFCURVE",
"188 974 OFFCURVE",
"184 966 QCURVE SMOOTH",
"182 960 OFFCURVE",
"176 948 OFFCURVE",
"174 942 QCURVE SMOOTH",
"172 938 OFFCURVE",
"174 932 OFFCURVE",
"166 912 QCURVE",
"166 902 OFFCURVE",
"174 876 OFFCURVE",
"178 872 QCURVE",
"176 864 OFFCURVE",
"184 854 OFFCURVE",
"194 842 QCURVE",
"202 836 OFFCURVE",
"218 834 OFFCURVE",
"226 830 QCURVE SMOOTH",
"240 824 OFFCURVE",
"278 806 OFFCURVE",
"314 814 QCURVE",
"330 824 OFFCURVE",
"350 858 OFFCURVE",
"360 876 QCURVE",
"374 892 OFFCURVE",
"394 930 OFFCURVE",
"416 952 QCURVE",
"432 982 OFFCURVE",
"468 1036 OFFCURVE",
"488 1084 QCURVE SMOOTH",
"490 1088 OFFCURVE",
"488 1096 OFFCURVE",
"478 1106 QCURVE",
"468 1106 OFFCURVE",
"460 1096 OFFCURVE",
"442 1078 QCURVE",
"426 1056 OFFCURVE",
"392 1014 OFFCURVE",
"372 998 QCURVE SMOOTH",
"350 982 OFFCURVE",
"310 946 OFFCURVE",
"282 934 QCURVE",
"274 936 OFFCURVE",
"260 922 OFFCURVE",
"252 926 QCURVE",
"254 934 OFFCURVE",
"258 946 OFFCURVE",
"262 956 QCURVE SMOOTH",
"272 978 OFFCURVE",
"292 1024 OFFCURVE",
"294 1050 QCURVE",
"304 1060 OFFCURVE",
"322 1084 OFFCURVE",
"332 1094 QCURVE",
"350 1104 OFFCURVE",
"358 1118 QCURVE",
"376 1134 OFFCURVE",
"416 1168 OFFCURVE",
"434 1184 QCURVE",
"454 1194 OFFCURVE",
"492 1224 OFFCURVE",
"510 1234 QCURVE",
"514 1238 OFFCURVE",
"520 1240 OFFCURVE",
"528 1250 QCURVE",
"540 1258 OFFCURVE",
"550 1264 QCURVE SMOOTH",
"572 1276 OFFCURVE",
"606 1300 OFFCURVE",
"628 1302 QCURVE",
"632 1288 OFFCURVE",
"628 1276 QCURVE SMOOTH",
"624 1262 OFFCURVE",
"604 1232 OFFCURVE",
"596 1216 QCURVE SMOOTH",
"582 1190 OFFCURVE",
"568 1156 QCURVE SMOOTH",
"546 1110 OFFCURVE",
"506 1020 OFFCURVE",
"486 974 QCURVE",
"482 954 OFFCURVE",
"466 928 OFFCURVE",
"456 902 QCURVE SMOOTH",
"440 856 OFFCURVE",
"408 772 OFFCURVE",
"392 728 QCURVE",
"388 720 OFFCURVE",
"380 704 OFFCURVE",
"374 700 QCURVE",
"368 680 OFFCURVE",
"348 646 OFFCURVE",
"342 624 QCURVE SMOOTH",
"336 600 LINE",
"332 592 OFFCURVE",
"324 578 OFFCURVE",
"326 566 QCURVE",
"320 550 OFFCURVE",
"312 518 OFFCURVE",
"308 502 QCURVE",
"294 480 OFFCURVE",
"272 434 OFFCURVE",
"260 412 QCURVE SMOOTH",
"236 364 OFFCURVE",
"186 266 OFFCURVE",
"162 220 QCURVE SMOOTH",
"148 194 OFFCURVE",
"134 144 OFFCURVE",
"122 116 QCURVE",
"114 106 OFFCURVE",
"100 82 OFFCURVE",
"96 66 QCURVE",
"74 34 OFFCURVE",
"56 -8 QCURVE",
"52 -26 OFFCURVE",
"34 -58 OFFCURVE",
"30 -80 QCURVE",
"36 -86 OFFCURVE"
);
}
);
width = 1808;
}
);
note = M;
unicode = 004D;
},
{
glyphname = N;
layers = (
{
layerId = "F6DB7C97-1387-4B6F-ABF5-DF6BEF73745E";
paths = (
{
closed = 1;
nodes = (
"644 1212 OFFCURVE",
"650 1250 QCURVE SMOOTH",
"652 1262 OFFCURVE",
"656 1284 OFFCURVE",
"660 1296 QCURVE",
"664 1328 OFFCURVE",
"656 1390 OFFCURVE",
"648 1418 QCURVE SMOOTH",
"646 1424 OFFCURVE",
"638 1440 OFFCURVE",
"634 1446 QCURVE SMOOTH",
"626 1460 OFFCURVE",
"616 1476 OFFCURVE",
"594 1502 QCURVE",
"572 1512 OFFCURVE",
"530 1518 QCURVE",
"502 1512 OFFCURVE",
"474 1502 QCURVE SMOOTH",
"462 1498 OFFCURVE",
"444 1498 OFFCURVE",
"434 1496 QCURVE SMOOTH",
"402 1492 OFFCURVE",
"368 1452 OFFCURVE",
"340 1444 QCURVE",
"342 1436 OFFCURVE",
"334 1434 OFFCURVE",
"324 1420 QCURVE",
"310 1382 OFFCURVE",
"270 1322 OFFCURVE",
"254 1284 QCURVE SMOOTH",
"238 1250 OFFCURVE",
"206 1178 OFFCURVE",
"186 1146 QCURVE",
"182 1132 OFFCURVE",
"174 1104 OFFCURVE",
"174 1092 QCURVE",
"170 1058 OFFCURVE",
"184 996 OFFCURVE",
"190 970 QCURVE",
"194 960 OFFCURVE",
"198 938 OFFCURVE",
"202 930 QCURVE SMOOTH",
"210 912 OFFCURVE",
"234 870 OFFCURVE",
"244 854 QCURVE",
"254 850 OFFCURVE",
"268 832 OFFCURVE",
"288 824 QCURVE",
"298 828 OFFCURVE",
"308 836 OFFCURVE",
"332 852 QCURVE SMOOTH",
"342 858 OFFCURVE",
"362 876 OFFCURVE",
"374 880 QCURVE",
"390 896 OFFCURVE",
"414 942 OFFCURVE",
"424 962 QCURVE SMOOTH",
"432 976 OFFCURVE",
"436 1008 OFFCURVE",
"438 1030 QCURVE SMOOTH",
"440 1060 OFFCURVE",
"442 1122 OFFCURVE",
"438 1144 QCURVE",
"430 1164 OFFCURVE",
"406 1166 QCURVE",
"406 1160 OFFCURVE",
"404 1146 OFFCURVE",
"406 1142 QCURVE",
"390 1108 OFFCURVE",
"396 1070 QCURVE",
"392 1042 OFFCURVE",
"374 1010 OFFCURVE",
"364 994 QCURVE",
"360 990 OFFCURVE",
"354 976 OFFCURVE",
"350 972 QCURVE SMOOTH",
"346 968 OFFCURVE",
"340 956 OFFCURVE",
"338 952 QCURVE",
"332 946 OFFCURVE",
"320 934 OFFCURVE",
"310 930 QCURVE",
"300 934 OFFCURVE",
"294 952 OFFCURVE",
"290 968 QCURVE",
"286 978 OFFCURVE",
"280 996 OFFCURVE",
"280 1004 QCURVE",
"278 1016 OFFCURVE",
"276 1048 OFFCURVE",
"278 1058 QCURVE",
"278 1078 OFFCURVE",
"294 1110 OFFCURVE",
"294 1126 QCURVE",
"304 1138 OFFCURVE",
"322 1162 OFFCURVE",
"332 1172 QCURVE SMOOTH",
"336 1176 OFFCURVE",
"344 1188 OFFCURVE",
"348 1192 QCURVE SMOOTH",
"356 1202 OFFCURVE",
"368 1228 OFFCURVE",
"388 1242 QCURVE",
"392 1246 OFFCURVE",
"402 1258 OFFCURVE",
"408 1262 QCURVE",
"414 1268 OFFCURVE",
"436 1284 QCURVE SMOOTH",
"452 1294 OFFCURVE",
"480 1318 OFFCURVE",
"500 1320 QCURVE",
"508 1308 OFFCURVE",
"530 1280 OFFCURVE",
"532 1264 QCURVE SMOOTH",
"534 1256 OFFCURVE",
"532 1236 OFFCURVE",
"530 1226 QCURVE",
"528 1202 OFFCURVE",
"524 1162 OFFCURVE",
"522 1136 QCURVE SMOOTH",
"520 1122 OFFCURVE",
"514 1100 OFFCURVE",
"516 1090 QCURVE",
"506 1050 OFFCURVE",
"490 972 OFFCURVE",
"480 934 QCURVE",
"476 930 OFFCURVE",
"468 920 OFFCURVE",
"468 910 QCURVE",
"460 904 OFFCURVE",
"454 882 OFFCURVE",
"450 872 QCURVE",
"442 862 OFFCURVE",
"432 836 OFFCURVE",
"426 826 QCURVE SMOOTH",
"418 810 OFFCURVE",
"406 780 OFFCURVE",
"398 764 QCURVE SMOOTH",
"386 742 OFFCURVE",
"362 696 OFFCURVE",
"346 668 QCURVE",
"338 642 OFFCURVE",
"314 600 OFFCURVE",
"304 578 QCURVE SMOOTH",
"292 554 OFFCURVE",
"272 506 OFFCURVE",
"262 484 QCURVE SMOOTH",
"252 462 OFFCURVE",
"226 420 OFFCURVE",
"216 398 QCURVE SMOOTH",
"210 384 OFFCURVE",
"200 364 OFFCURVE",
"192 354 QCURVE SMOOTH",
"182 338 OFFCURVE",
"158 300 OFFCURVE",
"148 280 QCURVE",
"144 276 OFFCURVE",
"142 262 OFFCURVE",
"138 256 QCURVE SMOOTH",
"136 252 OFFCURVE",
"132 252 OFFCURVE",
"124 236 QCURVE SMOOTH",
"118 226 OFFCURVE",
"104 208 OFFCURVE",
"100 198 QCURVE",
"94 188 OFFCURVE",
"84 170 OFFCURVE",
"78 160 QCURVE",
"74 156 OFFCURVE",
"62 130 OFFCURVE",
"46 100 OFFCURVE",
"32 74 OFFCURVE",
"30 70 QCURVE SMOOTH",
"24 60 OFFCURVE",
"12 40 OFFCURVE",
"8 30 QCURVE",
"4 26 OFFCURVE",
"2 14 OFFCURVE",
"-2 8 QCURVE",
"-6 4 OFFCURVE",
"-12 -6 OFFCURVE",
"-20 -26 QCURVE",
"-18 -40 OFFCURVE",
"-12 -64 OFFCURVE",
"-2 -68 QCURVE SMOOTH",
"12 -74 OFFCURVE",
"28 -60 OFFCURVE",
"44 -64 QCURVE",
"48 -60 OFFCURVE",
"54 -48 OFFCURVE",
"60 -44 QCURVE",
"70 -34 OFFCURVE",
"94 -30 OFFCURVE",
"104 -24 QCURVE SMOOTH",
"114 -18 OFFCURVE",
"128 -6 OFFCURVE",
"136 -2 QCURVE SMOOTH",
"150 4 OFFCURVE",
"176 6 OFFCURVE",
"186 18 QCURVE",
"196 20 OFFCURVE",
"214 34 OFFCURVE",
"224 40 QCURVE",
"226 52 OFFCURVE",
"240 86 OFFCURVE",
"254 126 OFFCURVE",
"266 162 OFFCURVE",
"268 174 QCURVE",
"278 198 OFFCURVE",
"302 246 OFFCURVE",
"312 272 QCURVE",
"318 278 OFFCURVE",
"322 294 QCURVE",
"328 306 OFFCURVE",
"338 332 OFFCURVE",
"342 344 QCURVE SMOOTH",
"346 354 OFFCURVE",
"356 380 OFFCURVE",
"364 392 QCURVE SMOOTH",
"376 412 OFFCURVE",
"406 446 OFFCURVE",
"420 464 QCURVE SMOOTH",
"430 478 OFFCURVE",
"450 508 OFFCURVE",
"458 522 QCURVE",
"470 538 OFFCURVE",
"484 578 OFFCURVE",
"492 600 QCURVE",
"514 646 OFFCURVE",
"556 742 OFFCURVE",
"584 782 QCURVE",
"606 830 OFFCURVE",
"660 918 OFFCURVE",
"688 966 QCURVE SMOOTH",
"714 1016 OFFCURVE",
"748 1044 QCURVE",
"752 1044 OFFCURVE",
"766 1058 QCURVE SMOOTH",
"788 1080 OFFCURVE",
"834 1120 OFFCURVE",
"870 1150 QCURVE",
"904 1174 OFFCURVE",
"962 1224 OFFCURVE",
"996 1250 QCURVE",
"1000 1246 OFFCURVE",
"1010 1240 OFFCURVE",
"1016 1236 QCURVE",
"1018 1228 OFFCURVE",
"1024 1218 OFFCURVE",
"1028 1204 QCURVE",
"1038 1196 OFFCURVE",
"1040 1172 OFFCURVE",
"1052 1144 QCURVE",
"1056 1130 OFFCURVE",
"1058 1098 OFFCURVE",
"1056 1082 QCURVE SMOOTH",
"1052 1044 OFFCURVE",
"1030 990 OFFCURVE",
"1020 962 QCURVE",
"1000 930 OFFCURVE",
"972 848 OFFCURVE",
"956 814 QCURVE SMOOTH",
"952 804 OFFCURVE",
"948 790 OFFCURVE",
"944 784 QCURVE",
"934 762 OFFCURVE",
"924 714 OFFCURVE",
"914 692 QCURVE SMOOTH",
"908 676 OFFCURVE",
"892 646 OFFCURVE",
"886 630 QCURVE SMOOTH",
"868 586 OFFCURVE",
"832 496 OFFCURVE",
"808 454 QCURVE",
"804 436 OFFCURVE",
"790 408 OFFCURVE",
"782 392 QCURVE SMOOTH",
"776 376 OFFCURVE",
"766 344 OFFCURVE",
"756 318 QCURVE",
"746 300 OFFCURVE",
"734 266 OFFCURVE",
"724 250 QCURVE SMOOTH",
"716 234 OFFCURVE",
"702 196 OFFCURVE",
"700 174 QCURVE SMOOTH",
"698 154 OFFCURVE",
"700 108 OFFCURVE",
"712 78 QCURVE",
"716 62 OFFCURVE",
"732 32 OFFCURVE",
"740 16 QCURVE SMOOTH",
"748 0 OFFCURVE",
"742 -24 OFFCURVE",
"748 -40 QCURVE",
"764 -52 OFFCURVE",
"814 -58 OFFCURVE",
"836 -66 QCURVE SMOOTH",
"844 -68 OFFCURVE",
"856 -76 OFFCURVE",
"864 -76 QCURVE",
"868 -78 OFFCURVE",
"882 -70 OFFCURVE",
"890 -68 QCURVE SMOOTH",
"900 -64 OFFCURVE",
"912 -62 OFFCURVE",
"916 -56 QCURVE",
"938 -48 OFFCURVE",
"976 -22 OFFCURVE",
"998 -10 QCURVE SMOOTH",
"1006 -6 OFFCURVE",
"1020 2 OFFCURVE",
"1028 6 QCURVE",
"1084 46 OFFCURVE",
"1196 126 OFFCURVE",
"1248 170 QCURVE",
"1252 180 OFFCURVE",
"1268 194 OFFCURVE",
"1272 206 QCURVE SMOOTH",
"1276 220 OFFCURVE",
"1274 246 OFFCURVE",
"1280 256 QCURVE SMOOTH",
"1284 262 OFFCURVE",
"1294 268 OFFCURVE",
"1296 278 QCURVE",
"1300 286 OFFCURVE",
"1296 298 OFFCURVE",
"1296 310 QCURVE",
"1284 324 OFFCURVE",
"1246 298 OFFCURVE",
"1232 292 QCURVE",
"1210 274 OFFCURVE",
"1164 240 OFFCURVE",
"1142 222 QCURVE",
"1100 196 OFFCURVE",
"1022 140 OFFCURVE",
"978 116 QCURVE",
"970 114 OFFCURVE",
"956 108 OFFCURVE",
"948 104 QCURVE",
"934 108 OFFCURVE",
"904 100 OFFCURVE",
"888 102 QCURVE",
"878 106 OFFCURVE",
"864 122 OFFCURVE",
"856 132 QCURVE SMOOTH",
"852 138 OFFCURVE",
"840 152 OFFCURVE",
"840 158 QCURVE SMOOTH",
"840 162 OFFCURVE",
"846 182 OFFCURVE",
"848 188 QCURVE SMOOTH",
"856 210 OFFCURVE",
"870 244 OFFCURVE",
"878 262 QCURVE SMOOTH",
"888 284 OFFCURVE",
"906 322 OFFCURVE",
"916 342 QCURVE SMOOTH",
"932 372 OFFCURVE",
"962 436 OFFCURVE",
"978 464 QCURVE SMOOTH",
"986 478 OFFCURVE",
"996 500 OFFCURVE",
"1000 514 QCURVE",
"1008 520 OFFCURVE",
"1012 538 OFFCURVE",
"1022 556 QCURVE",
"1050 632 OFFCURVE",
"1130 760 OFFCURVE",
"1168 828 QCURVE",
"1170 838 OFFCURVE",
"1176 852 OFFCURVE",
"1180 862 QCURVE SMOOTH",
"1184 876 OFFCURVE",
"1188 900 QCURVE SMOOTH",
"1192 918 OFFCURVE",
"1202 954 OFFCURVE",
"1206 974 QCURVE SMOOTH",
"1208 990 OFFCURVE",
"1206 1018 OFFCURVE",
"1208 1034 QCURVE SMOOTH",
"1210 1066 OFFCURVE",
"1216 1130 OFFCURVE",
"1214 1160 QCURVE",
"1212 1166 OFFCURVE",
"1208 1184 OFFCURVE",
"1204 1192 QCURVE",
"1200 1208 OFFCURVE",
"1210 1238 OFFCURVE",
"1202 1250 QCURVE",
"1196 1254 OFFCURVE",
"1190 1264 OFFCURVE",
"1184 1268 QCURVE",
"1174 1288 OFFCURVE",
"1168 1338 OFFCURVE",
"1160 1360 QCURVE SMOOTH",
"1156 1368 OFFCURVE",
"1146 1378 OFFCURVE",
"1138 1394 QCURVE SMOOTH",
"1130 1414 OFFCURVE",
"1112 1446 OFFCURVE",
"1094 1452 QCURVE",
"1084 1460 OFFCURVE",
"1070 1478 OFFCURVE",
"1058 1486 QCURVE",
"1018 1480 OFFCURVE",
"954 1448 OFFCURVE",
"916 1434 QCURVE",
"906 1424 OFFCURVE",
"884 1420 OFFCURVE",
"874 1412 QCURVE SMOOTH",
"864 1404 OFFCURVE",
"848 1380 OFFCURVE",
"840 1370 QCURVE SMOOTH",
"812 1336 OFFCURVE",
"758 1270 OFFCURVE",
"732 1236 QCURVE SMOOTH",
"722 1222 OFFCURVE",
"702 1200 OFFCURVE",
"690 1190 QCURVE",
"672 1168 OFFCURVE",
"652 1120 OFFCURVE",
"616 1094 QCURVE",
"620 1130 OFFCURVE"
);
}
);
width = 1216;
}
);
note = N;
unicode = 004E;
},
{
glyphname = O;
layers = (
{
layerId = "F6DB7C97-1387-4B6F-ABF5-DF6BEF73745E";
paths = (
{
closed = 1;
nodes = (
"1002 1336 OFFCURVE",
"976 1366 OFFCURVE",
"966 1382 QCURVE",
"950 1392 OFFCURVE",
"924 1434 OFFCURVE",
"900 1438 QCURVE",
"890 1446 OFFCURVE",
"876 1460 OFFCURVE",
"864 1462 QCURVE SMOOTH",
"856 1464 OFFCURVE",
"838 1460 OFFCURVE",
"824 1462 QCURVE",
"812 1458 OFFCURVE",
"796 1448 OFFCURVE",
"786 1444 QCURVE",
"784 1440 OFFCURVE",
"774 1434 OFFCURVE",
"770 1428 QCURVE",
"764 1424 OFFCURVE",
"754 1416 OFFCURVE",
"742 1402 QCURVE",
"726 1392 OFFCURVE",
"702 1366 OFFCURVE",
"686 1356 QCURVE",
"680 1346 OFFCURVE",
"666 1328 OFFCURVE",
"642 1308 QCURVE",
"642 1302 OFFCURVE",
"634 1302 OFFCURVE",
"618 1300 QCURVE",
"602 1290 OFFCURVE",
"576 1264 OFFCURVE",
"560 1252 QCURVE SMOOTH",
"552 1246 OFFCURVE",
"536 1234 OFFCURVE",
"528 1228 QCURVE SMOOTH",
"522 1222 OFFCURVE",
"508 1210 OFFCURVE",
"500 1206 QCURVE",
"496 1198 OFFCURVE",
"482 1188 OFFCURVE",
"476 1182 QCURVE SMOOTH",
"466 1172 OFFCURVE",
"450 1154 OFFCURVE",
"440 1146 QCURVE",
"418 1122 OFFCURVE",
"374 1074 OFFCURVE",
"358 1040 QCURVE",
"350 1034 OFFCURVE",
"342 1012 OFFCURVE",
"332 1006 QCURVE",
"300 954 OFFCURVE",
"238 856 OFFCURVE",
"210 798 QCURVE SMOOTH",
"196 766 OFFCURVE",
"166 710 OFFCURVE",
"154 676 QCURVE",
"150 660 OFFCURVE",
"138 630 OFFCURVE",
"132 614 QCURVE SMOOTH",
"114 572 OFFCURVE",
"106 518 QCURVE",
"102 508 OFFCURVE",
"104 488 OFFCURVE",
"94 478 QCURVE",
"90 468 OFFCURVE",
"88 448 OFFCURVE",
"86 428 QCURVE",
"82 416 OFFCURVE",
"84 386 OFFCURVE",
"86 370 QCURVE",
"82 360 OFFCURVE",
"84 334 OFFCURVE",
"84 320 QCURVE SMOOTH",
"84 282 OFFCURVE",
"84 200 OFFCURVE",
"88 168 QCURVE",
"84 136 OFFCURVE",
"98 78 OFFCURVE",
"116 40 QCURVE SMOOTH",
"124 20 OFFCURVE",
"138 0 QCURVE",
"138 -8 OFFCURVE",
"144 -14 OFFCURVE",
"146 -22 QCURVE",
"156 -32 OFFCURVE",
"166 -52 OFFCURVE",
"192 -76 QCURVE",
"206 -86 OFFCURVE",
"260 -100 OFFCURVE",
"282 -102 QCURVE SMOOTH",
"300 -102 OFFCURVE",
"328 -96 OFFCURVE",
"344 -92 QCURVE SMOOTH",
"356 -90 OFFCURVE",
"382 -88 OFFCURVE",
"394 -84 QCURVE SMOOTH",
"410 -78 OFFCURVE",
"438 -60 OFFCURVE",
"454 -50 QCURVE SMOOTH",
"488 -30 OFFCURVE",
"550 2 OFFCURVE",
"582 20 QCURVE SMOOTH",
"598 30 OFFCURVE",
"628 52 OFFCURVE",
"642 62 QCURVE",
"652 72 OFFCURVE",
"674 94 OFFCURVE",
"684 104 QCURVE SMOOTH",
"694 114 OFFCURVE",
"718 138 OFFCURVE",
"730 148 QCURVE SMOOTH",
"754 170 OFFCURVE",
"802 212 OFFCURVE",
"818 240 QCURVE SMOOTH",
"828 260 OFFCURVE",
"850 294 OFFCURVE",
"860 316 QCURVE",
"882 350 OFFCURVE",
"906 380 QCURVE",
"912 390 OFFCURVE",
"920 408 OFFCURVE",
"924 418 QCURVE",
"932 432 OFFCURVE",
"948 462 OFFCURVE",
"950 478 QCURVE SMOOTH",
"952 494 OFFCURVE",
"956 522 OFFCURVE",
"966 532 QCURVE",
"970 546 OFFCURVE",
"978 574 OFFCURVE",
"984 584 QCURVE SMOOTH",
"988 592 OFFCURVE",
"988 602 OFFCURVE",
"996 620 QCURVE",
"1002 642 OFFCURVE",
"1004 684 OFFCURVE",
"1006 706 QCURVE",
"1008 710 OFFCURVE",
"1010 722 OFFCURVE",
"1014 734 QCURVE",
"1022 738 OFFCURVE",
"1038 744 OFFCURVE",
"1062 752 QCURVE SMOOTH",
"1074 756 OFFCURVE",
"1098 756 OFFCURVE",
"1108 750 QCURVE",
"1122 752 OFFCURVE",
"1160 748 OFFCURVE",
"1174 746 QCURVE",
"1190 752 OFFCURVE",
"1228 754 OFFCURVE",
"1260 772 QCURVE",
"1270 780 OFFCURVE",
"1286 790 OFFCURVE",
"1296 798 QCURVE SMOOTH",
"1302 802 OFFCURVE",
"1312 816 OFFCURVE",
"1318 836 QCURVE",
"1330 840 OFFCURVE",
"1338 862 QCURVE",
"1310 854 OFFCURVE",
"1270 830 OFFCURVE",
"1236 826 QCURVE",
"1226 822 OFFCURVE",
"1208 814 OFFCURVE",
"1198 812 QCURVE",
"1156 808 OFFCURVE",
"1062 818 OFFCURVE",
"1026 822 QCURVE",
"1030 844 OFFCURVE",
"1034 884 OFFCURVE",
"1038 906 QCURVE",
"1038 910 OFFCURVE",
"1042 908 OFFCURVE",
"1044 930 QCURVE",
"1054 964 OFFCURVE",
"1056 1000 QCURVE SMOOTH",
"1056 1016 OFFCURVE",
"1062 1044 OFFCURVE",
"1062 1060 QCURVE SMOOTH",
"1062 1084 LINE",
"1060 1096 OFFCURVE",
"1062 1120 OFFCURVE",
"1062 1132 QCURVE SMOOTH",
"1058 1182 OFFCURVE",
"1030 1266 OFFCURVE",
"1020 1318 QCURVE",
"1012 1318 LINE"
);
},
{
closed = 1;
nodes = (
"818 990 OFFCURVE",
"816 1004 QCURVE",
"802 1032 OFFCURVE",
"790 1108 OFFCURVE",
"784 1146 QCURVE SMOOTH",
"780 1168 OFFCURVE",
"776 1216 OFFCURVE",
"780 1244 QCURVE",
"794 1254 OFFCURVE",
"824 1276 OFFCURVE",
"848 1274 QCURVE",
"852 1268 OFFCURVE",
"862 1260 OFFCURVE",
"866 1256 QCURVE SMOOTH",
"870 1252 OFFCURVE",
"870 1246 OFFCURVE",
"880 1234 QCURVE",
"884 1226 OFFCURVE",
"890 1210 OFFCURVE",
"898 1202 QCURVE",
"902 1178 OFFCURVE",
"916 1138 OFFCURVE",
"922 1116 QCURVE",
"926 1064 OFFCURVE",
"916 942 OFFCURVE",
"916 890 QCURVE",
"902 900 OFFCURVE",
"874 922 OFFCURVE",
"864 936 QCURVE",
"846 952 OFFCURVE"
);
},
{
closed = 1;
nodes = (
"624 1142 OFFCURVE",
"636 1154 QCURVE",
"644 1114 OFFCURVE",
"664 1044 OFFCURVE",
"682 1004 QCURVE SMOOTH",
"700 958 OFFCURVE",
"758 884 OFFCURVE",
"790 850 QCURVE",
"798 846 OFFCURVE",
"808 838 OFFCURVE",
"816 832 QCURVE",
"832 830 OFFCURVE",
"858 800 OFFCURVE",
"874 794 QCURVE",
"880 790 OFFCURVE",
"892 792 OFFCURVE",
"900 788 QCURVE",
"892 756 OFFCURVE",
"878 704 OFFCURVE",
"868 676 QCURVE",
"864 670 OFFCURVE",
"862 652 OFFCURVE",
"856 646 QCURVE",
"850 616 OFFCURVE",
"824 558 OFFCURVE",
"806 520 QCURVE",
"796 488 OFFCURVE",
"764 428 OFFCURVE",
"752 394 QCURVE",
"742 380 OFFCURVE",
"732 352 OFFCURVE",
"722 340 QCURVE",
"718 332 OFFCURVE",
"708 318 OFFCURVE",
"702 312 QCURVE",
"694 296 OFFCURVE",
"674 274 OFFCURVE",
"664 264 QCURVE SMOOTH",
"652 252 OFFCURVE",
"624 230 OFFCURVE",
"610 216 QCURVE SMOOTH",
"592 196 OFFCURVE",
"552 162 QCURVE",
"538 154 OFFCURVE",
"506 144 OFFCURVE",
"490 138 QCURVE SMOOTH",
"476 134 OFFCURVE",
"446 124 OFFCURVE",
"430 120 QCURVE",
"420 116 OFFCURVE",
"400 114 OFFCURVE",
"390 110 QCURVE",
"378 114 OFFCURVE",
"354 102 OFFCURVE",
"344 108 QCURVE",
"316 98 OFFCURVE",
"284 132 OFFCURVE",
"268 148 QCURVE",
"260 154 OFFCURVE",
"240 170 OFFCURVE",
"236 178 QCURVE",
"232 194 OFFCURVE",
"232 220 QCURVE",
"228 256 OFFCURVE",
"228 324 OFFCURVE",
"228 364 QCURVE SMOOTH",
"228 386 OFFCURVE",
"232 424 OFFCURVE",
"234 444 QCURVE SMOOTH",
"234 452 OFFCURVE",
"232 468 OFFCURVE",
"234 476 QCURVE SMOOTH",
"236 492 OFFCURVE",
"250 524 OFFCURVE",
"254 542 QCURVE SMOOTH",
"280 634 OFFCURVE",
"314 706 QCURVE",
"320 726 OFFCURVE",
"328 738 QCURVE",
"332 748 OFFCURVE",
"338 768 OFFCURVE",
"354 796 QCURVE",
"362 814 OFFCURVE",
"382 850 OFFCURVE",
"394 866 QCURVE",
"400 880 OFFCURVE",
"414 906 OFFCURVE",
"426 914 QCURVE",
"430 924 OFFCURVE",
"446 944 OFFCURVE",
"466 970 QCURVE",
"472 976 OFFCURVE",
"480 988 OFFCURVE",
"486 992 QCURVE",
"494 1004 OFFCURVE",
"510 1022 OFFCURVE",
"520 1032 QCURVE SMOOTH",
"530 1042 OFFCURVE",
"546 1062 OFFCURVE",
"558 1072 QCURVE",
"566 1084 OFFCURVE",
"586 1100 OFFCURVE",
"596 1110 QCURVE SMOOTH",
"606 1122 OFFCURVE"
);
}
);
width = 1102;
}
);
note = O;
unicode = 004F;
},
{
glyphname = P;
layers = (
{
layerId = "F6DB7C97-1387-4B6F-ABF5-DF6BEF73745E";
paths = (
{
closed = 1;
nodes = (
"216 234 OFFCURVE",
"228 258 QCURVE SMOOTH",
"242 286 OFFCURVE",
"274 340 OFFCURVE",
"286 368 QCURVE SMOOTH",
"290 378 OFFCURVE",
"302 420 OFFCURVE",
"312 424 QCURVE",
"316 424 OFFCURVE",
"338 414 OFFCURVE",
"344 412 QCURVE SMOOTH",
"372 404 OFFCURVE",
"436 410 OFFCURVE",
"472 418 QCURVE",
"518 432 OFFCURVE",
"596 472 OFFCURVE",
"642 494 QCURVE SMOOTH",
"660 504 OFFCURVE",
"694 522 OFFCURVE",
"708 534 QCURVE",
"736 546 OFFCURVE",
"784 578 OFFCURVE",
"808 594 QCURVE",
"870 628 OFFCURVE",
"930 672 QCURVE",
"972 690 OFFCURVE",
"998 722 QCURVE",
"1012 736 OFFCURVE",
"1036 760 OFFCURVE",
"1046 776 QCURVE",
"1088 808 OFFCURVE",
"1122 912 OFFCURVE",
"1138 970 QCURVE SMOOTH",
"1144 992 OFFCURVE",
"1158 1036 OFFCURVE",
"1160 1060 QCURVE SMOOTH",
"1160 1068 OFFCURVE",
"1158 1082 OFFCURVE",
"1160 1088 QCURVE SMOOTH",
"1162 1096 OFFCURVE",
"1166 1114 OFFCURVE",
"1168 1124 QCURVE SMOOTH",
"1174 1158 OFFCURVE",
"1188 1228 OFFCURVE",
"1184 1262 QCURVE SMOOTH",
"1180 1288 OFFCURVE",
"1156 1326 OFFCURVE",
"1144 1348 QCURVE",
"1138 1352 OFFCURVE",
"1126 1364 OFFCURVE",
"1118 1366 QCURVE",
"1106 1386 OFFCURVE",
"1086 1406 QCURVE SMOOTH",
"1076 1416 OFFCURVE",
"1050 1424 OFFCURVE",
"1034 1432 QCURVE SMOOTH",
"1024 1436 OFFCURVE",
"1006 1446 OFFCURVE",
"998 1450 QCURVE",
"940 1464 OFFCURVE",
"888 1460 QCURVE SMOOTH",
"872 1458 OFFCURVE",
"850 1450 OFFCURVE",
"836 1448 QCURVE",
"826 1444 OFFCURVE",
"800 1442 OFFCURVE",
"790 1438 QCURVE",
"780 1440 OFFCURVE",
"758 1432 OFFCURVE",
"738 1430 QCURVE",
"730 1428 OFFCURVE",
"716 1422 OFFCURVE",
"710 1424 QCURVE SMOOTH",
"700 1426 OFFCURVE",
"694 1442 OFFCURVE",
"688 1450 QCURVE",
"684 1460 OFFCURVE",
"678 1470 OFFCURVE",
"670 1474 QCURVE",
"660 1474 OFFCURVE",
"664 1478 OFFCURVE",
"644 1466 QCURVE",
"620 1442 OFFCURVE",
"584 1382 OFFCURVE",
"568 1348 QCURVE",
"552 1340 OFFCURVE",
"516 1330 OFFCURVE",
"494 1324 QCURVE",
"432 1296 OFFCURVE",
"318 1238 OFFCURVE",
"270 1198 QCURVE",
"260 1186 OFFCURVE",
"256 1150 OFFCURVE",
"254 1134 QCURVE",
"268 1126 OFFCURVE",
"294 1138 OFFCURVE",
"328 1150 QCURVE",
"336 1154 OFFCURVE",
"350 1154 OFFCURVE",
"360 1156 QCURVE",
"368 1156 OFFCURVE",
"382 1164 OFFCURVE",
"404 1160 QCURVE SMOOTH",
"440 1156 OFFCURVE",
"496 1178 OFFCURVE",
"522 1186 QCURVE",
"520 1176 OFFCURVE",
"510 1160 OFFCURVE",
"498 1130 QCURVE SMOOTH",
"486 1106 OFFCURVE",
"454 1060 OFFCURVE",
"440 1034 QCURVE",
"436 1024 OFFCURVE",
"428 1008 OFFCURVE",
"422 1000 QCURVE",
"416 988 OFFCURVE",
"404 964 OFFCURVE",
"400 952 QCURVE",
"392 946 OFFCURVE",
"386 928 OFFCURVE",
"378 922 QCURVE",
"372 894 OFFCURVE",
"348 858 OFFCURVE",
"338 836 QCURVE",
"334 820 OFFCURVE",
"318 790 OFFCURVE",
"306 760 QCURVE SMOOTH",
"304 756 OFFCURVE",
"294 746 OFFCURVE",
"288 732 QCURVE SMOOTH",
"278 710 OFFCURVE",
"258 662 OFFCURVE",
"244 622 QCURVE",
"238 618 OFFCURVE",
"234 602 OFFCURVE",
"230 596 QCURVE SMOOTH",
"226 588 OFFCURVE",
"218 574 OFFCURVE",
"218 564 QCURVE",
"208 542 OFFCURVE",
"184 504 OFFCURVE",
"162 468 QCURVE",
"152 456 OFFCURVE",
"136 430 OFFCURVE",
"126 418 QCURVE",
"126 404 OFFCURVE",
"118 394 OFFCURVE",
"118 382 QCURVE",
"112 378 OFFCURVE",
"108 366 OFFCURVE",
"106 360 QCURVE",
"100 350 OFFCURVE",
"88 330 OFFCURVE",
"84 320 QCURVE",
"78 310 OFFCURVE",
"68 286 OFFCURVE",
"62 276 QCURVE SMOOTH",
"58 268 OFFCURVE",
"50 254 OFFCURVE",
"46 244 QCURVE",
"42 238 OFFCURVE",
"32 226 OFFCURVE",
"30 218 QCURVE",
"16 198 OFFCURVE",
"-6 154 OFFCURVE",
"-18 124 QCURVE SMOOTH",
"-28 104 OFFCURVE",
"-58 70 OFFCURVE",
"-62 44 QCURVE SMOOTH",
"-64 30 OFFCURVE",
"-54 8 OFFCURVE",
"-44 -22 QCURVE",
"-40 -30 OFFCURVE",
"-42 -50 OFFCURVE",
"-32 -54 QCURVE",
"-24 -60 OFFCURVE",
"-10 -68 OFFCURVE",
"0 -66 QCURVE",
"20 -80 OFFCURVE",
"76 -88 OFFCURVE",
"112 -72 QCURVE",
"106 -62 OFFCURVE",
"118 -48 OFFCURVE",
"120 -40 QCURVE SMOOTH",
"124 -28 OFFCURVE",
"118 8 OFFCURVE",
"120 22 QCURVE SMOOTH",
"124 42 OFFCURVE",
"144 70 OFFCURVE",
"152 86 QCURVE SMOOTH",
"162 102 OFFCURVE",
"170 142 OFFCURVE",
"180 158 QCURVE SMOOTH",
"192 182 OFFCURVE"
);
},
{
closed = 1;
nodes = (
"414 578 OFFCURVE",
"404 576 QCURVE",
"408 588 OFFCURVE",
"414 612 OFFCURVE",
"424 630 QCURVE",
"428 640 OFFCURVE",
"432 654 OFFCURVE",
"436 660 QCURVE",
"440 670 OFFCURVE",
"448 686 OFFCURVE",
"452 696 QCURVE SMOOTH",
"460 714 OFFCURVE",
"470 754 OFFCURVE",
"480 776 QCURVE",
"484 810 OFFCURVE",
"516 862 OFFCURVE",
"528 888 QCURVE SMOOTH",
"550 930 OFFCURVE",
"586 1016 OFFCURVE",
"608 1056 QCURVE",
"618 1090 OFFCURVE",
"650 1154 OFFCURVE",
"662 1188 QCURVE",
"662 1202 OFFCURVE",
"670 1226 OFFCURVE",
"670 1242 QCURVE",
"696 1250 OFFCURVE",
"742 1270 OFFCURVE",
"768 1274 QCURVE SMOOTH",
"776 1276 OFFCURVE",
"792 1276 OFFCURVE",
"802 1278 QCURVE",
"810 1278 OFFCURVE",
"822 1282 OFFCURVE",
"830 1286 QCURVE",
"840 1282 OFFCURVE",
"864 1292 OFFCURVE",
"876 1292 QCURVE SMOOTH",
"898 1294 OFFCURVE",
"936 1288 OFFCURVE",
"950 1294 QCURVE",
"960 1290 OFFCURVE",
"974 1292 OFFCURVE",
"994 1284 QCURVE",
"998 1280 OFFCURVE",
"1010 1278 OFFCURVE",
"1014 1274 QCURVE SMOOTH",
"1024 1264 OFFCURVE",
"1028 1228 OFFCURVE",
"1036 1198 QCURVE",
"1036 1186 OFFCURVE",
"1044 1150 OFFCURVE",
"1038 1134 QCURVE SMOOTH",
"1036 1130 OFFCURVE",
"1030 1120 OFFCURVE",
"1028 1114 QCURVE",
"1024 1108 OFFCURVE",
"1022 1096 OFFCURVE",
"1018 1092 QCURVE",
"1014 1084 OFFCURVE",
"1004 1070 OFFCURVE",
"1000 1060 QCURVE SMOOTH",
"996 1052 OFFCURVE",
"988 1040 OFFCURVE",
"984 1032 QCURVE",
"976 1024 OFFCURVE",
"970 1004 QCURVE",
"964 996 OFFCURVE",
"954 972 QCURVE",
"950 966 OFFCURVE",
"950 954 OFFCURVE",
"946 950 QCURVE",
"936 934 OFFCURVE",
"916 908 OFFCURVE",
"904 892 QCURVE",
"894 870 OFFCURVE",
"866 832 OFFCURVE",
"852 814 QCURVE SMOOTH",
"838 792 OFFCURVE",
"812 754 OFFCURVE",
"792 740 QCURVE",
"792 738 OFFCURVE",
"788 736 OFFCURVE",
"778 720 QCURVE",
"764 716 OFFCURVE",
"744 696 OFFCURVE",
"734 686 QCURVE",
"720 676 OFFCURVE",
"696 662 OFFCURVE",
"686 652 QCURVE",
"664 644 OFFCURVE",
"620 616 OFFCURVE",
"596 608 QCURVE",
"592 606 OFFCURVE",
"572 602 OFFCURVE",
"566 602 QCURVE SMOOTH",
"562 602 OFFCURVE",
"556 604 OFFCURVE",
"538 600 QCURVE SMOOTH",
"520 596 OFFCURVE",
"472 600 OFFCURVE",
"456 588 QCURVE",
"440 590 OFFCURVE"
);
}
);
width = 938;
}
);
note = P;
unicode = 0050;
},
{
glyphname = Q;
layers = (
{
layerId = "F6DB7C97-1387-4B6F-ABF5-DF6BEF73745E";
paths = (
{
closed = 1;
nodes = (
"818 4 OFFCURVE",
"814 18 QCURVE",
"798 34 OFFCURVE",
"772 72 OFFCURVE",
"758 90 QCURVE",
"752 94 OFFCURVE",
"742 108 OFFCURVE",
"736 116 QCURVE SMOOTH",
"732 122 OFFCURVE",
"716 138 OFFCURVE",
"716 146 QCURVE SMOOTH",
"716 156 OFFCURVE",
"730 164 OFFCURVE",
"734 172 QCURVE",
"750 178 OFFCURVE",
"772 206 OFFCURVE",
"790 240 OFFCURVE",
"808 272 OFFCURVE",
"820 284 QCURVE",
"824 292 OFFCURVE",
"832 310 OFFCURVE",
"836 318 QCURVE SMOOTH",
"840 326 OFFCURVE",
"852 342 QCURVE",
"856 350 OFFCURVE",
"860 364 OFFCURVE",
"874 386 QCURVE",
"882 396 OFFCURVE",
"892 422 OFFCURVE",
"900 436 QCURVE",
"904 450 OFFCURVE",
"916 476 OFFCURVE",
"922 490 QCURVE SMOOTH",
"936 522 OFFCURVE",
"968 582 OFFCURVE",
"990 620 QCURVE",
"998 644 OFFCURVE",
"1022 682 OFFCURVE",
"1036 714 QCURVE",
"1040 720 OFFCURVE",
"1046 732 OFFCURVE",
"1048 738 QCURVE SMOOTH",
"1052 746 OFFCURVE",
"1054 758 OFFCURVE",
"1058 764 QCURVE SMOOTH",
"1072 790 OFFCURVE",
"1094 840 OFFCURVE",
"1100 868 QCURVE",
"1110 884 OFFCURVE",
"1116 916 OFFCURVE",
"1120 932 QCURVE SMOOTH",
"1122 948 OFFCURVE",
"1128 978 OFFCURVE",
"1130 996 QCURVE SMOOTH",
"1136 1046 OFFCURVE",
"1128 1150 OFFCURVE",
"1130 1198 QCURVE",
"1118 1272 OFFCURVE",
"1078 1408 OFFCURVE",
"1026 1470 QCURVE",
"1016 1470 OFFCURVE",
"1006 1482 OFFCURVE",
"998 1484 QCURVE",
"994 1486 OFFCURVE",
"988 1484 OFFCURVE",
"972 1492 QCURVE",
"950 1492 LINE",
"904 1488 OFFCURVE",
"810 1458 OFFCURVE",
"770 1436 QCURVE",
"764 1430 OFFCURVE",
"750 1422 OFFCURVE",
"742 1418 QCURVE",
"718 1410 OFFCURVE",
"688 1390 QCURVE",
"676 1378 OFFCURVE",
"666 1376 QCURVE",
"656 1364 OFFCURVE",
"628 1342 OFFCURVE",
"610 1338 QCURVE",
"552 1302 OFFCURVE",
"448 1208 OFFCURVE",
"404 1146 QCURVE",
"396 1130 OFFCURVE",
"376 1110 OFFCURVE",
"362 1098 QCURVE",
"358 1082 OFFCURVE",
"340 1056 OFFCURVE",
"334 1042 QCURVE SMOOTH",
"330 1034 OFFCURVE",
"328 1020 OFFCURVE",
"324 1012 QCURVE SMOOTH",
"322 1006 OFFCURVE",
"312 996 OFFCURVE",
"310 988 QCURVE",
"292 966 OFFCURVE",
"276 936 QCURVE",
"268 926 OFFCURVE",
"258 906 OFFCURVE",
"252 894 QCURVE SMOOTH",
"246 884 OFFCURVE",
"234 860 OFFCURVE",
"228 850 QCURVE SMOOTH",
"216 828 OFFCURVE",
"198 778 OFFCURVE",
"188 752 QCURVE SMOOTH",
"162 684 OFFCURVE",
"116 534 OFFCURVE",
"98 456 QCURVE",
"94 446 OFFCURVE",
"90 428 OFFCURVE",
"84 402 QCURVE",
"76 298 OFFCURVE",
"96 228 QCURVE",
"92 222 OFFCURVE",
"102 216 OFFCURVE",
"112 200 QCURVE",
"116 190 OFFCURVE",
"126 170 OFFCURVE",
"132 162 QCURVE",
"136 152 OFFCURVE",
"148 136 OFFCURVE",
"152 106 QCURVE",
"158 96 OFFCURVE",
"158 76 QCURVE",
"168 62 OFFCURVE",
"176 22 OFFCURVE",
"186 8 QCURVE",
"224 -2 OFFCURVE",
"240 -32 QCURVE",
"256 -44 OFFCURVE",
"304 -64 OFFCURVE",
"356 -72 OFFCURVE",
"406 -62 OFFCURVE",
"428 -46 QCURVE",
"450 -38 OFFCURVE",
"488 -14 OFFCURVE",
"510 -8 QCURVE",
"532 14 OFFCURVE",
"566 24 QCURVE",
"570 30 OFFCURVE",
"586 38 QCURVE",
"606 20 OFFCURVE",
"630 -30 OFFCURVE",
"646 -64 QCURVE",
"656 -72 OFFCURVE",
"666 -96 OFFCURVE",
"676 -114 QCURVE",
"692 -124 OFFCURVE",
"704 -156 QCURVE",
"718 -170 OFFCURVE",
"742 -202 OFFCURVE",
"754 -218 QCURVE",
"778 -234 OFFCURVE",
"836 -262 OFFCURVE",
"872 -258 QCURVE SMOOTH",
"888 -256 OFFCURVE",
"924 -254 OFFCURVE",
"940 -256 QCURVE",
"950 -252 OFFCURVE",
"974 -252 OFFCURVE",
"990 -250 QCURVE SMOOTH",
"1000 -248 OFFCURVE",
"1028 -238 OFFCURVE",
"1042 -236 QCURVE",
"1046 -234 OFFCURVE",
"1054 -236 OFFCURVE",
"1074 -226 QCURVE SMOOTH",
"1082 -222 OFFCURVE",
"1092 -214 OFFCURVE",
"1112 -194 QCURVE",
"1124 -190 OFFCURVE",
"1136 -172 OFFCURVE",
"1146 -164 QCURVE",
"1150 -146 OFFCURVE",
"1156 -138 QCURVE",
"1154 -122 OFFCURVE",
"1104 -118 OFFCURVE",
"1088 -116 QCURVE SMOOTH",
"1064 -114 OFFCURVE",
"1028 -118 OFFCURVE",
"1006 -116 QCURVE SMOOTH",
"990 -114 OFFCURVE",
"954 -102 OFFCURVE",
"938 -100 QCURVE SMOOTH",
"922 -98 OFFCURVE",
"912 -82 OFFCURVE",
"898 -68 QCURVE",
"888 -70 OFFCURVE",
"874 -62 OFFCURVE",
"864 -48 OFFCURVE",
"854 -34 OFFCURVE",
"840 -34 QCURVE",
"832 -20 OFFCURVE"
);
},
{
closed = 1;
nodes = (
"632 266 OFFCURVE",
"616 254 QCURVE",
"610 258 OFFCURVE",
"600 262 OFFCURVE",
"578 274 QCURVE SMOOTH",
"570 278 OFFCURVE",
"540 288 OFFCURVE",
"526 292 QCURVE",
"512 294 OFFCURVE",
"488 292 OFFCURVE",
"474 292 QCURVE SMOOTH",
"462 292 OFFCURVE",
"444 294 OFFCURVE",
"424 290 QCURVE",
"416 284 OFFCURVE",
"398 284 QCURVE",
"370 280 OFFCURVE",
"314 266 OFFCURVE",
"288 260 QCURVE",
"282 268 OFFCURVE",
"276 288 OFFCURVE",
"270 294 QCURVE",
"272 310 OFFCURVE",
"262 334 OFFCURVE",
"262 348 QCURVE SMOOTH",
"260 370 OFFCURVE",
"268 426 OFFCURVE",
"270 452 QCURVE SMOOTH",
"274 480 OFFCURVE",
"276 526 OFFCURVE",
"280 548 QCURVE SMOOTH",
"284 566 OFFCURVE",
"296 598 OFFCURVE",
"300 614 QCURVE SMOOTH",
"306 646 OFFCURVE",
"316 702 OFFCURVE",
"324 730 QCURVE SMOOTH",
"332 760 OFFCURVE",
"354 814 OFFCURVE",
"366 842 QCURVE",
"370 846 OFFCURVE",
"376 856 OFFCURVE",
"380 860 QCURVE",
"380 868 OFFCURVE",
"390 872 OFFCURVE",
"396 886 QCURVE SMOOTH",
"408 914 OFFCURVE",
"440 960 OFFCURVE",
"452 988 QCURVE",
"462 998 OFFCURVE",
"476 1028 OFFCURVE",
"486 1038 QCURVE",
"490 1064 OFFCURVE",
"518 1088 OFFCURVE",
"528 1104 QCURVE",
"570 1138 OFFCURVE",
"656 1210 OFFCURVE",
"696 1246 QCURVE",
"708 1248 OFFCURVE",
"728 1268 OFFCURVE",
"740 1274 QCURVE",
"750 1282 OFFCURVE",
"770 1294 OFFCURVE",
"778 1304 QCURVE",
"790 1308 OFFCURVE",
"808 1322 OFFCURVE",
"828 1326 QCURVE",
"838 1322 OFFCURVE",
"860 1318 OFFCURVE",
"870 1314 QCURVE",
"882 1312 OFFCURVE",
"906 1312 OFFCURVE",
"916 1308 QCURVE",
"932 1308 OFFCURVE",
"970 1304 OFFCURVE",
"990 1278 QCURVE",
"994 1268 OFFCURVE",
"1004 1246 OFFCURVE",
"1008 1232 QCURVE SMOOTH",
"1018 1200 OFFCURVE",
"1010 1132 OFFCURVE",
"1002 1098 QCURVE SMOOTH",
"994 1060 OFFCURVE",
"982 994 OFFCURVE",
"970 960 QCURVE SMOOTH",
"966 948 OFFCURVE",
"956 926 OFFCURVE",
"952 914 QCURVE SMOOTH",
"948 904 OFFCURVE",
"942 878 OFFCURVE",
"938 866 QCURVE SMOOTH",
"928 836 OFFCURVE",
"900 776 OFFCURVE",
"890 746 QCURVE",
"880 736 OFFCURVE",
"878 720 QCURVE",
"872 708 OFFCURVE",
"860 682 OFFCURVE",
"852 666 QCURVE SMOOTH",
"842 650 OFFCURVE",
"828 608 OFFCURVE",
"818 590 QCURVE SMOOTH",
"814 582 OFFCURVE",
"808 572 OFFCURVE",
"808 566 QCURVE",
"798 550 OFFCURVE",
"786 518 OFFCURVE",
"770 490 QCURVE",
"764 476 OFFCURVE",
"756 446 OFFCURVE",
"750 434 QCURVE SMOOTH",
"746 424 OFFCURVE",
"734 406 OFFCURVE",
"730 396 QCURVE SMOOTH",
"722 378 OFFCURVE",
"706 354 OFFCURVE",
"696 340 QCURVE",
"690 334 OFFCURVE",
"682 320 OFFCURVE",
"670 306 QCURVE",
"654 296 OFFCURVE"
);
},
{
closed = 1;
nodes = (
"504 150 OFFCURVE",
"520 152 QCURVE",
"516 136 OFFCURVE",
"490 122 OFFCURVE",
"480 110 QCURVE",
"458 104 OFFCURVE",
"420 84 OFFCURVE",
"394 76 QCURVE",
"376 80 OFFCURVE",
"354 96 OFFCURVE",
"336 100 QCURVE",
"340 108 OFFCURVE",
"364 114 OFFCURVE",
"372 120 QCURVE",
"396 124 OFFCURVE",
"438 140 OFFCURVE",
"460 144 QCURVE",
"476 144 OFFCURVE"
);
}
);
width = 1094;
}
);
note = Q;
unicode = 0051;
},
{
glyphname = R;
layers = (
{
layerId = "F6DB7C97-1387-4B6F-ABF5-DF6BEF73745E";
paths = (
{
closed = 1;
nodes = (
"676 584 OFFCURVE",
"702 600 QCURVE",
"724 604 OFFCURVE",
"750 624 OFFCURVE",
"778 636 QCURVE SMOOTH",
"798 646 OFFCURVE",
"828 674 OFFCURVE",
"844 688 QCURVE",
"886 716 OFFCURVE",
"958 782 OFFCURVE",
"1004 808 QCURVE",
"1008 822 OFFCURVE",
"1032 834 OFFCURVE",
"1048 850 QCURVE",
"1058 858 OFFCURVE",
"1082 874 OFFCURVE",
"1090 882 QCURVE",
"1098 886 OFFCURVE",
"1114 894 OFFCURVE",
"1122 898 QCURVE",
"1138 910 OFFCURVE",
"1182 934 OFFCURVE",
"1208 954 QCURVE",
"1210 962 OFFCURVE",
"1220 968 OFFCURVE",
"1226 972 QCURVE",
"1242 994 OFFCURVE",
"1270 1034 OFFCURVE",
"1282 1054 QCURVE",
"1292 1076 OFFCURVE",
"1312 1110 OFFCURVE",
"1316 1134 QCURVE SMOOTH",
"1320 1168 OFFCURVE",
"1314 1234 OFFCURVE",
"1312 1268 QCURVE SMOOTH",
"1312 1274 OFFCURVE",
"1306 1286 OFFCURVE",
"1306 1294 QCURVE",
"1304 1304 OFFCURVE",
"1302 1322 OFFCURVE",
"1300 1332 QCURVE SMOOTH",
"1298 1354 OFFCURVE",
"1300 1378 OFFCURVE",
"1286 1394 QCURVE",
"1270 1402 OFFCURVE",
"1242 1416 OFFCURVE",
"1226 1424 QCURVE SMOOTH",
"1206 1432 OFFCURVE",
"1160 1442 OFFCURVE",
"1148 1454 QCURVE",
"1132 1458 OFFCURVE",
"1102 1464 OFFCURVE",
"1086 1468 QCURVE SMOOTH",
"1074 1470 OFFCURVE",
"1044 1468 OFFCURVE",
"1036 1474 QCURVE",
"1006 1472 OFFCURVE",
"956 1470 OFFCURVE",
"928 1466 QCURVE",
"872 1446 OFFCURVE",
"764 1408 OFFCURVE",
"700 1396 QCURVE",
"678 1386 OFFCURVE",
"626 1372 OFFCURVE",
"588 1360 QCURVE SMOOTH",
"550 1346 OFFCURVE",
"518 1318 QCURVE",
"466 1280 OFFCURVE",
"418 1248 QCURVE",
"410 1244 OFFCURVE",
"396 1232 OFFCURVE",
"370 1214 QCURVE SMOOTH",
"342 1196 OFFCURVE",
"282 1158 OFFCURVE",
"256 1134 QCURVE",
"240 1106 OFFCURVE",
"204 1050 OFFCURVE",
"212 992 QCURVE",
"224 976 OFFCURVE",
"268 980 OFFCURVE",
"282 986 QCURVE",
"292 992 OFFCURVE",
"314 1006 OFFCURVE",
"324 1010 QCURVE",
"356 1054 OFFCURVE",
"440 1114 OFFCURVE",
"490 1138 QCURVE",
"494 1142 OFFCURVE",
"502 1150 OFFCURVE",
"506 1156 QCURVE",
"524 1162 OFFCURVE",
"558 1194 OFFCURVE",
"580 1198 QCURVE",
"558 1152 OFFCURVE",
"516 1066 OFFCURVE",
"490 1016 QCURVE",
"490 1012 OFFCURVE",
"486 1008 OFFCURVE",
"474 990 QCURVE",
"464 962 OFFCURVE",
"430 912 OFFCURVE",
"420 882 QCURVE",
"412 866 OFFCURVE",
"394 840 OFFCURVE",
"386 826 QCURVE SMOOTH",
"382 820 OFFCURVE",
"376 804 OFFCURVE",
"364 790 QCURVE",
"360 782 OFFCURVE",
"358 766 OFFCURVE",
"354 756 QCURVE SMOOTH",
"338 716 OFFCURVE",
"316 676 QCURVE",
"308 668 OFFCURVE",
"300 644 OFFCURVE",
"292 632 QCURVE",
"284 628 OFFCURVE",
"276 608 OFFCURVE",
"268 604 QCURVE",
"266 596 OFFCURVE",
"258 586 OFFCURVE",
"254 580 QCURVE",
"234 540 OFFCURVE",
"192 470 OFFCURVE",
"176 428 QCURVE",
"166 412 OFFCURVE",
"154 378 OFFCURVE",
"142 350 QCURVE SMOOTH",
"136 338 OFFCURVE",
"120 316 OFFCURVE",
"116 304 QCURVE SMOOTH",
"110 288 OFFCURVE",
"100 264 OFFCURVE",
"96 252 QCURVE",
"86 232 OFFCURVE",
"76 198 OFFCURVE",
"70 182 QCURVE SMOOTH",
"66 172 OFFCURVE",
"64 150 OFFCURVE",
"60 140 QCURVE SMOOTH",
"58 136 OFFCURVE",
"52 124 OFFCURVE",
"48 120 QCURVE",
"44 106 OFFCURVE",
"32 98 QCURVE",
"22 88 OFFCURVE",
"18 70 QCURVE",
"6 50 OFFCURVE",
"-16 6 OFFCURVE",
"-26 -16 QCURVE",
"-36 -24 OFFCURVE",
"-46 -58 OFFCURVE",
"-28 -62 QCURVE SMOOTH",
"0 -66 OFFCURVE",
"54 -36 OFFCURVE",
"78 -30 QCURVE SMOOTH",
"94 -26 OFFCURVE",
"106 -22 QCURVE SMOOTH",
"136 -14 OFFCURVE",
"202 -2 OFFCURVE",
"212 26 QCURVE",
"216 42 OFFCURVE",
"226 66 OFFCURVE",
"226 82 QCURVE SMOOTH",
"224 98 OFFCURVE",
"236 130 OFFCURVE",
"240 148 QCURVE",
"252 182 OFFCURVE",
"280 254 OFFCURVE",
"290 290 QCURVE",
"306 304 OFFCURVE",
"310 332 QCURVE",
"326 362 OFFCURVE",
"332 402 QCURVE",
"344 422 OFFCURVE",
"356 464 OFFCURVE",
"378 500 QCURVE SMOOTH",
"386 512 OFFCURVE",
"402 560 OFFCURVE",
"412 570 QCURVE",
"418 566 OFFCURVE",
"420 554 OFFCURVE",
"424 544 QCURVE",
"440 514 OFFCURVE",
"484 434 OFFCURVE",
"496 404 QCURVE",
"500 384 OFFCURVE",
"518 342 OFFCURVE",
"524 304 QCURVE SMOOTH",
"528 278 OFFCURVE",
"542 232 OFFCURVE",
"550 210 QCURVE",
"552 196 OFFCURVE",
"566 178 OFFCURVE",
"570 166 QCURVE SMOOTH",
"576 150 OFFCURVE",
"584 116 OFFCURVE",
"588 98 QCURVE SMOOTH",
"592 84 OFFCURVE",
"600 56 OFFCURVE",
"606 46 QCURVE SMOOTH",
"610 38 OFFCURVE",
"622 30 OFFCURVE",
"630 12 QCURVE SMOOTH",
"634 4 OFFCURVE",
"644 -12 OFFCURVE",
"652 -26 QCURVE SMOOTH",
"674 -62 OFFCURVE",
"726 -122 OFFCURVE",
"754 -154 QCURVE",
"776 -164 OFFCURVE",
"812 -192 OFFCURVE",
"834 -202 QCURVE",
"862 -218 OFFCURVE",
"914 -246 OFFCURVE",
"958 -264 QCURVE SMOOTH",
"974 -270 OFFCURVE",
"1014 -266 OFFCURVE",
"1036 -266 QCURVE",
"1076 -270 OFFCURVE",
"1132 -282 OFFCURVE",
"1166 -280 QCURVE",
"1176 -288 OFFCURVE",
"1206 -286 OFFCURVE",
"1218 -286 QCURVE",
"1224 -276 OFFCURVE",
"1252 -272 OFFCURVE",
"1266 -270 QCURVE",
"1268 -264 OFFCURVE",
"1274 -256 OFFCURVE",
"1254 -240 QCURVE SMOOTH",
"1246 -234 OFFCURVE",
"1240 -220 OFFCURVE",
"1234 -216 QCURVE",
"1214 -214 OFFCURVE",
"1190 -196 OFFCURVE",
"1176 -174 OFFCURVE",
"1166 -156 OFFCURVE",
"1150 -148 QCURVE",
"1140 -148 OFFCURVE",
"1110 -140 OFFCURVE",
"1100 -136 QCURVE SMOOTH",
"1078 -128 OFFCURVE",
"1030 -116 OFFCURVE",
"996 -100 QCURVE",
"988 -102 OFFCURVE",
"972 -96 OFFCURVE",
"964 -94 QCURVE",
"958 -90 OFFCURVE",
"948 -78 OFFCURVE",
"940 -74 QCURVE SMOOTH",
"930 -70 OFFCURVE",
"912 -66 OFFCURVE",
"902 -62 QCURVE SMOOTH",
"892 -58 OFFCURVE",
"880 -48 OFFCURVE",
"872 -44 QCURVE SMOOTH",
"860 -36 OFFCURVE",
"840 -24 OFFCURVE",
"830 -18 QCURVE",
"810 16 OFFCURVE",
"770 84 OFFCURVE",
"754 122 QCURVE",
"750 156 OFFCURVE",
"716 198 OFFCURVE",
"712 232 QCURVE",
"692 274 OFFCURVE",
"650 368 OFFCURVE",
"636 418 QCURVE SMOOTH",
"632 430 OFFCURVE",
"632 454 OFFCURVE",
"624 464 QCURVE",
"618 494 OFFCURVE",
"588 536 OFFCURVE",
"576 560 QCURVE",
"610 564 OFFCURVE"
);
},
{
closed = 1;
nodes = (
"1072 1340 OFFCURVE",
"1082 1336 QCURVE",
"1096 1338 OFFCURVE",
"1108 1330 OFFCURVE",
"1116 1326 QCURVE",
"1120 1314 OFFCURVE",
"1130 1298 OFFCURVE",
"1134 1282 QCURVE",
"1140 1270 OFFCURVE",
"1164 1248 OFFCURVE",
"1168 1234 QCURVE SMOOTH",
"1172 1220 OFFCURVE",
"1150 1186 OFFCURVE",
"1154 1170 QCURVE",
"1144 1150 OFFCURVE",
"1134 1118 OFFCURVE",
"1124 1102 QCURVE SMOOTH",
"1112 1080 OFFCURVE",
"1066 1046 OFFCURVE",
"1050 1024 QCURVE",
"1040 1024 OFFCURVE",
"1036 1014 OFFCURVE",
"1026 1012 QCURVE",
"1006 992 OFFCURVE",
"970 946 OFFCURVE",
"948 928 QCURVE",
"938 914 OFFCURVE",
"902 894 OFFCURVE",
"886 880 QCURVE",
"864 872 OFFCURVE",
"832 854 OFFCURVE",
"802 838 QCURVE",
"772 816 OFFCURVE",
"708 778 OFFCURVE",
"670 756 QCURVE",
"626 726 OFFCURVE",
"518 688 OFFCURVE",
"472 662 QCURVE SMOOTH",
"466 658 OFFCURVE",
"450 650 OFFCURVE",
"442 656 QCURVE",
"446 664 OFFCURVE",
"456 676 OFFCURVE",
"456 686 QCURVE",
"482 724 OFFCURVE",
"500 764 QCURVE SMOOTH",
"508 780 OFFCURVE",
"522 810 OFFCURVE",
"530 826 QCURVE",
"546 840 OFFCURVE",
"560 876 OFFCURVE",
"576 900 QCURVE",
"598 922 OFFCURVE",
"628 982 OFFCURVE",
"652 1006 QCURVE",
"652 1010 OFFCURVE",
"656 1012 OFFCURVE",
"666 1024 QCURVE",
"680 1050 OFFCURVE",
"706 1084 QCURVE",
"716 1106 OFFCURVE",
"736 1156 OFFCURVE",
"758 1182 QCURVE",
"764 1198 OFFCURVE",
"788 1232 OFFCURVE",
"796 1252 QCURVE",
"800 1258 OFFCURVE",
"802 1278 OFFCURVE",
"806 1282 QCURVE",
"814 1286 OFFCURVE",
"852 1298 OFFCURVE",
"884 1306 QCURVE SMOOTH",
"908 1310 OFFCURVE",
"956 1330 OFFCURVE",
"976 1334 QCURVE SMOOTH",
"990 1338 OFFCURVE",
"1014 1338 OFFCURVE",
"1022 1340 QCURVE",
"1038 1338 OFFCURVE"
);
}
);
width = 1104;
}
);
note = R;
unicode = 0052;
},
{
glyphname = S;
layers = (
{
layerId = "F6DB7C97-1387-4B6F-ABF5-DF6BEF73745E";
paths = (
{
closed = 1;
nodes = (
"372 1150 OFFCURVE",
"368 1128 OFFCURVE",
"358 1124 QCURVE",
"350 1100 OFFCURVE",
"326 1044 OFFCURVE",
"316 1016 QCURVE",
"310 988 OFFCURVE",
"334 952 OFFCURVE",
"330 928 QCURVE",
"336 900 OFFCURVE",
"356 854 OFFCURVE",
"372 836 QCURVE",
"376 824 OFFCURVE",
"394 808 OFFCURVE",
"400 798 QCURVE",
"410 788 OFFCURVE",
"420 764 OFFCURVE",
"428 754 QCURVE SMOOTH",
"434 746 OFFCURVE",
"450 730 QCURVE",
"460 716 OFFCURVE",
"476 692 OFFCURVE",
"488 682 QCURVE",
"494 666 OFFCURVE",
"506 652 QCURVE",
"510 640 OFFCURVE",
"516 626 OFFCURVE",
"520 616 QCURVE",
"536 612 OFFCURVE",
"546 580 OFFCURVE",
"558 570 QCURVE",
"564 538 OFFCURVE",
"604 506 OFFCURVE",
"618 484 QCURVE SMOOTH",
"622 476 OFFCURVE",
"628 458 OFFCURVE",
"642 434 QCURVE",
"646 430 OFFCURVE",
"644 420 OFFCURVE",
"656 398 QCURVE",
"656 392 OFFCURVE",
"656 378 OFFCURVE",
"654 370 QCURVE SMOOTH",
"648 336 OFFCURVE",
"624 272 OFFCURVE",
"606 250 QCURVE",
"596 234 OFFCURVE",
"568 208 OFFCURVE",
"552 198 QCURVE",
"506 176 OFFCURVE",
"410 128 OFFCURVE",
"364 106 QCURVE",
"352 102 OFFCURVE",
"320 90 OFFCURVE",
"310 92 QCURVE",
"300 92 OFFCURVE",
"250 108 OFFCURVE",
"238 112 QCURVE SMOOTH",
"210 122 OFFCURVE",
"190 134 QCURVE",
"182 136 OFFCURVE",
"174 138 OFFCURVE",
"168 142 QCURVE",
"162 150 OFFCURVE",
"150 164 OFFCURVE",
"142 172 QCURVE",
"142 182 OFFCURVE",
"130 200 OFFCURVE",
"126 210 QCURVE",
"120 240 OFFCURVE",
"134 270 QCURVE SMOOTH",
"138 278 OFFCURVE",
"142 298 OFFCURVE",
"146 304 QCURVE",
"154 312 OFFCURVE",
"170 318 QCURVE SMOOTH",
"204 334 OFFCURVE",
"274 370 OFFCURVE",
"310 386 QCURVE SMOOTH",
"328 394 OFFCURVE",
"374 406 OFFCURVE",
"392 392 QCURVE",
"400 372 OFFCURVE",
"372 348 OFFCURVE",
"362 336 QCURVE SMOOTH",
"346 320 OFFCURVE",
"316 288 OFFCURVE",
"296 278 QCURVE SMOOTH",
"274 266 OFFCURVE",
"228 256 OFFCURVE",
"216 236 QCURVE",
"212 224 OFFCURVE",
"222 200 OFFCURVE",
"232 196 QCURVE SMOOTH",
"242 192 OFFCURVE",
"262 204 OFFCURVE",
"272 206 QCURVE",
"282 210 OFFCURVE",
"306 206 OFFCURVE",
"316 208 QCURVE SMOOTH",
"338 214 OFFCURVE",
"370 232 OFFCURVE",
"390 230 QCURVE",
"424 254 OFFCURVE",
"452 264 QCURVE",
"468 286 OFFCURVE",
"506 318 OFFCURVE",
"508 348 QCURVE SMOOTH",
"508 360 OFFCURVE",
"502 396 OFFCURVE",
"498 406 QCURVE SMOOTH",
"492 424 OFFCURVE",
"474 458 OFFCURVE",
"460 472 QCURVE",
"446 472 OFFCURVE",
"430 488 OFFCURVE",
"420 492 QCURVE SMOOTH",
"410 496 OFFCURVE",
"386 496 OFFCURVE",
"376 496 QCURVE SMOOTH",
"370 496 OFFCURVE",
"358 498 OFFCURVE",
"354 498 QCURVE SMOOTH",
"340 498 OFFCURVE",
"318 486 OFFCURVE",
"306 486 QCURVE",
"288 476 OFFCURVE",
"250 460 OFFCURVE",
"232 450 QCURVE SMOOTH",
"210 440 OFFCURVE",
"170 428 OFFCURVE",
"152 418 QCURVE SMOOTH",
"144 414 OFFCURVE",
"130 406 OFFCURVE",
"120 402 QCURVE SMOOTH",
"96 390 OFFCURVE",
"50 364 OFFCURVE",
"16 348 QCURVE",
"4 332 OFFCURVE",
"-12 306 OFFCURVE",
"-16 280 QCURVE",
"-10 270 OFFCURVE",
"-20 234 OFFCURVE",
"-20 216 QCURVE SMOOTH",
"-20 204 OFFCURVE",
"-16 172 OFFCURVE",
"-18 158 QCURVE",
"-10 146 OFFCURVE",
"-16 120 OFFCURVE",
"-12 108 QCURVE SMOOTH",
"-10 100 OFFCURVE",
"2 80 OFFCURVE",
"8 70 QCURVE SMOOTH",
"26 38 OFFCURVE",
"56 14 QCURVE",
"62 8 OFFCURVE",
"74 0 OFFCURVE",
"96 -18 QCURVE SMOOTH",
"104 -24 OFFCURVE",
"106 -36 OFFCURVE",
"116 -40 QCURVE",
"132 -58 OFFCURVE",
"174 -54 OFFCURVE",
"212 -68 QCURVE",
"246 -76 OFFCURVE",
"310 -74 OFFCURVE",
"338 -68 QCURVE",
"348 -64 OFFCURVE",
"362 -56 OFFCURVE",
"372 -52 QCURVE SMOOTH",
"384 -48 OFFCURVE",
"406 -40 OFFCURVE",
"416 -36 QCURVE SMOOTH",
"428 -32 OFFCURVE",
"452 -26 OFFCURVE",
"464 -26 QCURVE",
"496 -4 OFFCURVE",
"570 22 OFFCURVE",
"604 52 QCURVE SMOOTH",
"616 64 OFFCURVE",
"646 80 OFFCURVE",
"660 90 QCURVE SMOOTH",
"674 102 OFFCURVE",
"702 126 OFFCURVE",
"714 142 QCURVE",
"732 176 OFFCURVE",
"780 228 OFFCURVE",
"798 260 QCURVE",
"802 278 OFFCURVE",
"810 290 OFFCURVE",
"818 300 OFFCURVE",
"822 316 OFFCURVE",
"822 336 QCURVE SMOOTH",
"824 354 OFFCURVE",
"814 408 OFFCURVE",
"806 426 QCURVE SMOOTH",
"802 438 OFFCURVE",
"786 462 OFFCURVE",
"780 478 QCURVE",
"766 506 OFFCURVE",
"758 530 QCURVE SMOOTH",
"752 544 OFFCURVE",
"738 570 OFFCURVE",
"734 584 QCURVE",
"712 604 OFFCURVE",
"690 658 OFFCURVE",
"678 686 QCURVE",
"650 732 OFFCURVE",
"604 834 OFFCURVE",
"576 880 QCURVE",
"566 902 OFFCURVE",
"544 936 OFFCURVE",
"542 958 QCURVE",
"532 978 OFFCURVE",
"514 1018 OFFCURVE",
"496 1054 QCURVE",
"500 1072 OFFCURVE",
"512 1098 OFFCURVE",
"516 1114 QCURVE",
"526 1124 OFFCURVE",
"534 1158 OFFCURVE",
"546 1164 QCURVE",
"550 1180 OFFCURVE",
"572 1206 OFFCURVE",
"582 1220 QCURVE SMOOTH",
"592 1232 OFFCURVE",
"606 1256 OFFCURVE",
"616 1264 QCURVE SMOOTH",
"620 1268 OFFCURVE",
"636 1276 OFFCURVE",
"642 1280 QCURVE",
"700 1328 OFFCURVE",
"768 1364 QCURVE",
"796 1376 OFFCURVE",
"852 1400 OFFCURVE",
"902 1410 QCURVE",
"904 1410 OFFCURVE",
"930 1406 OFFCURVE",
"934 1406 QCURVE",
"944 1402 OFFCURVE",
"958 1382 OFFCURVE",
"968 1378 QCURVE",
"972 1364 OFFCURVE",
"992 1344 OFFCURVE",
"1010 1322 OFFCURVE",
"1024 1300 OFFCURVE",
"1022 1282 QCURVE",
"1012 1276 OFFCURVE",
"1000 1256 OFFCURVE",
"992 1246 QCURVE",
"986 1234 OFFCURVE",
"960 1210 OFFCURVE",
"948 1200 QCURVE",
"904 1156 OFFCURVE",
"848 1130 QCURVE SMOOTH",
"836 1124 OFFCURVE",
"794 1100 OFFCURVE",
"778 1104 QCURVE SMOOTH",
"768 1106 OFFCURVE",
"748 1118 OFFCURVE",
"742 1122 QCURVE",
"786 1194 OFFCURVE",
"842 1242 QCURVE",
"844 1254 OFFCURVE",
"860 1264 OFFCURVE",
"878 1270 OFFCURVE",
"898 1276 OFFCURVE",
"904 1284 QCURVE",
"904 1294 OFFCURVE",
"908 1310 OFFCURVE",
"900 1316 QCURVE SMOOTH",
"894 1320 OFFCURVE",
"882 1312 OFFCURVE",
"876 1316 QCURVE",
"864 1312 OFFCURVE",
"836 1304 OFFCURVE",
"822 1300 QCURVE SMOOTH",
"778 1290 OFFCURVE",
"720 1238 OFFCURVE",
"692 1208 QCURVE",
"682 1192 OFFCURVE",
"666 1158 OFFCURVE",
"656 1140 QCURVE SMOOTH",
"648 1126 OFFCURVE",
"626 1094 OFFCURVE",
"622 1078 QCURVE SMOOTH",
"612 1044 OFFCURVE",
"636 1024 QCURVE",
"638 1000 OFFCURVE",
"684 974 OFFCURVE",
"710 978 QCURVE",
"718 992 OFFCURVE",
"738 982 OFFCURVE",
"748 978 QCURVE",
"762 976 OFFCURVE",
"780 988 OFFCURVE",
"790 992 QCURVE SMOOTH",
"812 1000 OFFCURVE",
"846 1020 OFFCURVE",
"868 1030 QCURVE",
"874 1036 OFFCURVE",
"888 1044 OFFCURVE",
"910 1058 QCURVE SMOOTH",
"932 1074 OFFCURVE",
"984 1100 OFFCURVE",
"1002 1122 QCURVE",
"1018 1128 OFFCURVE",
"1038 1152 OFFCURVE",
"1054 1160 QCURVE",
"1056 1170 OFFCURVE",
"1072 1176 OFFCURVE",
"1078 1180 QCURVE",
"1106 1208 LINE SMOOTH",
"1118 1220 OFFCURVE",
"1138 1242 OFFCURVE",
"1160 1256 QCURVE",
"1162 1260 OFFCURVE",
"1166 1260 OFFCURVE",
"1178 1278 QCURVE",
"1178 1326 OFFCURVE",
"1138 1394 OFFCURVE",
"1122 1428 QCURVE",
"1114 1434 OFFCURVE",
"1100 1446 OFFCURVE",
"1092 1450 QCURVE",
"1086 1456 OFFCURVE",
"1072 1470 OFFCURVE",
"1062 1474 QCURVE SMOOTH",
"1052 1478 OFFCURVE",
"1030 1482 OFFCURVE",
"1018 1486 QCURVE SMOOTH",
"1004 1490 OFFCURVE",
"982 1502 OFFCURVE",
"966 1500 QCURVE SMOOTH",
"962 1500 OFFCURVE",
"952 1496 OFFCURVE",
"930 1500 QCURVE SMOOTH",
"918 1502 OFFCURVE",
"890 1490 OFFCURVE",
"880 1486 QCURVE SMOOTH",
"854 1478 OFFCURVE",
"798 1462 OFFCURVE",
"770 1452 QCURVE SMOOTH",
"758 1448 OFFCURVE",
"734 1434 OFFCURVE",
"718 1430 QCURVE SMOOTH",
"696 1424 OFFCURVE",
"662 1408 OFFCURVE",
"644 1400 QCURVE",
"628 1388 OFFCURVE",
"594 1374 OFFCURVE",
"566 1354 QCURVE",
"524 1334 OFFCURVE",
"460 1272 OFFCURVE",
"420 1250 QCURVE",
"410 1234 OFFCURVE",
"406 1208 OFFCURVE",
"396 1192 QCURVE SMOOTH",
"376 1160 LINE"
);
}
);
width = 962;
}
);
note = S;
unicode = 0053;
},
{
glyphname = T;
layers = (
{
layerId = "F6DB7C97-1387-4B6F-ABF5-DF6BEF73745E";
paths = (
{
closed = 1;
nodes = (
"1264 1486 OFFCURVE",
"1230 1496 OFFCURVE",
"1220 1498 QCURVE SMOOTH",
"1204 1500 OFFCURVE",
"1180 1500 OFFCURVE",
"1168 1502 QCURVE SMOOTH",
"1128 1506 OFFCURVE",
"1092 1496 OFFCURVE",
"1058 1492 QCURVE SMOOTH",
"1018 1486 OFFCURVE",
"956 1474 OFFCURVE",
"896 1464 OFFCURVE",
"832 1452 OFFCURVE",
"794 1444 QCURVE",
"788 1436 OFFCURVE",
"768 1436 OFFCURVE",
"756 1434 QCURVE",
"750 1432 OFFCURVE",
"734 1430 OFFCURVE",
"720 1426 QCURVE",
"688 1422 OFFCURVE",
"616 1412 OFFCURVE",
"580 1414 QCURVE SMOOTH",
"548 1416 OFFCURVE",
"514 1414 OFFCURVE",
"486 1410 QCURVE SMOOTH",
"458 1404 OFFCURVE",
"406 1392 OFFCURVE",
"386 1388 QCURVE",
"382 1388 OFFCURVE",
"380 1390 OFFCURVE",
"360 1380 QCURVE",
"326 1372 OFFCURVE",
"284 1360 OFFCURVE",
"250 1354 QCURVE",
"240 1344 OFFCURVE",
"214 1340 OFFCURVE",
"198 1336 QCURVE",
"198 1330 OFFCURVE",
"190 1322 OFFCURVE",
"188 1316 QCURVE SMOOTH",
"184 1300 OFFCURVE",
"188 1284 QCURVE SMOOTH",
"190 1274 OFFCURVE",
"206 1278 OFFCURVE",
"210 1270 QCURVE SMOOTH",
"222 1250 OFFCURVE",
"256 1216 OFFCURVE",
"278 1212 QCURVE",
"288 1220 OFFCURVE",
"310 1216 OFFCURVE",
"320 1220 QCURVE",
"340 1224 OFFCURVE",
"350 1242 OFFCURVE",
"376 1246 QCURVE SMOOTH",
"394 1250 OFFCURVE",
"440 1264 OFFCURVE",
"456 1262 QCURVE SMOOTH",
"466 1262 OFFCURVE",
"482 1258 OFFCURVE",
"490 1258 QCURVE",
"502 1256 OFFCURVE",
"508 1262 OFFCURVE",
"518 1262 QCURVE",
"542 1258 OFFCURVE",
"606 1260 OFFCURVE",
"634 1260 QCURVE",
"610 1214 OFFCURVE",
"566 1120 OFFCURVE",
"540 1074 QCURVE",
"530 1052 OFFCURVE",
"512 984 OFFCURVE",
"502 962 QCURVE SMOOTH",
"492 938 OFFCURVE",
"466 892 OFFCURVE",
"458 866 QCURVE",
"448 852 OFFCURVE",
"430 826 OFFCURVE",
"426 806 QCURVE",
"416 796 OFFCURVE",
"404 768 OFFCURVE",
"398 752 QCURVE SMOOTH",
"396 744 OFFCURVE",
"388 732 QCURVE SMOOTH",
"382 722 OFFCURVE",
"376 704 OFFCURVE",
"366 686 QCURVE SMOOTH",
"356 670 OFFCURVE",
"338 642 OFFCURVE",
"328 626 QCURVE",
"328 614 OFFCURVE",
"310 596 OFFCURVE",
"308 584 QCURVE SMOOTH",
"306 574 OFFCURVE",
"312 556 OFFCURVE",
"308 544 QCURVE SMOOTH",
"304 532 OFFCURVE",
"290 514 OFFCURVE",
"286 502 QCURVE",
"268 474 OFFCURVE",
"240 416 OFFCURVE",
"224 386 QCURVE SMOOTH",
"214 370 OFFCURVE",
"198 342 OFFCURVE",
"192 326 QCURVE SMOOTH",
"188 316 OFFCURVE",
"184 302 OFFCURVE",
"180 292 QCURVE SMOOTH",
"176 282 OFFCURVE",
"170 268 OFFCURVE",
"166 260 QCURVE SMOOTH",
"152 228 OFFCURVE",
"130 164 OFFCURVE",
"108 118 QCURVE",
"92 114 OFFCURVE",
"80 86 OFFCURVE",
"82 72 QCURVE SMOOTH",
"84 44 OFFCURVE",
"120 10 OFFCURVE",
"142 -16 QCURVE SMOOTH",
"150 -24 OFFCURVE",
"170 -40 OFFCURVE",
"180 -44 QCURVE",
"188 -44 OFFCURVE",
"204 -38 OFFCURVE",
"224 -38 QCURVE",
"230 -36 OFFCURVE",
"248 -14 OFFCURVE",
"252 -4 QCURVE SMOOTH",
"254 4 OFFCURVE",
"254 22 OFFCURVE",
"254 30 QCURVE",
"266 48 OFFCURVE",
"284 88 OFFCURVE",
"294 110 QCURVE",
"300 120 OFFCURVE",
"314 138 OFFCURVE",
"324 162 QCURVE SMOOTH",
"328 174 OFFCURVE",
"344 196 OFFCURVE",
"358 230 QCURVE SMOOTH",
"366 246 OFFCURVE",
"386 284 OFFCURVE",
"382 300 QCURVE",
"386 308 OFFCURVE",
"394 324 OFFCURVE",
"394 334 QCURVE",
"404 348 OFFCURVE",
"412 382 OFFCURVE",
"428 414 QCURVE",
"430 420 OFFCURVE",
"430 432 OFFCURVE",
"442 454 QCURVE",
"446 458 OFFCURVE",
"446 474 OFFCURVE",
"452 482 QCURVE",
"456 492 OFFCURVE",
"464 516 OFFCURVE",
"468 526 QCURVE",
"480 538 OFFCURVE",
"482 544 QCURVE SMOOTH",
"488 558 OFFCURVE",
"498 588 OFFCURVE",
"508 598 QCURVE",
"508 604 OFFCURVE",
"514 610 OFFCURVE",
"524 632 QCURVE SMOOTH",
"550 694 OFFCURVE",
"606 810 OFFCURVE",
"622 878 QCURVE",
"632 900 OFFCURVE",
"660 938 OFFCURVE",
"668 964 QCURVE",
"686 994 OFFCURVE",
"718 1088 OFFCURVE",
"736 1118 QCURVE SMOOTH",
"744 1130 OFFCURVE",
"762 1152 OFFCURVE",
"766 1168 QCURVE",
"776 1176 OFFCURVE",
"788 1198 OFFCURVE",
"794 1208 QCURVE",
"808 1220 OFFCURVE",
"824 1256 OFFCURVE",
"836 1270 QCURVE",
"834 1276 OFFCURVE",
"842 1286 OFFCURVE",
"844 1292 QCURVE",
"854 1298 OFFCURVE",
"876 1302 OFFCURVE",
"892 1306 QCURVE SMOOTH",
"902 1308 OFFCURVE",
"922 1314 OFFCURVE",
"928 1310 QCURVE",
"936 1314 OFFCURVE",
"946 1318 OFFCURVE",
"960 1320 QCURVE",
"970 1324 OFFCURVE",
"974 1328 OFFCURVE",
"984 1326 QCURVE",
"990 1332 OFFCURVE",
"1008 1332 OFFCURVE",
"1018 1336 QCURVE",
"1028 1338 OFFCURVE",
"1036 1342 OFFCURVE",
"1044 1344 QCURVE SMOOTH",
"1068 1350 OFFCURVE",
"1090 1354 OFFCURVE",
"1114 1354 QCURVE SMOOTH",
"1148 1352 OFFCURVE",
"1192 1352 OFFCURVE",
"1226 1366 QCURVE SMOOTH",
"1236 1370 OFFCURVE",
"1246 1388 OFFCURVE",
"1266 1404 QCURVE",
"1272 1414 OFFCURVE",
"1294 1440 OFFCURVE",
"1296 1450 QCURVE SMOOTH",
"1300 1472 OFFCURVE",
"1290 1488 QCURVE",
"1278 1492 LINE"
);
}
);
width = 774;
}
);
note = T;
unicode = 0054;
},
{
glyphname = U;
layers = (
{
layerId = "F6DB7C97-1387-4B6F-ABF5-DF6BEF73745E";
paths = (
{
closed = 1;
nodes = (
"898 228 OFFCURVE",
"898 274 QCURVE",
"906 326 OFFCURVE",
"942 414 OFFCURVE",
"948 464 QCURVE",
"958 492 OFFCURVE",
"980 542 OFFCURVE",
"988 574 QCURVE",
"1012 632 OFFCURVE",
"1060 754 OFFCURVE",
"1088 812 QCURVE",
"1086 820 OFFCURVE",
"1094 828 OFFCURVE",
"1098 834 QCURVE",
"1102 844 OFFCURVE",
"1110 862 OFFCURVE",
"1114 872 QCURVE SMOOTH",
"1118 882 OFFCURVE",
"1128 900 OFFCURVE",
"1132 908 QCURVE SMOOTH",
"1134 912 OFFCURVE",
"1134 918 OFFCURVE",
"1146 938 QCURVE SMOOTH",
"1164 972 OFFCURVE",
"1200 1034 OFFCURVE",
"1216 1068 QCURVE SMOOTH",
"1232 1104 OFFCURVE",
"1274 1170 OFFCURVE",
"1292 1204 QCURVE SMOOTH",
"1308 1240 OFFCURVE",
"1348 1308 OFFCURVE",
"1372 1338 QCURVE",
"1382 1362 OFFCURVE",
"1410 1398 OFFCURVE",
"1422 1422 QCURVE",
"1434 1428 OFFCURVE",
"1440 1454 OFFCURVE",
"1436 1470 QCURVE",
"1424 1484 OFFCURVE",
"1410 1496 QCURVE",
"1394 1498 OFFCURVE",
"1376 1490 OFFCURVE",
"1364 1486 QCURVE SMOOTH",
"1342 1478 OFFCURVE",
"1296 1466 OFFCURVE",
"1272 1456 QCURVE",
"1268 1446 OFFCURVE",
"1264 1432 OFFCURVE",
"1250 1410 QCURVE",
"1240 1388 LINE",
"1236 1384 OFFCURVE",
"1232 1376 OFFCURVE",
"1220 1362 QCURVE",
"1210 1346 OFFCURVE",
"1190 1340 QCURVE",
"1140 1290 OFFCURVE",
"1106 1236 QCURVE",
"1080 1180 OFFCURVE",
"1022 1072 OFFCURVE",
"994 1020 QCURVE SMOOTH",
"988 1008 OFFCURVE",
"974 982 OFFCURVE",
"962 962 QCURVE",
"958 944 OFFCURVE",
"940 916 OFFCURVE",
"936 894 QCURVE",
"898 828 OFFCURVE",
"844 680 OFFCURVE",
"818 604 QCURVE",
"814 600 OFFCURVE",
"804 592 OFFCURVE",
"800 588 QCURVE SMOOTH",
"772 566 OFFCURVE",
"718 520 OFFCURVE",
"700 486 QCURVE",
"690 480 OFFCURVE",
"680 468 QCURVE",
"634 436 OFFCURVE",
"552 362 OFFCURVE",
"506 332 QCURVE SMOOTH",
"470 308 OFFCURVE",
"408 252 OFFCURVE",
"374 228 QCURVE",
"370 224 OFFCURVE",
"360 204 OFFCURVE",
"354 202 QCURVE SMOOTH",
"326 192 OFFCURVE",
"284 154 OFFCURVE",
"262 138 QCURVE",
"256 142 OFFCURVE",
"244 152 OFFCURVE",
"238 158 QCURVE SMOOTH",
"232 164 OFFCURVE",
"220 186 OFFCURVE",
"202 204 QCURVE",
"192 230 OFFCURVE",
"216 264 OFFCURVE",
"216 282 QCURVE",
"238 352 OFFCURVE",
"286 484 OFFCURVE",
"320 546 QCURVE",
"324 564 OFFCURVE",
"336 592 OFFCURVE",
"340 608 QCURVE",
"348 618 OFFCURVE",
"356 650 OFFCURVE",
"364 668 QCURVE SMOOTH",
"374 688 OFFCURVE",
"392 710 QCURVE SMOOTH",
"398 718 OFFCURVE",
"410 738 OFFCURVE",
"414 746 QCURVE",
"420 754 OFFCURVE",
"430 768 OFFCURVE",
"436 776 QCURVE SMOOTH",
"440 782 OFFCURVE",
"444 796 OFFCURVE",
"458 812 QCURVE",
"462 818 OFFCURVE",
"462 828 OFFCURVE",
"476 850 QCURVE SMOOTH",
"486 868 OFFCURVE",
"502 910 OFFCURVE",
"512 928 QCURVE SMOOTH",
"520 944 OFFCURVE",
"524 950 QCURVE SMOOTH",
"528 956 OFFCURVE",
"530 966 OFFCURVE",
"534 972 QCURVE",
"544 996 OFFCURVE",
"570 1040 OFFCURVE",
"586 1070 QCURVE",
"588 1088 OFFCURVE",
"606 1116 OFFCURVE",
"612 1132 QCURVE SMOOTH",
"616 1140 OFFCURVE",
"618 1156 OFFCURVE",
"624 1170 QCURVE SMOOTH",
"630 1188 OFFCURVE",
"648 1222 OFFCURVE",
"654 1240 QCURVE",
"676 1284 LINE SMOOTH",
"686 1306 OFFCURVE",
"706 1350 OFFCURVE",
"718 1370 QCURVE",
"728 1382 OFFCURVE",
"744 1404 OFFCURVE",
"760 1424 QCURVE",
"750 1446 OFFCURVE",
"724 1480 OFFCURVE",
"704 1492 QCURVE",
"694 1486 OFFCURVE",
"676 1482 OFFCURVE",
"656 1478 QCURVE SMOOTH",
"636 1472 OFFCURVE",
"600 1468 OFFCURVE",
"584 1466 QCURVE",
"574 1454 OFFCURVE",
"544 1442 OFFCURVE",
"536 1428 QCURVE",
"532 1424 OFFCURVE",
"530 1410 OFFCURVE",
"522 1404 QCURVE",
"520 1388 OFFCURVE",
"504 1376 OFFCURVE",
"502 1360 QCURVE",
"494 1348 OFFCURVE",
"484 1322 OFFCURVE",
"480 1304 QCURVE",
"472 1292 OFFCURVE",
"472 1282 QCURVE",
"452 1244 OFFCURVE",
"416 1170 OFFCURVE",
"400 1130 QCURVE",
"396 1108 OFFCURVE",
"378 1072 OFFCURVE",
"372 1050 QCURVE",
"358 1036 OFFCURVE",
"342 1002 OFFCURVE",
"328 990 QCURVE",
"326 976 OFFCURVE",
"316 970 QCURVE",
"300 948 OFFCURVE",
"270 906 OFFCURVE",
"260 878 QCURVE",
"254 874 OFFCURVE",
"248 858 OFFCURVE",
"244 852 QCURVE SMOOTH",
"240 844 OFFCURVE",
"230 832 OFFCURVE",
"226 826 QCURVE",
"220 812 OFFCURVE",
"214 786 OFFCURVE",
"208 772 QCURVE",
"196 734 OFFCURVE",
"166 658 OFFCURVE",
"154 620 QCURVE SMOOTH",
"144 588 OFFCURVE",
"122 526 OFFCURVE",
"116 498 QCURVE",
"104 476 OFFCURVE",
"100 454 QCURVE",
"96 444 OFFCURVE",
"92 428 OFFCURVE",
"90 414 QCURVE",
"86 400 OFFCURVE",
"86 364 OFFCURVE",
"82 348 QCURVE",
"82 320 OFFCURVE",
"66 256 OFFCURVE",
"62 222 QCURVE SMOOTH",
"60 198 OFFCURVE",
"70 156 OFFCURVE",
"78 134 QCURVE SMOOTH",
"84 112 OFFCURVE",
"98 70 OFFCURVE",
"122 60 QCURVE",
"130 52 OFFCURVE",
"144 38 OFFCURVE",
"152 34 QCURVE SMOOTH",
"168 24 OFFCURVE",
"180 8 OFFCURVE",
"196 0 QCURVE",
"214 -6 OFFCURVE",
"244 -20 OFFCURVE",
"262 -16 QCURVE",
"270 -16 OFFCURVE",
"292 -28 OFFCURVE",
"312 -16 QCURVE SMOOTH",
"328 -6 OFFCURVE",
"364 12 OFFCURVE",
"374 28 QCURVE",
"398 44 OFFCURVE",
"438 78 OFFCURVE",
"456 94 QCURVE SMOOTH",
"476 110 OFFCURVE",
"512 142 OFFCURVE",
"530 156 QCURVE SMOOTH",
"536 160 OFFCURVE",
"550 168 OFFCURVE",
"556 176 QCURVE",
"564 178 OFFCURVE",
"572 188 OFFCURVE",
"580 190 QCURVE",
"582 198 OFFCURVE",
"590 206 OFFCURVE",
"604 224 QCURVE SMOOTH",
"618 240 OFFCURVE",
"646 280 OFFCURVE",
"658 296 QCURVE",
"662 304 OFFCURVE",
"680 316 OFFCURVE",
"700 334 QCURVE",
"706 338 OFFCURVE",
"718 352 OFFCURVE",
"728 358 QCURVE SMOOTH",
"734 362 OFFCURVE",
"746 376 OFFCURVE",
"756 376 QCURVE",
"760 336 OFFCURVE",
"754 308 QCURVE",
"758 254 OFFCURVE",
"760 152 OFFCURVE",
"776 104 QCURVE",
"780 68 OFFCURVE",
"810 12 OFFCURVE",
"820 -20 QCURVE",
"844 -40 OFFCURVE",
"856 -78 QCURVE",
"864 -84 OFFCURVE",
"878 -88 OFFCURVE",
"888 -90 QCURVE",
"922 -78 OFFCURVE",
"980 -20 OFFCURVE",
"1012 -4 QCURVE",
"1016 6 OFFCURVE",
"1032 16 OFFCURVE",
"1042 20 QCURVE",
"1058 32 OFFCURVE",
"1090 60 OFFCURVE",
"1106 70 QCURVE SMOOTH",
"1114 74 OFFCURVE",
"1138 86 OFFCURVE",
"1146 90 QCURVE",
"1150 94 OFFCURVE",
"1166 108 OFFCURVE",
"1170 110 QCURVE SMOOTH",
"1176 114 OFFCURVE",
"1208 136 OFFCURVE",
"1212 144 QCURVE",
"1212 148 OFFCURVE",
"1242 172 OFFCURVE",
"1242 176 QCURVE",
"1250 180 OFFCURVE",
"1270 204 OFFCURVE",
"1284 232 OFFCURVE",
"1292 258 OFFCURVE",
"1290 268 QCURVE SMOOTH",
"1286 282 OFFCURVE",
"1252 292 OFFCURVE",
"1228 282 QCURVE",
"1222 276 OFFCURVE",
"1176 244 OFFCURVE",
"1166 244 QCURVE",
"1162 236 OFFCURVE",
"1124 214 OFFCURVE",
"1120 204 QCURVE",
"1116 206 OFFCURVE",
"1094 186 OFFCURVE",
"1088 182 QCURVE SMOOTH",
"1082 178 OFFCURVE",
"1060 168 OFFCURVE",
"1048 160 QCURVE",
"1038 156 OFFCURVE",
"1014 146 OFFCURVE",
"1002 142 QCURVE",
"998 138 OFFCURVE",
"988 132 OFFCURVE",
"980 130 QCURVE SMOOTH",
"950 122 OFFCURVE",
"922 130 QCURVE",
"918 164 OFFCURVE"
);
}
);
width = 1244;
}
);
note = U;
unicode = 0055;
},
{
glyphname = V;
layers = (
{
layerId = "F6DB7C97-1387-4B6F-ABF5-DF6BEF73745E";
paths = (
{
closed = 1;
nodes = (
"518 1304 OFFCURVE",
"512 1262 QCURVE",
"508 1246 OFFCURVE",
"494 1210 OFFCURVE",
"488 1194 QCURVE SMOOTH",
"480 1172 OFFCURVE",
"462 1126 OFFCURVE",
"454 1108 QCURVE",
"452 1100 OFFCURVE",
"450 1086 OFFCURVE",
"446 1076 QCURVE SMOOTH",
"436 1048 OFFCURVE",
"422 1000 OFFCURVE",
"414 962 QCURVE",
"416 952 OFFCURVE",
"410 936 OFFCURVE",
"408 926 QCURVE SMOOTH",
"406 920 OFFCURVE",
"408 906 OFFCURVE",
"406 900 QCURVE",
"396 844 OFFCURVE",
"380 798 QCURVE",
"370 760 OFFCURVE",
"352 682 OFFCURVE",
"338 646 QCURVE",
"330 610 OFFCURVE",
"312 546 OFFCURVE",
"310 508 QCURVE",
"308 498 OFFCURVE",
"308 482 OFFCURVE",
"308 472 QCURVE SMOOTH",
"308 460 OFFCURVE",
"304 440 OFFCURVE",
"304 430 QCURVE SMOOTH",
"304 424 OFFCURVE",
"306 414 OFFCURVE",
"304 408 QCURVE",
"300 362 OFFCURVE",
"296 274 OFFCURVE",
"294 230 QCURVE SMOOTH",
"292 196 OFFCURVE",
"286 128 OFFCURVE",
"282 98 QCURVE SMOOTH",
"278 72 OFFCURVE",
"266 16 OFFCURVE",
"290 12 QCURVE",
"302 -4 OFFCURVE",
"312 -26 OFFCURVE",
"338 -40 QCURVE",
"348 -56 OFFCURVE",
"380 -60 OFFCURVE",
"392 -50 QCURVE SMOOTH",
"412 -36 OFFCURVE",
"448 -2 OFFCURVE",
"460 16 QCURVE",
"466 32 OFFCURVE",
"488 56 OFFCURVE",
"500 74 QCURVE",
"532 106 OFFCURVE",
"584 184 OFFCURVE",
"624 232 QCURVE",
"626 242 OFFCURVE",
"638 254 OFFCURVE",
"642 264 QCURVE",
"644 276 OFFCURVE",
"650 288 OFFCURVE",
"654 296 QCURVE",
"670 318 OFFCURVE",
"694 356 OFFCURVE",
"706 376 QCURVE",
"724 390 OFFCURVE",
"742 428 OFFCURVE",
"758 440 QCURVE",
"764 452 OFFCURVE",
"778 470 OFFCURVE",
"786 480 QCURVE SMOOTH",
"796 494 OFFCURVE",
"814 518 OFFCURVE",
"824 528 QCURVE",
"834 542 OFFCURVE",
"852 566 OFFCURVE",
"862 580 QCURVE SMOOTH",
"878 600 OFFCURVE",
"904 640 OFFCURVE",
"920 660 QCURVE SMOOTH",
"926 668 OFFCURVE",
"940 680 OFFCURVE",
"944 690 QCURVE",
"966 710 OFFCURVE",
"1006 766 OFFCURVE",
"1026 788 QCURVE SMOOTH",
"1036 800 OFFCURVE",
"1048 824 OFFCURVE",
"1056 840 QCURVE SMOOTH",
"1066 856 OFFCURVE",
"1080 884 OFFCURVE",
"1088 900 QCURVE SMOOTH",
"1092 908 OFFCURVE",
"1100 920 OFFCURVE",
"1104 926 QCURVE SMOOTH",
"1114 940 OFFCURVE",
"1126 966 OFFCURVE",
"1136 976 QCURVE",
"1142 992 OFFCURVE",
"1150 1002 QCURVE",
"1166 1018 OFFCURVE",
"1182 1044 QCURVE",
"1184 1046 OFFCURVE",
"1188 1048 OFFCURVE",
"1200 1064 QCURVE SMOOTH",
"1216 1088 OFFCURVE",
"1234 1104 QCURVE",
"1238 1114 OFFCURVE",
"1254 1126 OFFCURVE",
"1258 1136 QCURVE",
"1268 1140 OFFCURVE",
"1276 1158 OFFCURVE",
"1284 1168 QCURVE SMOOTH",
"1288 1174 OFFCURVE",
"1298 1186 OFFCURVE",
"1302 1194 QCURVE",
"1322 1216 OFFCURVE",
"1368 1268 OFFCURVE",
"1384 1294 QCURVE SMOOTH",
"1398 1314 OFFCURVE",
"1424 1346 OFFCURVE",
"1440 1362 QCURVE SMOOTH",
"1448 1370 OFFCURVE",
"1468 1386 OFFCURVE",
"1474 1396 QCURVE SMOOTH",
"1484 1414 OFFCURVE",
"1496 1464 OFFCURVE",
"1468 1490 QCURVE",
"1462 1486 OFFCURVE",
"1450 1478 OFFCURVE",
"1442 1474 QCURVE SMOOTH",
"1432 1468 OFFCURVE",
"1412 1458 OFFCURVE",
"1404 1450 QCURVE",
"1390 1446 OFFCURVE",
"1372 1432 OFFCURVE",
"1358 1428 QCURVE",
"1348 1422 OFFCURVE",
"1326 1410 OFFCURVE",
"1312 1404 QCURVE",
"1308 1398 OFFCURVE",
"1292 1390 OFFCURVE",
"1280 1372 QCURVE",
"1276 1368 OFFCURVE",
"1268 1360 OFFCURVE",
"1264 1356 QCURVE",
"1260 1350 OFFCURVE",
"1248 1338 QCURVE SMOOTH",
"1236 1324 OFFCURVE",
"1220 1292 OFFCURVE",
"1204 1276 QCURVE SMOOTH",
"1188 1262 OFFCURVE",
"1168 1226 OFFCURVE",
"1158 1210 QCURVE",
"1132 1176 OFFCURVE",
"1078 1110 OFFCURVE",
"1050 1076 QCURVE",
"1042 1070 OFFCURVE",
"1030 1052 OFFCURVE",
"1022 1044 QCURVE SMOOTH",
"1004 1024 OFFCURVE",
"964 982 OFFCURVE",
"952 956 QCURVE",
"900 894 OFFCURVE",
"804 768 OFFCURVE",
"752 698 QCURVE SMOOTH",
"718 656 OFFCURVE",
"654 566 OFFCURVE",
"624 518 QCURVE",
"612 506 OFFCURVE",
"596 474 OFFCURVE",
"586 458 QCURVE SMOOTH",
"572 440 OFFCURVE",
"540 408 OFFCURVE",
"528 392 QCURVE",
"524 384 OFFCURVE",
"518 370 OFFCURVE",
"514 364 QCURVE SMOOTH",
"510 358 OFFCURVE",
"502 350 OFFCURVE",
"498 344 QCURVE SMOOTH",
"488 328 OFFCURVE",
"468 294 OFFCURVE",
"452 278 QCURVE",
"448 260 OFFCURVE",
"436 258 QCURVE",
"440 292 OFFCURVE",
"448 354 OFFCURVE",
"448 386 QCURVE SMOOTH",
"446 430 OFFCURVE",
"466 516 OFFCURVE",
"482 560 QCURVE SMOOTH",
"486 574 OFFCURVE",
"492 604 OFFCURVE",
"500 612 QCURVE",
"510 644 OFFCURVE",
"534 708 OFFCURVE",
"540 742 QCURVE SMOOTH",
"552 802 OFFCURVE",
"582 920 OFFCURVE",
"592 980 QCURVE SMOOTH",
"596 1002 OFFCURVE",
"600 1048 OFFCURVE",
"608 1070 QCURVE SMOOTH",
"614 1088 OFFCURVE",
"628 1126 OFFCURVE",
"630 1144 QCURVE SMOOTH",
"632 1160 OFFCURVE",
"632 1182 OFFCURVE",
"634 1194 QCURVE SMOOTH",
"640 1224 OFFCURVE",
"656 1282 OFFCURVE",
"658 1308 QCURVE",
"668 1340 OFFCURVE",
"652 1396 OFFCURVE",
"644 1416 QCURVE",
"638 1426 OFFCURVE",
"632 1440 OFFCURVE",
"626 1450 QCURVE SMOOTH",
"612 1472 OFFCURVE",
"586 1512 OFFCURVE",
"560 1522 QCURVE",
"542 1518 OFFCURVE",
"512 1520 OFFCURVE",
"478 1508 QCURVE",
"456 1504 OFFCURVE",
"422 1482 OFFCURVE",
"410 1468 QCURVE SMOOTH",
"386 1442 OFFCURVE",
"336 1394 OFFCURVE",
"304 1360 QCURVE",
"298 1348 OFFCURVE",
"284 1340 QCURVE",
"268 1320 OFFCURVE",
"244 1282 OFFCURVE",
"228 1266 QCURVE",
"214 1238 OFFCURVE",
"182 1198 OFFCURVE",
"166 1176 QCURVE SMOOTH",
"160 1168 OFFCURVE",
"160 1148 OFFCURVE",
"156 1138 QCURVE SMOOTH",
"152 1130 OFFCURVE",
"146 1118 OFFCURVE",
"144 1110 QCURVE SMOOTH",
"142 1100 OFFCURVE",
"146 1082 OFFCURVE",
"146 1070 QCURVE",
"154 1066 OFFCURVE",
"156 1048 OFFCURVE",
"160 1042 QCURVE",
"170 1040 OFFCURVE",
"178 1020 OFFCURVE",
"190 1016 QCURVE",
"218 1012 OFFCURVE",
"276 1000 OFFCURVE",
"304 1006 QCURVE",
"318 998 OFFCURVE",
"330 1016 OFFCURVE",
"340 1024 QCURVE SMOOTH",
"350 1034 OFFCURVE",
"358 1048 OFFCURVE",
"368 1052 QCURVE",
"374 1070 OFFCURVE",
"390 1086 QCURVE",
"394 1094 OFFCURVE",
"408 1108 OFFCURVE",
"414 1114 QCURVE",
"418 1120 OFFCURVE",
"424 1128 OFFCURVE",
"432 1150 QCURVE SMOOTH",
"434 1158 OFFCURVE",
"440 1170 OFFCURVE",
"442 1176 QCURVE",
"448 1212 OFFCURVE",
"444 1250 QCURVE",
"440 1266 OFFCURVE",
"432 1282 OFFCURVE",
"428 1298 QCURVE",
"420 1292 OFFCURVE",
"422 1276 OFFCURVE",
"420 1268 QCURVE SMOOTH",
"416 1250 OFFCURVE",
"392 1222 OFFCURVE",
"388 1204 QCURVE",
"366 1176 OFFCURVE",
"328 1116 OFFCURVE",
"296 1100 QCURVE",
"286 1108 OFFCURVE",
"258 1118 OFFCURVE",
"250 1128 QCURVE",
"278 1180 OFFCURVE",
"334 1286 OFFCURVE",
"376 1340 QCURVE SMOOTH",
"388 1354 OFFCURVE",
"404 1372 OFFCURVE",
"414 1384 QCURVE",
"424 1392 OFFCURVE",
"434 1402 OFFCURVE",
"446 1398 QCURVE SMOOTH",
"462 1394 OFFCURVE",
"492 1380 OFFCURVE",
"508 1376 QCURVE",
"518 1356 OFFCURVE"
);
}
);
width = 1042;
}
);
note = V;
unicode = 0056;
},
{
glyphname = W;
layers = (
{
layerId = "F6DB7C97-1387-4B6F-ABF5-DF6BEF73745E";
paths = (
{
closed = 1;
nodes = (
"1886 1524 OFFCURVE",
"1868 1508 QCURVE",
"1858 1494 OFFCURVE",
"1832 1474 OFFCURVE",
"1818 1464 QCURVE SMOOTH",
"1798 1448 OFFCURVE",
"1764 1416 OFFCURVE",
"1740 1410 QCURVE",
"1734 1402 OFFCURVE",
"1720 1390 OFFCURVE",
"1712 1390 QCURVE",
"1702 1380 OFFCURVE",
"1682 1366 OFFCURVE",
"1672 1356 QCURVE",
"1662 1340 OFFCURVE",
"1642 1312 OFFCURVE",
"1632 1298 QCURVE SMOOTH",
"1626 1290 OFFCURVE",
"1616 1274 OFFCURVE",
"1598 1250 QCURVE",
"1594 1246 OFFCURVE",
"1590 1230 OFFCURVE",
"1586 1226 QCURVE",
"1572 1206 OFFCURVE",
"1568 1194 OFFCURVE",
"1552 1172 QCURVE",
"1546 1158 OFFCURVE",
"1540 1148 OFFCURVE",
"1536 1142 OFFCURVE",
"1530 1134 OFFCURVE",
"1524 1120 QCURVE",
"1518 1114 OFFCURVE",
"1514 1108 OFFCURVE",
"1512 1102 OFFCURVE",
"1508 1094 OFFCURVE",
"1492 1076 QCURVE SMOOTH",
"1490 1074 OFFCURVE",
"1478 1050 QCURVE SMOOTH",
"1474 1042 OFFCURVE",
"1466 1028 OFFCURVE",
"1458 1016 QCURVE SMOOTH",
"1448 1000 OFFCURVE",
"1430 972 OFFCURVE",
"1422 954 QCURVE",
"1416 950 OFFCURVE",
"1410 934 OFFCURVE",
"1404 930 QCURVE",
"1398 914 OFFCURVE",
"1384 884 OFFCURVE",
"1378 862 QCURVE",
"1374 856 OFFCURVE",
"1368 842 OFFCURVE",
"1362 838 QCURVE",
"1350 812 OFFCURVE",
"1330 778 OFFCURVE",
"1312 746 OFFCURVE",
"1292 714 OFFCURVE",
"1276 680 QCURVE",
"1264 664 OFFCURVE",
"1242 626 OFFCURVE",
"1232 606 QCURVE SMOOTH",
"1228 598 OFFCURVE",
"1222 584 OFFCURVE",
"1218 576 QCURVE",
"1212 558 OFFCURVE",
"1204 522 OFFCURVE",
"1198 504 QCURVE SMOOTH",
"1196 496 OFFCURVE",
"1190 482 OFFCURVE",
"1186 474 QCURVE SMOOTH",
"1168 434 OFFCURVE",
"1150 406 QCURVE",
"1146 396 OFFCURVE",
"1136 372 OFFCURVE",
"1132 366 QCURVE",
"1122 344 OFFCURVE",
"1098 300 OFFCURVE",
"1082 284 QCURVE",
"1074 274 OFFCURVE",
"1058 260 OFFCURVE",
"1052 250 QCURVE SMOOTH",
"1044 240 OFFCURVE",
"1032 220 OFFCURVE",
"1022 212 QCURVE",
"1018 228 OFFCURVE",
"1036 262 OFFCURVE",
"1034 278 QCURVE",
"1040 288 OFFCURVE",
"1038 316 OFFCURVE",
"1048 342 QCURVE SMOOTH",
"1052 352 OFFCURVE",
"1054 378 OFFCURVE",
"1056 388 QCURVE",
"1060 398 OFFCURVE",
"1058 422 OFFCURVE",
"1062 432 QCURVE SMOOTH",
"1064 440 OFFCURVE",
"1070 454 OFFCURVE",
"1068 462 QCURVE",
"1074 482 OFFCURVE",
"1082 532 OFFCURVE",
"1086 556 QCURVE",
"1092 566 OFFCURVE",
"1096 592 OFFCURVE",
"1100 606 QCURVE SMOOTH",
"1102 616 OFFCURVE",
"1106 638 OFFCURVE",
"1108 648 QCURVE SMOOTH",
"1110 662 OFFCURVE",
"1110 688 OFFCURVE",
"1114 720 QCURVE",
"1114 732 OFFCURVE",
"1108 750 OFFCURVE",
"1112 764 QCURVE",
"1116 794 OFFCURVE",
"1136 872 OFFCURVE",
"1138 900 QCURVE SMOOTH",
"1140 930 OFFCURVE",
"1160 984 OFFCURVE",
"1166 1014 QCURVE SMOOTH",
"1170 1030 OFFCURVE",
"1174 1066 OFFCURVE",
"1182 1082 QCURVE",
"1180 1094 OFFCURVE",
"1192 1122 OFFCURVE",
"1198 1146 QCURVE SMOOTH",
"1202 1166 OFFCURVE",
"1208 1204 OFFCURVE",
"1216 1218 QCURVE",
"1220 1250 OFFCURVE",
"1204 1294 OFFCURVE",
"1196 1316 QCURVE SMOOTH",
"1192 1328 OFFCURVE",
"1198 1354 OFFCURVE",
"1196 1364 QCURVE SMOOTH",
"1194 1370 OFFCURVE",
"1184 1384 OFFCURVE",
"1180 1388 QCURVE",
"1172 1402 OFFCURVE",
"1164 1406 QCURVE SMOOTH",
"1148 1416 OFFCURVE",
"1134 1396 OFFCURVE",
"1124 1386 QCURVE",
"1120 1380 OFFCURVE",
"1110 1372 OFFCURVE",
"1102 1364 QCURVE",
"1102 1358 OFFCURVE",
"1094 1348 OFFCURVE",
"1090 1344 QCURVE SMOOTH",
"1086 1340 OFFCURVE",
"1076 1330 OFFCURVE",
"1060 1320 QCURVE SMOOTH",
"1054 1316 OFFCURVE",
"1040 1312 OFFCURVE",
"1016 1296 QCURVE",
"1000 1280 OFFCURVE",
"968 1240 OFFCURVE",
"952 1212 QCURVE",
"942 1202 OFFCURVE",
"928 1178 OFFCURVE",
"918 1166 QCURVE SMOOTH",
"894 1132 OFFCURVE",
"850 1072 OFFCURVE",
"828 1038 QCURVE",
"826 1038 OFFCURVE",
"814 1014 QCURVE",
"796 996 OFFCURVE",
"784 970 QCURVE",
"768 948 OFFCURVE",
"744 902 OFFCURVE",
"732 878 QCURVE",
"716 856 OFFCURVE",
"688 812 OFFCURVE",
"678 786 QCURVE",
"666 772 OFFCURVE",
"650 736 OFFCURVE",
"636 720 QCURVE SMOOTH",
"628 712 OFFCURVE",
"614 698 OFFCURVE",
"608 690 QCURVE SMOOTH",
"602 682 OFFCURVE",
"590 666 OFFCURVE",
"584 658 QCURVE SMOOTH",
"580 652 OFFCURVE",
"574 642 OFFCURVE",
"570 634 QCURVE",
"564 626 OFFCURVE",
"548 610 OFFCURVE",
"544 602 QCURVE",
"520 566 LINE SMOOTH",
"512 552 OFFCURVE",
"498 530 OFFCURVE",
"494 516 QCURVE",
"488 506 OFFCURVE",
"470 474 OFFCURVE",
"450 438 OFFCURVE",
"432 404 OFFCURVE",
"428 394 QCURVE",
"422 390 OFFCURVE",
"418 372 OFFCURVE",
"412 368 QCURVE",
"406 348 OFFCURVE",
"380 324 OFFCURVE",
"376 302 QCURVE",
"370 300 OFFCURVE",
"366 284 OFFCURVE",
"354 270 QCURVE",
"352 266 OFFCURVE",
"348 254 OFFCURVE",
"344 250 QCURVE SMOOTH",
"340 246 OFFCURVE",
"326 238 OFFCURVE",
"318 234 QCURVE SMOOTH",
"312 230 OFFCURVE",
"298 224 OFFCURVE",
"292 224 QCURVE SMOOTH",
"288 224 OFFCURVE",
"278 234 OFFCURVE",
"274 238 QCURVE",
"284 278 OFFCURVE",
"302 340 OFFCURVE",
"322 394 OFFCURVE",
"344 452 OFFCURVE",
"356 490 QCURVE",
"366 504 OFFCURVE",
"374 534 OFFCURVE",
"380 550 QCURVE SMOOTH",
"388 566 OFFCURVE",
"402 592 OFFCURVE",
"402 608 QCURVE",
"408 612 OFFCURVE",
"406 624 OFFCURVE",
"408 630 QCURVE",
"408 636 OFFCURVE",
"422 684 OFFCURVE",
"438 736 OFFCURVE",
"452 784 OFFCURVE",
"454 790 QCURVE SMOOTH",
"458 808 OFFCURVE",
"468 844 OFFCURVE",
"474 862 QCURVE SMOOTH",
"478 880 OFFCURVE",
"486 918 OFFCURVE",
"490 934 QCURVE SMOOTH",
"494 950 OFFCURVE",
"504 974 OFFCURVE",
"508 990 QCURVE SMOOTH",
"510 996 OFFCURVE",
"522 1026 OFFCURVE",
"534 1060 OFFCURVE",
"546 1088 OFFCURVE",
"558 1112 QCURVE",
"560 1118 OFFCURVE",
"560 1132 OFFCURVE",
"564 1138 QCURVE",
"568 1160 OFFCURVE",
"580 1200 OFFCURVE",
"584 1220 QCURVE SMOOTH",
"586 1230 OFFCURVE",
"584 1250 OFFCURVE",
"588 1258 QCURVE SMOOTH",
"592 1268 OFFCURVE",
"600 1288 OFFCURVE",
"608 1302 QCURVE",
"610 1312 OFFCURVE",
"614 1330 OFFCURVE",
"616 1340 QCURVE SMOOTH",
"618 1356 OFFCURVE",
"606 1378 OFFCURVE",
"602 1390 QCURVE",
"598 1394 OFFCURVE",
"588 1400 OFFCURVE",
"582 1400 QCURVE",
"578 1410 OFFCURVE",
"564 1420 OFFCURVE",
"556 1426 QCURVE SMOOTH",
"542 1434 OFFCURVE",
"524 1450 OFFCURVE",
"504 1450 QCURVE SMOOTH",
"498 1450 OFFCURVE",
"488 1452 OFFCURVE",
"482 1452 QCURVE",
"470 1454 OFFCURVE",
"450 1444 OFFCURVE",
"440 1438 QCURVE",
"418 1428 OFFCURVE",
"376 1404 OFFCURVE",
"356 1376 QCURVE",
"338 1362 OFFCURVE",
"302 1336 OFFCURVE",
"282 1320 QCURVE SMOOTH",
"274 1314 OFFCURVE",
"260 1300 OFFCURVE",
"252 1294 QCURVE",
"240 1288 OFFCURVE",
"218 1270 OFFCURVE",
"198 1258 QCURVE",
"176 1248 OFFCURVE",
"142 1214 OFFCURVE",
"120 1204 QCURVE",
"114 1196 OFFCURVE",
"98 1186 OFFCURVE",
"92 1180 QCURVE SMOOTH",
"84 1174 OFFCURVE",
"72 1160 OFFCURVE",
"62 1156 QCURVE",
"48 1136 OFFCURVE",
"32 1126 QCURVE",
"28 1116 OFFCURVE",
"14 1104 OFFCURVE",
"10 1094 QCURVE",
"16 1086 OFFCURVE",
"28 1088 OFFCURVE",
"36 1086 QCURVE SMOOTH",
"46 1084 OFFCURVE",
"62 1078 OFFCURVE",
"72 1082 QCURVE SMOOTH",
"80 1086 OFFCURVE",
"90 1094 OFFCURVE",
"98 1098 QCURVE SMOOTH",
"108 1102 OFFCURVE",
"136 1114 OFFCURVE",
"146 1114 QCURVE SMOOTH",
"152 1114 OFFCURVE",
"164 1110 OFFCURVE",
"170 1110 QCURVE SMOOTH",
"182 1110 OFFCURVE",
"210 1114 OFFCURVE",
"220 1118 QCURVE SMOOTH",
"230 1122 OFFCURVE",
"242 1136 OFFCURVE",
"252 1138 QCURVE",
"262 1152 OFFCURVE",
"288 1168 OFFCURVE",
"296 1180 QCURVE",
"330 1206 OFFCURVE",
"392 1264 OFFCURVE",
"442 1298 QCURVE",
"442 1270 OFFCURVE",
"436 1212 OFFCURVE",
"428 1194 QCURVE",
"420 1162 OFFCURVE",
"394 1082 OFFCURVE",
"366 998 OFFCURVE",
"338 918 OFFCURVE",
"330 888 QCURVE",
"326 878 OFFCURVE",
"318 852 OFFCURVE",
"312 842 QCURVE",
"308 816 OFFCURVE",
"282 738 OFFCURVE",
"252 654 OFFCURVE",
"224 574 OFFCURVE",
"218 550 QCURVE",
"208 522 OFFCURVE",
"190 472 OFFCURVE",
"184 440 QCURVE",
"178 424 OFFCURVE",
"172 406 OFFCURVE",
"164 390 OFFCURVE",
"158 370 OFFCURVE",
"152 352 QCURVE",
"144 338 OFFCURVE",
"136 312 QCURVE SMOOTH",
"128 280 OFFCURVE",
"106 230 OFFCURVE",
"98 200 QCURVE SMOOTH",
"94 186 OFFCURVE",
"84 158 OFFCURVE",
"82 142 QCURVE SMOOTH",
"82 128 OFFCURVE",
"88 114 OFFCURVE",
"90 104 QCURVE",
"90 98 OFFCURVE",
"92 84 OFFCURVE",
"92 80 QCURVE",
"98 58 OFFCURVE",
"120 24 OFFCURVE",
"132 10 QCURVE SMOOTH",
"136 4 OFFCURVE",
"142 -6 OFFCURVE",
"146 -10 QCURVE SMOOTH",
"154 -18 OFFCURVE",
"172 -28 OFFCURVE",
"176 -40 QCURVE",
"182 -40 OFFCURVE",
"190 -52 OFFCURVE",
"194 -54 QCURVE SMOOTH",
"216 -64 OFFCURVE",
"254 -52 OFFCURVE",
"268 -44 QCURVE SMOOTH",
"286 -34 OFFCURVE",
"322 -22 OFFCURVE",
"332 -10 QCURVE",
"334 0 OFFCURVE",
"346 14 OFFCURVE",
"350 24 QCURVE",
"372 42 OFFCURVE",
"398 92 OFFCURVE",
"418 122 QCURVE",
"428 134 OFFCURVE",
"442 160 OFFCURVE",
"450 172 QCURVE SMOOTH",
"474 210 OFFCURVE",
"518 286 OFFCURVE",
"536 330 QCURVE",
"540 336 OFFCURVE",
"558 364 OFFCURVE",
"576 394 OFFCURVE",
"592 420 OFFCURVE",
"602 424 QCURVE",
"612 434 OFFCURVE",
"634 454 OFFCURVE",
"644 464 QCURVE",
"650 474 OFFCURVE",
"666 494 OFFCURVE",
"672 504 QCURVE SMOOTH",
"682 518 OFFCURVE",
"694 550 OFFCURVE",
"702 568 QCURVE",
"712 584 OFFCURVE",
"736 618 OFFCURVE",
"746 634 QCURVE SMOOTH",
"758 654 OFFCURVE",
"786 690 OFFCURVE",
"796 712 QCURVE",
"852 792 OFFCURVE",
"958 952 OFFCURVE",
"1024 1034 QCURVE",
"1022 1020 OFFCURVE",
"1022 996 OFFCURVE",
"1020 984 QCURVE SMOOTH",
"1016 970 OFFCURVE",
"1010 950 OFFCURVE",
"1010 940 QCURVE",
"1008 934 OFFCURVE",
"1010 922 OFFCURVE",
"1010 916 QCURVE SMOOTH",
"1010 910 OFFCURVE",
"1008 900 OFFCURVE",
"1006 892 QCURVE SMOOTH",
"1004 876 OFFCURVE",
"1004 850 OFFCURVE",
"1002 834 QCURVE SMOOTH",
"1000 822 OFFCURVE",
"992 796 OFFCURVE",
"988 786 QCURVE SMOOTH",
"968 734 OFFCURVE",
"926 624 OFFCURVE",
"914 568 QCURVE SMOOTH",
"912 556 OFFCURVE",
"910 530 OFFCURVE",
"910 518 QCURVE SMOOTH",
"910 496 OFFCURVE",
"898 452 OFFCURVE",
"892 430 QCURVE",
"886 394 OFFCURVE",
"868 314 OFFCURVE",
"862 274 QCURVE SMOOTH",
"858 246 OFFCURVE",
"844 188 OFFCURVE",
"836 160 QCURVE SMOOTH",
"830 132 OFFCURVE",
"820 86 OFFCURVE",
"824 64 QCURVE SMOOTH",
"828 46 OFFCURVE",
"838 20 QCURVE SMOOTH",
"842 8 OFFCURVE",
"846 -14 OFFCURVE",
"850 -30 QCURVE",
"864 -56 OFFCURVE",
"878 -64 QCURVE",
"890 -62 OFFCURVE",
"912 -74 OFFCURVE",
"924 -76 QCURVE SMOOTH",
"936 -78 OFFCURVE",
"956 -72 OFFCURVE",
"966 -70 QCURVE",
"1006 -42 OFFCURVE",
"1072 22 OFFCURVE",
"1106 56 QCURVE",
"1114 76 OFFCURVE",
"1132 94 QCURVE",
"1136 104 OFFCURVE",
"1146 120 OFFCURVE",
"1154 130 QCURVE",
"1164 158 OFFCURVE",
"1194 202 OFFCURVE",
"1210 224 QCURVE",
"1214 240 OFFCURVE",
"1232 262 OFFCURVE",
"1242 274 QCURVE SMOOTH",
"1252 288 OFFCURVE",
"1272 320 OFFCURVE",
"1288 342 QCURVE",
"1292 346 OFFCURVE",
"1294 356 OFFCURVE",
"1308 378 QCURVE",
"1310 390 OFFCURVE",
"1318 400 QCURVE",
"1336 448 OFFCURVE",
"1372 540 OFFCURVE",
"1394 584 QCURVE",
"1416 602 OFFCURVE",
"1424 628 QCURVE",
"1436 642 OFFCURVE",
"1452 674 OFFCURVE",
"1462 690 QCURVE SMOOTH",
"1478 712 OFFCURVE",
"1506 758 OFFCURVE",
"1522 780 QCURVE",
"1528 792 OFFCURVE",
"1534 800 OFFCURVE",
"1540 806 OFFCURVE",
"1546 814 OFFCURVE",
"1554 826 QCURVE SMOOTH",
"1564 842 OFFCURVE",
"1586 872 OFFCURVE",
"1598 894 QCURVE",
"1608 906 OFFCURVE",
"1616 922 OFFCURVE",
"1622 938 OFFCURVE",
"1628 958 OFFCURVE",
"1634 976 QCURVE SMOOTH",
"1640 990 OFFCURVE",
"1648 1002 OFFCURVE",
"1656 1012 OFFCURVE",
"1664 1022 OFFCURVE",
"1678 1040 QCURVE",
"1680 1050 OFFCURVE",
"1690 1060 OFFCURVE",
"1694 1070 QCURVE",
"1704 1086 OFFCURVE",
"1720 1114 OFFCURVE",
"1730 1130 QCURVE",
"1734 1140 OFFCURVE",
"1744 1156 OFFCURVE",
"1748 1164 QCURVE",
"1754 1172 OFFCURVE",
"1760 1180 OFFCURVE",
"1762 1186 OFFCURVE",
"1766 1192 OFFCURVE",
"1770 1200 QCURVE SMOOTH",
"1774 1210 OFFCURVE",
"1782 1228 OFFCURVE",
"1798 1246 QCURVE SMOOTH",
"1804 1252 OFFCURVE",
"1810 1268 OFFCURVE",
"1818 1278 QCURVE SMOOTH",
"1840 1306 OFFCURVE",
"1880 1370 OFFCURVE",
"1904 1404 QCURVE SMOOTH",
"1914 1416 OFFCURVE",
"1930 1448 OFFCURVE",
"1940 1460 QCURVE",
"1940 1470 OFFCURVE",
"1948 1484 OFFCURVE",
"1952 1492 QCURVE",
"1948 1498 OFFCURVE",
"1942 1506 OFFCURVE",
"1944 1514 QCURVE",
"1932 1528 OFFCURVE"
);
}
);
width = 1532;
}
);
note = W;
unicode = 0057;
},
{
glyphname = X;
layers = (
{
layerId = "F6DB7C97-1387-4B6F-ABF5-DF6BEF73745E";
paths = (
{
closed = 1;
nodes = (
"1492 1514 OFFCURVE",
"1474 1506 QCURVE SMOOTH",
"1452 1496 OFFCURVE",
"1408 1470 OFFCURVE",
"1386 1466 QCURVE",
"1382 1460 OFFCURVE",
"1372 1458 OFFCURVE",
"1362 1458 QCURVE",
"1352 1450 OFFCURVE",
"1328 1446 OFFCURVE",
"1310 1446 QCURVE",
"1300 1440 OFFCURVE",
"1288 1428 OFFCURVE",
"1278 1424 QCURVE",
"1260 1402 OFFCURVE",
"1222 1358 OFFCURVE",
"1202 1338 QCURVE SMOOTH",
"1182 1316 OFFCURVE",
"1144 1274 OFFCURVE",
"1126 1252 QCURVE SMOOTH",
"1098 1218 OFFCURVE",
"1038 1160 OFFCURVE",
"1010 1128 QCURVE SMOOTH",
"1000 1118 OFFCURVE",
"982 1098 OFFCURVE",
"968 1090 QCURVE",
"954 1070 OFFCURVE",
"922 1032 OFFCURVE",
"904 1016 QCURVE",
"890 1000 OFFCURVE",
"862 964 OFFCURVE",
"848 954 QCURVE",
"838 936 OFFCURVE",
"824 928 QCURVE",
"820 956 OFFCURVE",
"818 1026 OFFCURVE",
"814 1056 QCURVE SMOOTH",
"812 1084 OFFCURVE",
"808 1138 OFFCURVE",
"812 1166 QCURVE",
"812 1182 OFFCURVE",
"812 1210 OFFCURVE",
"806 1222 QCURVE",
"808 1244 OFFCURVE",
"810 1278 OFFCURVE",
"806 1294 QCURVE",
"810 1308 OFFCURVE",
"804 1324 OFFCURVE",
"806 1340 QCURVE",
"802 1356 OFFCURVE",
"796 1384 OFFCURVE",
"788 1398 QCURVE SMOOTH",
"784 1404 OFFCURVE",
"780 1422 OFFCURVE",
"776 1426 QCURVE",
"770 1436 OFFCURVE",
"750 1450 OFFCURVE",
"742 1458 QCURVE",
"726 1462 OFFCURVE",
"700 1474 OFFCURVE",
"680 1470 QCURVE",
"676 1478 OFFCURVE",
"664 1474 OFFCURVE",
"656 1472 QCURVE SMOOTH",
"646 1470 OFFCURVE",
"626 1470 OFFCURVE",
"618 1466 QCURVE",
"614 1462 OFFCURVE",
"602 1452 OFFCURVE",
"596 1448 QCURVE SMOOTH",
"578 1436 OFFCURVE",
"542 1406 OFFCURVE",
"526 1396 QCURVE",
"494 1362 OFFCURVE",
"426 1294 OFFCURVE",
"392 1260 QCURVE",
"378 1242 OFFCURVE",
"350 1206 OFFCURVE",
"338 1190 QCURVE SMOOTH",
"328 1176 OFFCURVE",
"314 1154 OFFCURVE",
"306 1134 QCURVE",
"290 1104 OFFCURVE",
"268 1038 OFFCURVE",
"262 1006 QCURVE",
"258 994 OFFCURVE",
"258 982 OFFCURVE",
"258 972 QCURVE",
"262 942 OFFCURVE",
"290 902 OFFCURVE",
"302 880 QCURVE",
"326 858 OFFCURVE",
"356 850 QCURVE SMOOTH",
"370 846 OFFCURVE",
"388 854 QCURVE SMOOTH",
"410 862 OFFCURVE",
"432 874 QCURVE",
"464 896 OFFCURVE",
"484 960 OFFCURVE",
"488 998 QCURVE SMOOTH",
"492 1030 OFFCURVE",
"498 1096 OFFCURVE",
"498 1124 QCURVE",
"494 1132 OFFCURVE",
"486 1148 OFFCURVE",
"474 1156 QCURVE SMOOTH",
"468 1160 OFFCURVE",
"464 1170 OFFCURVE",
"458 1172 QCURVE",
"448 1158 OFFCURVE",
"452 1130 OFFCURVE",
"452 1116 QCURVE SMOOTH",
"452 1104 OFFCURVE",
"452 1080 OFFCURVE",
"450 1064 QCURVE SMOOTH",
"444 1032 OFFCURVE",
"432 970 OFFCURVE",
"412 946 QCURVE",
"400 946 OFFCURVE",
"378 930 OFFCURVE",
"356 944 QCURVE",
"352 948 OFFCURVE",
"346 954 OFFCURVE",
"348 978 QCURVE SMOOTH",
"348 1000 LINE",
"354 1040 OFFCURVE",
"390 1116 OFFCURVE",
"392 1150 QCURVE",
"410 1176 OFFCURVE",
"430 1194 QCURVE",
"434 1202 OFFCURVE",
"444 1208 OFFCURVE",
"458 1228 QCURVE",
"462 1232 OFFCURVE",
"476 1244 OFFCURVE",
"482 1250 QCURVE SMOOTH",
"498 1268 OFFCURVE",
"532 1296 OFFCURVE",
"556 1302 QCURVE SMOOTH",
"566 1304 OFFCURVE",
"590 1306 OFFCURVE",
"602 1290 QCURVE",
"608 1284 OFFCURVE",
"624 1272 QCURVE",
"628 1266 OFFCURVE",
"640 1258 OFFCURVE",
"644 1252 QCURVE SMOOTH",
"648 1244 OFFCURVE",
"648 1224 OFFCURVE",
"648 1214 QCURVE SMOOTH",
"650 1198 OFFCURVE",
"656 1172 OFFCURVE",
"652 1154 QCURVE",
"656 1132 OFFCURVE",
"658 1096 OFFCURVE",
"662 1076 QCURVE",
"662 1060 OFFCURVE",
"662 1034 OFFCURVE",
"664 1018 QCURVE SMOOTH",
"664 1006 OFFCURVE",
"668 982 OFFCURVE",
"668 968 QCURVE",
"670 954 OFFCURVE",
"670 928 OFFCURVE",
"670 914 QCURVE SMOOTH",
"672 896 OFFCURVE",
"674 854 OFFCURVE",
"676 836 QCURVE SMOOTH",
"680 816 OFFCURVE",
"678 808 QCURVE SMOOTH",
"676 802 OFFCURVE",
"664 794 OFFCURVE",
"660 788 QCURVE SMOOTH",
"652 776 OFFCURVE",
"646 770 QCURVE SMOOTH",
"624 746 OFFCURVE",
"588 694 OFFCURVE",
"570 670 QCURVE SMOOTH",
"562 660 OFFCURVE",
"544 642 OFFCURVE",
"526 626 QCURVE SMOOTH",
"520 620 OFFCURVE",
"510 606 OFFCURVE",
"502 604 QCURVE",
"484 580 OFFCURVE",
"458 558 QCURVE",
"448 544 OFFCURVE",
"426 520 OFFCURVE",
"416 510 QCURVE",
"364 446 OFFCURVE",
"250 334 OFFCURVE",
"194 274 QCURVE SMOOTH",
"188 268 OFFCURVE",
"178 254 OFFCURVE",
"172 248 QCURVE",
"160 232 OFFCURVE",
"150 222 QCURVE",
"132 196 OFFCURVE",
"90 158 OFFCURVE",
"70 136 QCURVE SMOOTH",
"50 114 OFFCURVE",
"14 68 OFFCURVE",
"-4 44 QCURVE",
"-16 20 OFFCURVE",
"-40 -22 OFFCURVE",
"-52 -46 QCURVE",
"-48 -50 OFFCURVE",
"-36 -52 OFFCURVE",
"-32 -56 QCURVE",
"-12 -56 OFFCURVE",
"16 -32 OFFCURVE",
"32 -26 QCURVE SMOOTH",
"56 -16 OFFCURVE",
"98 -6 OFFCURVE",
"118 4 QCURVE SMOOTH",
"134 12 OFFCURVE",
"168 26 OFFCURVE",
"182 36 QCURVE SMOOTH",
"192 44 OFFCURVE",
"210 56 OFFCURVE",
"220 62 QCURVE",
"244 80 OFFCURVE",
"284 128 OFFCURVE",
"304 152 QCURVE SMOOTH",
"320 172 OFFCURVE",
"350 202 OFFCURVE",
"374 228 QCURVE",
"376 238 OFFCURVE",
"384 246 OFFCURVE",
"392 254 QCURVE",
"414 282 OFFCURVE",
"458 340 OFFCURVE",
"484 360 QCURVE",
"494 380 OFFCURVE",
"516 398 QCURVE",
"526 414 OFFCURVE",
"552 436 OFFCURVE",
"582 458 QCURVE",
"588 470 OFFCURVE",
"606 482 OFFCURVE",
"612 492 QCURVE",
"634 510 OFFCURVE",
"672 556 OFFCURVE",
"694 576 QCURVE",
"696 532 OFFCURVE",
"698 448 OFFCURVE",
"702 410 QCURVE",
"702 380 LINE",
"706 348 LINE SMOOTH",
"708 330 OFFCURVE",
"716 294 OFFCURVE",
"716 274 QCURVE",
"720 254 OFFCURVE",
"730 206 OFFCURVE",
"754 186 QCURVE",
"756 180 OFFCURVE",
"754 166 OFFCURVE",
"758 162 QCURVE",
"754 134 OFFCURVE",
"760 80 OFFCURVE",
"764 58 QCURVE",
"776 44 OFFCURVE",
"788 10 OFFCURVE",
"792 -6 QCURVE",
"818 -30 OFFCURVE",
"862 -82 OFFCURVE",
"892 -100 QCURVE",
"902 -116 OFFCURVE",
"928 -140 OFFCURVE",
"944 -148 QCURVE",
"950 -146 OFFCURVE",
"958 -150 OFFCURVE",
"980 -156 QCURVE",
"992 -156 OFFCURVE",
"1012 -152 OFFCURVE",
"1022 -150 QCURVE",
"1028 -150 OFFCURVE",
"1040 -154 OFFCURVE",
"1046 -154 QCURVE SMOOTH",
"1054 -154 OFFCURVE",
"1072 -150 OFFCURVE",
"1082 -150 QCURVE",
"1130 -144 OFFCURVE",
"1180 -136 QCURVE",
"1194 -128 OFFCURVE",
"1224 -118 OFFCURVE",
"1240 -112 QCURVE",
"1260 -92 OFFCURVE",
"1256 -44 QCURVE",
"1248 -54 OFFCURVE",
"1216 -56 OFFCURVE",
"1200 -60 QCURVE SMOOTH",
"1190 -62 OFFCURVE",
"1168 -64 OFFCURVE",
"1158 -66 QCURVE",
"1144 -66 OFFCURVE",
"1124 -60 OFFCURVE",
"1114 -60 QCURVE SMOOTH",
"1098 -58 OFFCURVE",
"1070 -62 OFFCURVE",
"1056 -58 QCURVE",
"1050 -54 OFFCURVE",
"1042 -46 OFFCURVE",
"1026 -52 QCURVE",
"1018 -46 OFFCURVE",
"996 -36 OFFCURVE",
"984 -26 QCURVE",
"974 -22 OFFCURVE",
"952 -6 OFFCURVE",
"948 2 QCURVE SMOOTH",
"946 6 OFFCURVE",
"946 14 OFFCURVE",
"932 30 QCURVE",
"926 44 OFFCURVE",
"920 74 OFFCURVE",
"918 90 QCURVE SMOOTH",
"910 142 OFFCURVE",
"882 242 OFFCURVE",
"878 290 QCURVE SMOOTH",
"878 302 OFFCURVE",
"878 324 OFFCURVE",
"874 334 QCURVE",
"868 360 OFFCURVE",
"850 406 OFFCURVE",
"850 434 QCURVE",
"838 458 OFFCURVE",
"836 526 OFFCURVE",
"832 560 QCURVE",
"832 608 OFFCURVE",
"822 664 QCURVE",
"822 672 OFFCURVE",
"818 696 OFFCURVE",
"820 704 QCURVE",
"824 712 OFFCURVE",
"844 732 OFFCURVE",
"848 738 QCURVE SMOOTH",
"870 766 OFFCURVE",
"914 812 OFFCURVE",
"936 838 QCURVE SMOOTH",
"944 846 OFFCURVE",
"958 862 OFFCURVE",
"964 872 QCURVE",
"986 892 OFFCURVE",
"1020 936 OFFCURVE",
"1042 954 QCURVE",
"1048 964 OFFCURVE",
"1064 982 OFFCURVE",
"1074 988 QCURVE",
"1076 996 OFFCURVE",
"1088 1008 OFFCURVE",
"1094 1012 QCURVE",
"1106 1030 OFFCURVE",
"1134 1056 OFFCURVE",
"1146 1076 QCURVE",
"1156 1082 OFFCURVE",
"1172 1098 OFFCURVE",
"1180 1108 QCURVE SMOOTH",
"1188 1118 OFFCURVE",
"1202 1130 OFFCURVE",
"1210 1138 QCURVE SMOOTH",
"1228 1158 OFFCURVE",
"1256 1204 OFFCURVE",
"1272 1220 QCURVE",
"1276 1232 OFFCURVE",
"1290 1250 OFFCURVE",
"1306 1264 QCURVE SMOOTH",
"1326 1280 OFFCURVE",
"1358 1314 OFFCURVE",
"1376 1330 QCURVE SMOOTH",
"1386 1338 OFFCURVE",
"1406 1354 OFFCURVE",
"1416 1364 QCURVE SMOOTH",
"1426 1374 OFFCURVE",
"1442 1390 OFFCURVE",
"1446 1404 QCURVE",
"1458 1414 OFFCURVE",
"1476 1438 OFFCURVE",
"1486 1450 QCURVE",
"1496 1458 OFFCURVE",
"1506 1474 OFFCURVE",
"1512 1478 QCURVE",
"1518 1486 OFFCURVE",
"1530 1496 OFFCURVE",
"1532 1510 QCURVE",
"1524 1528 OFFCURVE"
);
}
);
width = 1224;
}
);
note = X;
unicode = 0058;
},
{
glyphname = Y;
layers = (
{
layerId = "F6DB7C97-1387-4B6F-ABF5-DF6BEF73745E";
paths = (
{
closed = 1;
nodes = (
"846 1464 OFFCURVE",
"828 1472 OFFCURVE",
"816 1476 QCURVE SMOOTH",
"802 1482 OFFCURVE",
"766 1502 OFFCURVE",
"748 1500 QCURVE",
"722 1516 OFFCURVE",
"676 1532 QCURVE SMOOTH",
"662 1536 OFFCURVE",
"640 1520 OFFCURVE",
"624 1518 QCURVE",
"576 1462 OFFCURVE",
"446 1382 OFFCURVE",
"394 1332 QCURVE",
"356 1306 OFFCURVE",
"324 1280 QCURVE SMOOTH",
"312 1270 OFFCURVE",
"290 1260 OFFCURVE",
"278 1254 QCURVE SMOOTH",
"262 1246 OFFCURVE",
"236 1232 OFFCURVE",
"220 1224 QCURVE",
"192 1214 OFFCURVE",
"170 1200 QCURVE",
"162 1182 OFFCURVE",
"172 1138 OFFCURVE",
"186 1130 QCURVE",
"196 1130 OFFCURVE",
"208 1120 OFFCURVE",
"216 1116 QCURVE SMOOTH",
"226 1112 OFFCURVE",
"244 1110 OFFCURVE",
"252 1114 QCURVE",
"274 1108 OFFCURVE",
"310 1116 OFFCURVE",
"340 1130 OFFCURVE",
"372 1144 OFFCURVE",
"390 1144 QCURVE",
"400 1154 OFFCURVE",
"422 1172 OFFCURVE",
"444 1190 QCURVE",
"482 1214 OFFCURVE",
"534 1288 OFFCURVE",
"578 1314 QCURVE SMOOTH",
"598 1324 OFFCURVE",
"630 1354 OFFCURVE",
"652 1358 QCURVE",
"632 1318 OFFCURVE",
"590 1250 OFFCURVE",
"578 1204 QCURVE",
"550 1170 OFFCURVE",
"512 1090 OFFCURVE",
"492 1046 QCURVE",
"480 1030 OFFCURVE",
"462 994 OFFCURVE",
"450 968 QCURVE",
"412 922 OFFCURVE",
"360 812 OFFCURVE",
"326 740 QCURVE",
"316 714 OFFCURVE",
"298 660 OFFCURVE",
"292 630 QCURVE",
"288 620 OFFCURVE",
"284 602 OFFCURVE",
"282 592 QCURVE",
"278 582 OFFCURVE",
"272 566 OFFCURVE",
"272 556 QCURVE",
"270 542 OFFCURVE",
"278 520 OFFCURVE",
"276 510 QCURVE",
"280 500 OFFCURVE",
"294 482 OFFCURVE",
"300 472 QCURVE SMOOTH",
"310 454 OFFCURVE",
"322 422 OFFCURVE",
"336 412 QCURVE SMOOTH",
"344 406 OFFCURVE",
"360 400 OFFCURVE",
"370 396 QCURVE SMOOTH",
"390 390 OFFCURVE",
"444 378 OFFCURVE",
"462 380 QCURVE SMOOTH",
"472 382 OFFCURVE",
"492 392 OFFCURVE",
"502 394 QCURVE SMOOTH",
"512 396 OFFCURVE",
"522 400 OFFCURVE",
"530 402 QCURVE",
"536 406 OFFCURVE",
"548 406 OFFCURVE",
"552 408 QCURVE SMOOTH",
"572 416 OFFCURVE",
"598 442 OFFCURVE",
"614 450 QCURVE",
"626 462 OFFCURVE",
"634 464 QCURVE",
"664 492 OFFCURVE",
"714 552 OFFCURVE",
"744 580 QCURVE SMOOTH",
"772 608 OFFCURVE",
"832 658 OFFCURVE",
"856 690 QCURVE",
"872 702 OFFCURVE",
"902 728 OFFCURVE",
"916 744 QCURVE",
"938 756 OFFCURVE",
"970 784 OFFCURVE",
"992 798 QCURVE",
"982 766 OFFCURVE",
"952 702 OFFCURVE",
"940 672 QCURVE SMOOTH",
"932 652 OFFCURVE",
"918 616 OFFCURVE",
"910 594 QCURVE SMOOTH",
"896 554 OFFCURVE",
"862 492 OFFCURVE",
"842 460 QCURVE SMOOTH",
"826 438 OFFCURVE",
"798 392 OFFCURVE",
"780 372 QCURVE",
"766 348 OFFCURVE",
"734 310 OFFCURVE",
"718 282 QCURVE",
"702 264 OFFCURVE",
"670 226 OFFCURVE",
"654 206 QCURVE SMOOTH",
"638 188 OFFCURVE",
"604 152 OFFCURVE",
"588 132 QCURVE",
"572 116 OFFCURVE",
"544 84 OFFCURVE",
"532 68 QCURVE SMOOTH",
"508 38 OFFCURVE",
"476 16 QCURVE",
"442 -12 OFFCURVE",
"364 -84 OFFCURVE",
"330 -108 QCURVE",
"320 -112 OFFCURVE",
"300 -122 OFFCURVE",
"280 -132 QCURVE",
"274 -130 OFFCURVE",
"254 -130 OFFCURVE",
"250 -132 QCURVE",
"218 -102 OFFCURVE",
"198 -68 QCURVE",
"192 -50 OFFCURVE",
"184 2 OFFCURVE",
"180 22 QCURVE SMOOTH",
"176 50 OFFCURVE",
"174 124 OFFCURVE",
"178 152 QCURVE SMOOTH",
"180 168 OFFCURVE",
"188 198 OFFCURVE",
"192 212 QCURVE SMOOTH",
"202 242 OFFCURVE",
"170 296 OFFCURVE",
"146 292 QCURVE SMOOTH",
"134 290 OFFCURVE",
"116 276 OFFCURVE",
"102 280 QCURVE",
"86 274 OFFCURVE",
"62 254 OFFCURVE",
"38 248 QCURVE",
"32 244 OFFCURVE",
"14 222 OFFCURVE",
"12 218 QCURVE SMOOTH",
"8 210 OFFCURVE",
"12 184 OFFCURVE",
"14 176 QCURVE SMOOTH",
"16 170 OFFCURVE",
"22 160 OFFCURVE",
"22 154 QCURVE SMOOTH",
"22 144 OFFCURVE",
"16 128 OFFCURVE",
"14 118 QCURVE",
"14 80 LINE SMOOTH",
"14 32 OFFCURVE",
"38 -58 OFFCURVE",
"52 -98 QCURVE SMOOTH",
"56 -108 OFFCURVE",
"56 -124 OFFCURVE",
"60 -134 QCURVE SMOOTH",
"64 -144 OFFCURVE",
"72 -158 OFFCURVE",
"80 -164 QCURVE SMOOTH",
"86 -168 OFFCURVE",
"96 -178 OFFCURVE",
"100 -182 QCURVE",
"114 -192 OFFCURVE",
"148 -202 OFFCURVE",
"164 -222 QCURVE",
"172 -228 OFFCURVE",
"186 -230 OFFCURVE",
"196 -234 QCURVE SMOOTH",
"206 -238 OFFCURVE",
"220 -248 OFFCURVE",
"230 -250 QCURVE",
"234 -250 OFFCURVE",
"242 -248 OFFCURVE",
"256 -254 QCURVE SMOOTH",
"260 -256 OFFCURVE",
"268 -252 OFFCURVE",
"278 -258 QCURVE",
"286 -258 OFFCURVE",
"308 -250 OFFCURVE",
"318 -248 QCURVE",
"328 -244 OFFCURVE",
"344 -238 OFFCURVE",
"364 -230 QCURVE",
"392 -210 OFFCURVE",
"448 -180 OFFCURVE",
"478 -160 QCURVE SMOOTH",
"504 -142 OFFCURVE",
"554 -102 OFFCURVE",
"586 -78 QCURVE",
"604 -62 OFFCURVE",
"644 -28 OFFCURVE",
"666 -12 QCURVE",
"682 10 OFFCURVE",
"724 50 OFFCURVE",
"746 70 QCURVE",
"768 94 OFFCURVE",
"810 142 OFFCURVE",
"832 164 QCURVE",
"854 198 OFFCURVE",
"906 256 OFFCURVE",
"936 292 QCURVE",
"938 302 OFFCURVE",
"946 308 OFFCURVE",
"950 312 QCURVE",
"956 322 OFFCURVE",
"966 340 OFFCURVE",
"974 344 QCURVE",
"982 364 OFFCURVE",
"1002 380 QCURVE",
"1006 400 OFFCURVE",
"1024 432 OFFCURVE",
"1036 458 QCURVE",
"1042 488 OFFCURVE",
"1058 524 QCURVE",
"1068 554 OFFCURVE",
"1088 606 OFFCURVE",
"1092 638 QCURVE",
"1106 672 OFFCURVE",
"1128 748 OFFCURVE",
"1140 784 QCURVE",
"1156 808 OFFCURVE",
"1174 856 OFFCURVE",
"1194 890 QCURVE SMOOTH",
"1196 894 OFFCURVE",
"1196 900 OFFCURVE",
"1210 920 QCURVE",
"1214 924 OFFCURVE",
"1214 932 OFFCURVE",
"1226 952 QCURVE",
"1240 968 OFFCURVE",
"1254 1010 OFFCURVE",
"1264 1026 QCURVE",
"1268 1036 OFFCURVE",
"1276 1060 OFFCURVE",
"1290 1082 QCURVE SMOOTH",
"1294 1090 OFFCURVE",
"1302 1106 OFFCURVE",
"1306 1114 QCURVE SMOOTH",
"1310 1124 OFFCURVE",
"1316 1142 OFFCURVE",
"1320 1154 QCURVE SMOOTH",
"1324 1162 OFFCURVE",
"1338 1172 OFFCURVE",
"1342 1180 QCURVE SMOOTH",
"1346 1188 OFFCURVE",
"1356 1206 OFFCURVE",
"1360 1214 QCURVE SMOOTH",
"1370 1236 OFFCURVE",
"1382 1274 OFFCURVE",
"1390 1296 QCURVE",
"1420 1344 OFFCURVE",
"1452 1414 QCURVE",
"1452 1424 OFFCURVE",
"1466 1448 OFFCURVE",
"1466 1462 QCURVE SMOOTH",
"1468 1478 OFFCURVE",
"1468 1498 OFFCURVE",
"1456 1502 QCURVE",
"1430 1498 OFFCURVE",
"1366 1494 OFFCURVE",
"1338 1482 QCURVE SMOOTH",
"1316 1472 OFFCURVE",
"1272 1450 OFFCURVE",
"1256 1436 QCURVE",
"1232 1408 OFFCURVE",
"1206 1354 OFFCURVE",
"1184 1296 OFFCURVE",
"1162 1230 OFFCURVE",
"1130 1184 QCURVE",
"1122 1164 OFFCURVE",
"1106 1144 QCURVE",
"1098 1122 OFFCURVE",
"1078 1084 OFFCURVE",
"1068 1062 QCURVE",
"1054 1052 OFFCURVE",
"1032 1026 OFFCURVE",
"1022 1014 QCURVE",
"1002 998 OFFCURVE",
"954 964 OFFCURVE",
"934 948 QCURVE SMOOTH",
"928 944 OFFCURVE",
"918 936 OFFCURVE",
"914 932 QCURVE",
"908 928 OFFCURVE",
"888 916 OFFCURVE",
"882 906 QCURVE",
"866 890 OFFCURVE",
"842 860 OFFCURVE",
"828 846 QCURVE SMOOTH",
"820 838 OFFCURVE",
"804 826 OFFCURVE",
"800 816 QCURVE",
"768 788 OFFCURVE",
"706 722 OFFCURVE",
"682 686 QCURVE",
"672 682 OFFCURVE",
"660 666 OFFCURVE",
"648 664 QCURVE",
"622 636 OFFCURVE",
"574 590 OFFCURVE",
"536 574 QCURVE",
"524 558 OFFCURVE",
"504 550 QCURVE",
"494 538 OFFCURVE",
"452 516 OFFCURVE",
"436 532 QCURVE",
"440 572 OFFCURVE",
"466 640 OFFCURVE",
"478 676 QCURVE SMOOTH",
"488 706 OFFCURVE",
"514 766 OFFCURVE",
"526 794 QCURVE SMOOTH",
"540 822 OFFCURVE",
"572 870 OFFCURVE",
"578 904 QCURVE",
"584 926 OFFCURVE",
"610 960 OFFCURVE",
"622 976 QCURVE SMOOTH",
"626 982 OFFCURVE",
"636 996 OFFCURVE",
"642 1014 QCURVE SMOOTH",
"646 1028 OFFCURVE",
"652 1038 QCURVE SMOOTH",
"660 1054 OFFCURVE",
"686 1086 OFFCURVE",
"696 1098 QCURVE",
"698 1108 OFFCURVE",
"708 1120 OFFCURVE",
"712 1128 QCURVE SMOOTH",
"720 1144 OFFCURVE",
"738 1172 OFFCURVE",
"748 1186 QCURVE SMOOTH",
"754 1196 OFFCURVE",
"764 1214 OFFCURVE",
"770 1224 QCURVE SMOOTH",
"776 1234 OFFCURVE",
"792 1250 OFFCURVE",
"798 1260 QCURVE SMOOTH",
"802 1266 OFFCURVE",
"810 1282 OFFCURVE",
"816 1290 QCURVE",
"822 1304 OFFCURVE",
"838 1324 OFFCURVE",
"848 1344 QCURVE",
"852 1362 OFFCURVE",
"864 1398 OFFCURVE",
"862 1424 QCURVE",
"858 1446 LINE"
);
}
);
width = 1202;
}
);
note = Y;
unicode = 0059;
},
{
glyphname = Z;
layers = (
{
layerId = "F6DB7C97-1387-4B6F-ABF5-DF6BEF73745E";
paths = (
{
closed = 1;
nodes = (
"1224 1472 QCURVE",
"1192 1486 OFFCURVE",
"1116 1482 OFFCURVE",
"1088 1484 QCURVE SMOOTH",
"1074 1486 OFFCURVE",
"1046 1490 OFFCURVE",
"1036 1486 QCURVE",
"972 1490 OFFCURVE",
"856 1490 OFFCURVE",
"788 1490 QCURVE",
"758 1480 OFFCURVE",
"730 1480 QCURVE",
"680 1464 OFFCURVE",
"578 1450 OFFCURVE",
"526 1440 QCURVE SMOOTH",
"502 1436 OFFCURVE",
"450 1430 OFFCURVE",
"408 1422 QCURVE",
"398 1418 OFFCURVE",
"380 1410 OFFCURVE",
"356 1410 QCURVE",
"348 1406 OFFCURVE",
"342 1380 OFFCURVE",
"354 1360 QCURVE SMOOTH",
"358 1352 OFFCURVE",
"368 1344 OFFCURVE",
"392 1330 QCURVE SMOOTH",
"412 1318 OFFCURVE",
"460 1316 OFFCURVE",
"484 1316 QCURVE SMOOTH",
"502 1316 OFFCURVE",
"526 1314 OFFCURVE",
"538 1304 QCURVE SMOOTH",
"548 1296 OFFCURVE",
"572 1298 OFFCURVE",
"588 1294 QCURVE",
"596 1294 OFFCURVE",
"608 1292 OFFCURVE",
"616 1290 QCURVE SMOOTH",
"630 1286 OFFCURVE",
"656 1286 OFFCURVE",
"672 1286 QCURVE",
"682 1288 OFFCURVE",
"704 1284 OFFCURVE",
"716 1284 QCURVE",
"728 1286 OFFCURVE",
"750 1294 OFFCURVE",
"760 1298 QCURVE",
"786 1304 OFFCURVE",
"838 1316 OFFCURVE",
"866 1320 QCURVE SMOOTH",
"894 1326 OFFCURVE",
"948 1338 OFFCURVE",
"974 1334 QCURVE",
"952 1308 OFFCURVE",
"910 1244 OFFCURVE",
"886 1218 QCURVE",
"882 1206 OFFCURVE",
"866 1194 OFFCURVE",
"862 1184 QCURVE",
"856 1180 OFFCURVE",
"846 1168 OFFCURVE",
"842 1164 QCURVE SMOOTH",
"828 1148 OFFCURVE",
"798 1116 OFFCURVE",
"784 1100 QCURVE SMOOTH",
"774 1088 OFFCURVE",
"762 1068 OFFCURVE",
"752 1058 QCURVE SMOOTH",
"748 1054 OFFCURVE",
"738 1046 OFFCURVE",
"732 1042 QCURVE SMOOTH",
"714 1028 OFFCURVE",
"686 996 OFFCURVE",
"670 978 QCURVE",
"650 930 OFFCURVE",
"582 860 OFFCURVE",
"536 820 QCURVE",
"502 772 OFFCURVE",
"426 682 OFFCURVE",
"392 630 QCURVE",
"380 622 OFFCURVE",
"376 614 QCURVE",
"360 598 OFFCURVE",
"332 562 OFFCURVE",
"318 540 QCURVE",
"306 530 OFFCURVE",
"292 510 QCURVE",
"268 488 OFFCURVE",
"228 432 OFFCURVE",
"192 394 QCURVE",
"170 364 OFFCURVE",
"114 322 OFFCURVE",
"94 288 QCURVE",
"76 272 OFFCURVE",
"44 228 OFFCURVE",
"28 204 QCURVE",
"18 196 OFFCURVE",
"2 174 OFFCURVE",
"-4 162 QCURVE",
"-24 138 OFFCURVE",
"-68 74 OFFCURVE",
"-62 30 QCURVE",
"-58 18 OFFCURVE",
"-48 -2 OFFCURVE",
"-44 -20 QCURVE",
"-36 -34 OFFCURVE",
"-6 -50 OFFCURVE",
"14 -48 QCURVE SMOOTH",
"32 -46 OFFCURVE",
"76 -32 OFFCURVE",
"108 -28 QCURVE SMOOTH",
"138 -24 OFFCURVE",
"198 -16 OFFCURVE",
"226 -16 QCURVE",
"254 -10 OFFCURVE",
"326 -8 OFFCURVE",
"354 0 QCURVE",
"394 4 OFFCURVE",
"472 12 OFFCURVE",
"514 14 QCURVE SMOOTH",
"536 16 OFFCURVE",
"582 22 OFFCURVE",
"622 14 QCURVE SMOOTH",
"646 10 OFFCURVE",
"698 18 OFFCURVE",
"720 10 QCURVE",
"730 -12 OFFCURVE",
"776 0 OFFCURVE",
"790 12 QCURVE",
"818 16 OFFCURVE",
"858 12 OFFCURVE",
"878 28 QCURVE",
"900 26 OFFCURVE",
"932 42 OFFCURVE",
"948 48 QCURVE",
"964 58 OFFCURVE",
"962 80 OFFCURVE",
"952 90 QCURVE SMOOTH",
"942 100 OFFCURVE",
"920 114 OFFCURVE",
"916 124 QCURVE",
"904 134 OFFCURVE",
"870 142 OFFCURVE",
"856 146 QCURVE",
"850 150 OFFCURVE",
"836 150 OFFCURVE",
"832 152 QCURVE SMOOTH",
"826 154 OFFCURVE",
"818 158 OFFCURVE",
"812 162 QCURVE",
"796 166 OFFCURVE",
"762 170 OFFCURVE",
"746 174 QCURVE SMOOTH",
"728 178 OFFCURVE",
"692 182 OFFCURVE",
"674 186 QCURVE",
"658 184 OFFCURVE",
"624 184 OFFCURVE",
"608 184 QCURVE SMOOTH",
"598 184 OFFCURVE",
"578 186 OFFCURVE",
"568 186 QCURVE SMOOTH",
"546 184 OFFCURVE",
"504 178 OFFCURVE",
"486 176 QCURVE SMOOTH",
"432 174 OFFCURVE",
"298 150 OFFCURVE",
"218 148 QCURVE",
"222 152 OFFCURVE",
"230 162 OFFCURVE",
"236 164 QCURVE",
"246 178 OFFCURVE",
"274 218 OFFCURVE",
"304 262 OFFCURVE",
"332 304 OFFCURVE",
"340 320 QCURVE",
"370 348 OFFCURVE",
"398 394 QCURVE",
"428 432 OFFCURVE",
"490 512 OFFCURVE",
"518 552 QCURVE",
"540 576 OFFCURVE",
"582 626 OFFCURVE",
"604 652 QCURVE SMOOTH",
"626 678 OFFCURVE",
"670 728 OFFCURVE",
"692 754 QCURVE",
"696 760 OFFCURVE",
"706 774 OFFCURVE",
"712 782 QCURVE SMOOTH",
"716 788 OFFCURVE",
"732 798 OFFCURVE",
"736 806 QCURVE",
"746 818 OFFCURVE",
"762 844 OFFCURVE",
"788 868 QCURVE",
"798 892 OFFCURVE",
"830 922 OFFCURVE",
"840 942 QCURVE",
"868 970 OFFCURVE",
"920 1030 OFFCURVE",
"952 1068 QCURVE",
"966 1078 OFFCURVE",
"990 1102 OFFCURVE",
"1000 1114 QCURVE SMOOTH",
"1010 1126 OFFCURVE",
"1032 1150 OFFCURVE",
"1042 1166 QCURVE",
"1056 1174 OFFCURVE",
"1064 1186 QCURVE",
"1082 1196 OFFCURVE",
"1112 1228 OFFCURVE",
"1128 1240 QCURVE",
"1140 1254 OFFCURVE",
"1164 1282 OFFCURVE",
"1180 1294 QCURVE",
"1192 1316 OFFCURVE",
"1228 1362 OFFCURVE",
"1232 1392 QCURVE SMOOTH",
"1238 1422 OFFCURVE",
"1228 1444 QCURVE",
"1230 1446 OFFCURVE",
"1246 1450 OFFCURVE",
"1248 1454 QCURVE",
"1246 1458 OFFCURVE"
);
}
);
width = 1062;
}
);
note = Z;
unicode = 005A;
},
{
glyphname = a;
layers = (
{
layerId = "F6DB7C97-1387-4B6F-ABF5-DF6BEF73745E";
paths = (
{
closed = 1;
nodes = (
"630 576 OFFCURVE",
"600 586 QCURVE",
"596 586 OFFCURVE",
"584 580 OFFCURVE",
"578 580 QCURVE",
"558 576 OFFCURVE",
"522 578 OFFCURVE",
"508 576 QCURVE",
"494 598 OFFCURVE",
"456 634 OFFCURVE",
"436 652 QCURVE",
"412 658 OFFCURVE",
"356 674 OFFCURVE",
"330 652 QCURVE SMOOTH",
"320 644 OFFCURVE",
"300 628 OFFCURVE",
"286 622 QCURVE",
"246 586 OFFCURVE",
"146 530 OFFCURVE",
"112 488 QCURVE",
"100 478 OFFCURVE",
"80 460 OFFCURVE",
"72 446 QCURVE",
"62 442 OFFCURVE",
"52 426 OFFCURVE",
"46 420 QCURVE SMOOTH",
"34 408 OFFCURVE",
"8 386 OFFCURVE",
"-2 372 QCURVE",
"-8 366 OFFCURVE",
"-24 354 OFFCURVE",
"-28 348 QCURVE",
"-32 344 OFFCURVE",
"-36 332 OFFCURVE",
"-40 326 QCURVE",
"-52 314 OFFCURVE",
"-56 306 QCURVE SMOOTH",
"-68 280 OFFCURVE",
"-82 216 OFFCURVE",
"-80 188 QCURVE SMOOTH",
"-80 180 OFFCURVE",
"-84 166 OFFCURVE",
"-80 160 QCURVE",
"-84 150 OFFCURVE",
"-76 128 OFFCURVE",
"-74 112 QCURVE SMOOTH",
"-70 94 OFFCURVE",
"-64 66 OFFCURVE",
"-58 50 QCURVE",
"-42 18 OFFCURVE",
"4 -30 OFFCURVE",
"38 -36 QCURVE",
"54 -44 OFFCURVE",
"86 -52 OFFCURVE",
"106 -62 QCURVE",
"126 -66 OFFCURVE",
"160 -60 OFFCURVE",
"170 -48 QCURVE",
"174 -50 OFFCURVE",
"186 -42 OFFCURVE",
"192 -36 QCURVE SMOOTH",
"238 2 OFFCURVE",
"328 72 OFFCURVE",
"368 110 QCURVE",
"390 120 OFFCURVE",
"418 152 OFFCURVE",
"434 162 QCURVE",
"442 128 OFFCURVE",
"458 68 OFFCURVE",
"476 46 QCURVE",
"488 38 OFFCURVE",
"496 26 QCURVE",
"514 22 OFFCURVE",
"554 6 OFFCURVE",
"578 10 QCURVE",
"588 10 OFFCURVE",
"606 20 OFFCURVE",
"614 24 QCURVE SMOOTH",
"630 32 OFFCURVE",
"658 54 OFFCURVE",
"670 60 QCURVE",
"684 76 OFFCURVE",
"706 100 OFFCURVE",
"724 112 QCURVE",
"730 122 OFFCURVE",
"746 134 OFFCURVE",
"754 140 QCURVE",
"778 168 OFFCURVE",
"820 202 OFFCURVE",
"846 230 QCURVE",
"850 232 OFFCURVE",
"858 240 OFFCURVE",
"880 252 QCURVE SMOOTH",
"896 262 OFFCURVE",
"910 274 OFFCURVE",
"928 284 QCURVE",
"932 288 OFFCURVE",
"944 288 OFFCURVE",
"954 306 QCURVE",
"960 314 OFFCURVE",
"978 328 OFFCURVE",
"984 336 QCURVE SMOOTH",
"986 338 OFFCURVE",
"986 342 OFFCURVE",
"996 356 QCURVE SMOOTH",
"1006 370 OFFCURVE",
"1014 404 OFFCURVE",
"1008 420 QCURVE",
"1000 424 OFFCURVE",
"988 432 OFFCURVE",
"978 432 QCURVE",
"964 416 OFFCURVE",
"934 394 OFFCURVE",
"920 378 QCURVE",
"896 368 OFFCURVE",
"882 346 OFFCURVE",
"864 332 QCURVE",
"846 308 OFFCURVE",
"812 286 QCURVE",
"804 282 OFFCURVE",
"794 274 OFFCURVE",
"772 262 QCURVE",
"768 258 OFFCURVE",
"760 250 OFFCURVE",
"756 246 QCURVE",
"740 236 OFFCURVE",
"726 224 OFFCURVE",
"708 216 QCURVE",
"686 192 OFFCURVE",
"638 166 OFFCURVE",
"598 160 QCURVE",
"586 170 OFFCURVE",
"582 202 OFFCURVE",
"574 216 QCURVE",
"578 238 OFFCURVE",
"586 294 OFFCURVE",
"586 316 QCURVE SMOOTH",
"588 338 OFFCURVE",
"592 380 OFFCURVE",
"596 402 QCURVE SMOOTH",
"598 416 OFFCURVE",
"596 448 OFFCURVE",
"600 460 QCURVE SMOOTH",
"602 470 OFFCURVE",
"608 482 OFFCURVE",
"612 490 QCURVE",
"614 504 OFFCURVE",
"624 516 QCURVE",
"630 534 OFFCURVE",
"628 540 QCURVE",
"630 556 LINE"
);
},
{
closed = 1;
nodes = (
"396 526 OFFCURVE",
"404 522 QCURVE",
"416 480 OFFCURVE",
"410 382 OFFCURVE",
"414 330 QCURVE",
"366 256 OFFCURVE",
"242 138 OFFCURVE",
"172 84 QCURVE",
"162 82 OFFCURVE",
"136 74 OFFCURVE",
"124 82 QCURVE SMOOTH",
"112 90 OFFCURVE",
"106 136 OFFCURVE",
"106 152 QCURVE SMOOTH",
"106 174 OFFCURVE",
"100 196 QCURVE SMOOTH",
"98 206 OFFCURVE",
"98 226 OFFCURVE",
"98 236 QCURVE SMOOTH",
"98 248 OFFCURVE",
"96 268 OFFCURVE",
"100 278 QCURVE",
"104 284 OFFCURVE",
"112 294 OFFCURVE",
"116 302 QCURVE SMOOTH",
"122 314 OFFCURVE",
"136 342 OFFCURVE",
"144 352 QCURVE SMOOTH",
"152 362 OFFCURVE",
"174 380 OFFCURVE",
"184 390 QCURVE SMOOTH",
"224 430 OFFCURVE",
"312 500 OFFCURVE",
"366 526 QCURVE",
"374 524 OFFCURVE"
);
}
);
width = 848;
}
);
note = a;
unicode = 0061;
},
{
glyphname = b;
layers = (
{
layerId = "F6DB7C97-1387-4B6F-ABF5-DF6BEF73745E";
paths = (
{
closed = 1;
nodes = (
"572 424 OFFCURVE",
"588 428 QCURVE SMOOTH",
"600 432 OFFCURVE",
"622 436 OFFCURVE",
"636 440 QCURVE",
"642 444 OFFCURVE",
"656 444 OFFCURVE",
"662 446 QCURVE SMOOTH",
"676 450 OFFCURVE",
"702 460 OFFCURVE",
"714 464 QCURVE SMOOTH",
"740 472 OFFCURVE",
"794 484 OFFCURVE",
"822 480 QCURVE",
"834 476 OFFCURVE",
"856 466 OFFCURVE",
"870 464 QCURVE SMOOTH",
"874 464 OFFCURVE",
"878 468 OFFCURVE",
"894 464 QCURVE",
"902 466 OFFCURVE",
"918 496 OFFCURVE",
"920 506 QCURVE SMOOTH",
"922 522 OFFCURVE",
"908 550 OFFCURVE",
"894 552 QCURVE SMOOTH",
"878 556 OFFCURVE",
"842 542 OFFCURVE",
"824 540 QCURVE",
"808 536 OFFCURVE",
"778 538 OFFCURVE",
"766 538 QCURVE SMOOTH",
"728 538 OFFCURVE",
"702 532 QCURVE SMOOTH",
"686 528 OFFCURVE",
"658 530 OFFCURVE",
"642 532 QCURVE SMOOTH",
"628 534 OFFCURVE",
"602 528 OFFCURVE",
"590 526 QCURVE",
"568 526 OFFCURVE",
"548 538 OFFCURVE",
"514 534 QCURVE",
"510 532 OFFCURVE",
"502 534 OFFCURVE",
"484 518 QCURVE SMOOTH",
"474 508 OFFCURVE",
"444 470 OFFCURVE",
"440 458 QCURVE",
"432 442 OFFCURVE",
"434 402 OFFCURVE",
"430 380 QCURVE SMOOTH",
"426 364 OFFCURVE",
"414 340 OFFCURVE",
"404 308 QCURVE",
"382 274 OFFCURVE",
"334 198 OFFCURVE",
"310 168 QCURVE",
"300 158 OFFCURVE",
"280 134 OFFCURVE",
"270 126 QCURVE",
"262 122 OFFCURVE",
"234 110 OFFCURVE",
"226 108 QCURVE",
"204 106 OFFCURVE",
"172 132 OFFCURVE",
"166 150 QCURVE SMOOTH",
"160 166 OFFCURVE",
"154 204 OFFCURVE",
"152 226 QCURVE SMOOTH",
"150 248 OFFCURVE",
"152 294 OFFCURVE",
"148 312 QCURVE",
"150 322 OFFCURVE",
"154 342 OFFCURVE",
"152 370 QCURVE",
"154 374 OFFCURVE",
"162 378 OFFCURVE",
"174 400 QCURVE",
"176 402 OFFCURVE",
"180 402 OFFCURVE",
"192 420 QCURVE",
"196 424 OFFCURVE",
"204 430 OFFCURVE",
"210 446 QCURVE",
"214 452 OFFCURVE",
"228 464 OFFCURVE",
"232 472 QCURVE SMOOTH",
"236 478 OFFCURVE",
"242 490 OFFCURVE",
"246 496 QCURVE SMOOTH",
"252 506 OFFCURVE",
"290 542 OFFCURVE",
"294 556 QCURVE",
"314 574 OFFCURVE",
"346 612 OFFCURVE",
"362 632 QCURVE",
"368 642 OFFCURVE",
"380 658 OFFCURVE",
"390 660 QCURVE",
"418 700 OFFCURVE",
"462 788 OFFCURVE",
"486 834 QCURVE",
"502 848 OFFCURVE",
"530 886 OFFCURVE",
"540 908 QCURVE",
"554 918 OFFCURVE",
"566 944 OFFCURVE",
"576 954 QCURVE",
"586 980 OFFCURVE",
"616 1020 OFFCURVE",
"628 1042 QCURVE SMOOTH",
"644 1074 OFFCURVE",
"680 1130 OFFCURVE",
"698 1170 QCURVE SMOOTH",
"714 1206 OFFCURVE",
"748 1278 OFFCURVE",
"766 1312 QCURVE",
"776 1342 OFFCURVE",
"764 1406 OFFCURVE",
"768 1442 QCURVE",
"756 1476 OFFCURVE",
"704 1522 OFFCURVE",
"664 1520 QCURVE SMOOTH",
"642 1518 OFFCURVE",
"620 1498 OFFCURVE",
"594 1476 QCURVE SMOOTH",
"580 1466 OFFCURVE",
"556 1438 OFFCURVE",
"542 1424 QCURVE",
"530 1408 OFFCURVE",
"506 1380 OFFCURVE",
"498 1368 QCURVE",
"452 1322 OFFCURVE",
"382 1224 OFFCURVE",
"346 1174 QCURVE SMOOTH",
"318 1136 OFFCURVE",
"270 1054 OFFCURVE",
"246 1014 QCURVE SMOOTH",
"242 1006 OFFCURVE",
"230 990 QCURVE",
"226 980 OFFCURVE",
"220 966 OFFCURVE",
"202 942 QCURVE",
"192 922 OFFCURVE",
"178 882 OFFCURVE",
"168 862 QCURVE SMOOTH",
"158 842 OFFCURVE",
"144 802 OFFCURVE",
"136 782 QCURVE",
"124 772 OFFCURVE",
"118 752 OFFCURVE",
"114 738 QCURVE SMOOTH",
"110 720 OFFCURVE",
"92 688 OFFCURVE",
"88 672 QCURVE",
"84 662 OFFCURVE",
"78 644 OFFCURVE",
"74 634 QCURVE SMOOTH",
"70 626 OFFCURVE",
"62 610 OFFCURVE",
"58 600 QCURVE SMOOTH",
"50 582 OFFCURVE",
"42 544 OFFCURVE",
"34 522 QCURVE SMOOTH",
"30 506 OFFCURVE",
"18 474 OFFCURVE",
"14 456 QCURVE SMOOTH",
"8 432 OFFCURVE",
"10 364 OFFCURVE",
"12 336 QCURVE SMOOTH",
"14 316 OFFCURVE",
"10 276 OFFCURVE",
"12 258 QCURVE SMOOTH",
"18 196 OFFCURVE",
"28 134 QCURVE SMOOTH",
"32 108 OFFCURVE",
"42 66 OFFCURVE",
"62 46 QCURVE",
"76 24 OFFCURVE",
"102 -16 OFFCURVE",
"140 -30 QCURVE",
"152 -44 OFFCURVE",
"184 -60 OFFCURVE",
"204 -54 QCURVE SMOOTH",
"214 -50 OFFCURVE",
"228 -38 OFFCURVE",
"238 -36 QCURVE SMOOTH",
"248 -34 OFFCURVE",
"264 -38 OFFCURVE",
"274 -34 QCURVE SMOOTH",
"284 -30 OFFCURVE",
"302 -20 OFFCURVE",
"322 -16 QCURVE",
"330 -12 OFFCURVE",
"344 -6 OFFCURVE",
"352 -4 QCURVE",
"362 10 OFFCURVE",
"394 24 OFFCURVE",
"408 34 QCURVE SMOOTH",
"422 44 OFFCURVE",
"442 72 OFFCURVE",
"454 84 QCURVE SMOOTH",
"490 118 OFFCURVE",
"520 164 QCURVE",
"544 222 OFFCURVE",
"560 336 OFFCURVE",
"552 410 QCURVE",
"568 414 OFFCURVE"
);
},
{
closed = 1;
nodes = (
"518 1174 OFFCURVE",
"548 1198 QCURVE",
"546 1182 OFFCURVE",
"528 1160 OFFCURVE",
"522 1130 QCURVE",
"514 1104 OFFCURVE",
"492 1056 OFFCURVE",
"482 1030 QCURVE SMOOTH",
"472 1008 OFFCURVE",
"446 964 OFFCURVE",
"434 942 QCURVE SMOOTH",
"408 896 OFFCURVE",
"366 804 OFFCURVE",
"338 764 QCURVE",
"328 754 OFFCURVE",
"312 730 OFFCURVE",
"302 718 QCURVE SMOOTH",
"292 706 OFFCURVE",
"276 680 OFFCURVE",
"266 670 QCURVE",
"250 642 OFFCURVE",
"218 584 OFFCURVE",
"194 568 QCURVE",
"190 590 OFFCURVE",
"210 640 OFFCURVE",
"220 666 QCURVE SMOOTH",
"226 684 OFFCURVE",
"240 726 OFFCURVE",
"250 738 QCURVE",
"256 754 OFFCURVE",
"266 780 OFFCURVE",
"272 792 QCURVE SMOOTH",
"314 872 OFFCURVE",
"400 1018 OFFCURVE",
"446 1088 QCURVE",
"470 1116 OFFCURVE"
);
}
);
width = 736;
}
);
note = b;
unicode = 0062;
},
{
glyphname = c;
layers = (
{
layerId = "F6DB7C97-1387-4B6F-ABF5-DF6BEF73745E";
paths = (
{
closed = 1;
nodes = (
"808 446 OFFCURVE",
"794 446 QCURVE",
"780 432 OFFCURVE",
"750 410 OFFCURVE",
"736 396 QCURVE",
"690 370 OFFCURVE",
"606 320 OFFCURVE",
"570 288 QCURVE",
"560 288 OFFCURVE",
"550 278 OFFCURVE",
"540 276 QCURVE",
"518 260 OFFCURVE",
"476 226 OFFCURVE",
"450 208 QCURVE SMOOTH",
"442 202 OFFCURVE",
"426 192 OFFCURVE",
"418 188 QCURVE SMOOTH",
"388 170 OFFCURVE",
"334 138 OFFCURVE",
"306 118 QCURVE",
"284 106 OFFCURVE",
"234 74 OFFCURVE",
"202 78 QCURVE SMOOTH",
"174 82 OFFCURVE",
"118 140 OFFCURVE",
"106 182 QCURVE",
"106 198 OFFCURVE",
"126 228 OFFCURVE",
"136 262 QCURVE SMOOTH",
"166 350 OFFCURVE",
"270 480 OFFCURVE",
"338 538 QCURVE",
"334 546 OFFCURVE",
"348 552 OFFCURVE",
"352 560 QCURVE",
"372 556 OFFCURVE",
"422 562 OFFCURVE",
"446 562 QCURVE",
"462 572 OFFCURVE",
"486 594 OFFCURVE",
"496 610 QCURVE",
"510 626 OFFCURVE",
"548 690 OFFCURVE",
"544 720 QCURVE SMOOTH",
"542 730 OFFCURVE",
"528 746 OFFCURVE",
"520 748 QCURVE",
"516 752 OFFCURVE",
"502 752 OFFCURVE",
"496 756 QCURVE",
"490 750 OFFCURVE",
"472 754 OFFCURVE",
"462 752 QCURVE",
"452 748 OFFCURVE",
"432 736 OFFCURVE",
"420 738 QCURVE",
"412 730 OFFCURVE",
"392 726 OFFCURVE",
"380 722 QCURVE SMOOTH",
"370 718 OFFCURVE",
"352 706 OFFCURVE",
"342 702 QCURVE SMOOTH",
"320 692 OFFCURVE",
"282 676 OFFCURVE",
"264 666 QCURVE SMOOTH",
"248 656 OFFCURVE",
"218 624 OFFCURVE",
"204 610 QCURVE",
"194 596 OFFCURVE",
"174 570 OFFCURVE",
"162 558 QCURVE",
"158 552 OFFCURVE",
"148 546 OFFCURVE",
"136 530 QCURVE SMOOTH",
"126 516 OFFCURVE",
"104 494 OFFCURVE",
"94 480 QCURVE SMOOTH",
"80 458 OFFCURVE",
"44 420 OFFCURVE",
"28 402 QCURVE",
"24 396 OFFCURVE",
"22 380 OFFCURVE",
"18 376 QCURVE",
"12 366 OFFCURVE",
"-2 354 OFFCURVE",
"-8 344 QCURVE",
"-18 322 OFFCURVE",
"-34 274 OFFCURVE",
"-46 246 QCURVE",
"-50 230 OFFCURVE",
"-60 200 OFFCURVE",
"-62 184 QCURVE SMOOTH",
"-64 160 OFFCURVE",
"-48 116 OFFCURVE",
"-44 94 QCURVE SMOOTH",
"-38 72 OFFCURVE",
"-32 26 OFFCURVE",
"-22 10 QCURVE SMOOTH",
"-18 2 OFFCURVE",
"-2 -20 OFFCURVE",
"4 -26 QCURVE SMOOTH",
"12 -34 OFFCURVE",
"34 -52 OFFCURVE",
"54 -60 QCURVE SMOOTH",
"62 -64 OFFCURVE",
"74 -72 OFFCURVE",
"80 -74 QCURVE SMOOTH",
"102 -80 OFFCURVE",
"132 -74 OFFCURVE",
"154 -70 QCURVE",
"174 -80 OFFCURVE",
"212 -64 QCURVE SMOOTH",
"234 -54 OFFCURVE",
"284 -42 OFFCURVE",
"306 -26 QCURVE",
"328 -6 OFFCURVE",
"378 32 OFFCURVE",
"402 56 QCURVE",
"414 62 OFFCURVE",
"430 80 OFFCURVE",
"440 90 QCURVE",
"474 112 OFFCURVE",
"540 156 OFFCURVE",
"570 182 QCURVE",
"610 210 OFFCURVE",
"684 270 OFFCURVE",
"732 318 QCURVE",
"748 316 OFFCURVE",
"764 328 OFFCURVE",
"776 332 QCURVE",
"784 342 OFFCURVE",
"806 348 OFFCURVE",
"816 356 QCURVE SMOOTH",
"828 366 OFFCURVE",
"840 392 OFFCURVE",
"850 404 QCURVE",
"850 416 OFFCURVE",
"852 436 OFFCURVE",
"832 460 QCURVE",
"820 460 OFFCURVE"
);
}
);
width = 686;
}
);
note = c;
unicode = 0063;
},
